<svg version="1.0" xmlns="http://www.w3.org/2000/svg" width="115.000000pt" height="97.000000pt" viewBox="0 0 115.000000 97.000000" preserveAspectRatio="xMidYMid meet"><g transform="translate(0.000000,97.000000) scale(0.100000,-0.100000)" fill="#000000" stroke="none"><path d="M620 714 c-13 -5 -82 -37 -180 -83 -24 -11 -42 -30 -55 -58 -11 -23 -29 -45 -40 -49 -33 -11 -84 -53 -100 -84 -23 -45 -19 -130 8 -171 28 -41 82 -79 113 -79 19 0 24 -7 30 -36 4 -20 2 -46 -5 -60 -6 -14 -11 -36 -11 -49 0 -24 3 -25 61 -25 l61 0 -7 38 c-11 59 -6 154 10 193 3 10 2 20 -4 24 -8 4 -7 13 1 28 11 21 12 20 24 -18 7 -25 8 -49 3 -63 -6 -15 -5 -31 2 -44 10 -19 9 -52 -7 -126 l-6 -32 62 0 62 0 -7 38 c-8 44 -8 74 -2 212 5 121 21 200 46 231 22 27 37 19 46 -24 9 -41 32 -67 60 -67 39 0 54 30 61 123 l7 87 39 0 c58 0 47 27 -26 65 -51 26 -72 30 -145 32 -47 1 -93 0 -101 -3z"/></g></svg>
