<svg version="1.0" xmlns="http://www.w3.org/2000/svg"
 width="116.000000pt" height="97.000000pt" viewBox="0 0 116.000000 97.000000"
 preserveAspectRatio="xMidYMid meet">
<metadata>
Created by potrace 1.16, written by Peter Selinger 2001-2019
</metadata>
<g transform="translate(0.000000,97.000000) scale(0.100000,-0.100000)"
fill="#000000" stroke="none">
<path d="M468 712 c-25 -5 -47 -74 -57 -176 -7 -71 -13 -91 -27 -99 -64 -35
-114 -117 -114 -187 0 -86 63 -163 144 -175 24 -4 51 -5 58 -2 7 2 32 -7 56
-21 36 -21 52 -24 107 -20 42 3 70 10 83 21 11 10 37 23 58 28 47 13 91 52
110 96 21 49 18 156 -6 203 -11 21 -24 41 -29 44 -5 3 -12 36 -15 73 -12 113
-27 181 -48 202 -26 28 -35 27 -74 -14 -31 -33 -36 -35 -98 -35 -62 0 -66 2
-80 29 -15 29 -37 40 -68 33z m46 -225 c16 -16 27 -48 40 -117 10 -52 23 -100
28 -107 10 -13 -52 6 -110 35 -36 17 -77 75 -69 96 3 8 16 16 29 18 17 2 23
10 23 28 1 34 14 70 26 70 6 0 20 -10 33 -23z m271 -19 c9 -23 25 -52 35 -66
18 -22 18 -27 5 -52 -8 -15 -25 -34 -39 -43 -22 -15 -102 -46 -117 -47 -4 0 4
47 16 105 30 145 67 184 100 103z m-300 -207 c104 -19 110 -23 113 -60 3 -28
1 -33 -13 -27 -9 3 -19 6 -21 6 -2 0 -4 11 -4 25 0 35 -21 30 -48 -11 -23 -37
-21 -60 5 -50 8 4 33 1 55 -5 46 -12 98 -3 98 17 0 8 -7 14 -15 14 -17 0 -22
55 -6 64 5 3 42 13 82 21 41 9 86 24 100 35 29 21 39 17 39 -14 0 -74 -55
-156 -104 -156 -14 0 -42 -11 -62 -25 -49 -33 -119 -34 -159 -3 -21 16 -42 22
-85 22 -43 1 -64 6 -80 21 -46 40 -62 118 -39 183 l11 31 36 -38 c30 -32 48
-41 97 -50z"/>
</g>
</svg>
