<?xml version="1.0" standalone="no"?>
<!DOCTYPE svg PUBLIC "-//W3C//DTD SVG 20010904//EN"
 "http://www.w3.org/TR/2001/REC-SVG-20010904/DTD/svg10.dtd">
<svg version="1.0" xmlns="http://www.w3.org/2000/svg"
 width="116.000000pt" height="97.000000pt" viewBox="0 0 116.000000 97.000000"
 preserveAspectRatio="xMidYMid meet">
<metadata>
Created by potrace 1.16, written by Peter Selinger 2001-2019
</metadata>
<g transform="translate(0.000000,97.000000) scale(0.100000,-0.100000)"
fill="#000000" stroke="none">
<path d="M500 691 l0 -88 -47 23 c-56 29 -104 30 -160 4 -43 -19 -83 -69 -83
-102 0 -16 11 -18 89 -18 l89 0 7 -47 c4 -26 16 -71 27 -101 20 -53 20 -54 1
-75 -28 -32 -43 -73 -43 -117 0 -44 27 -110 45 -110 7 0 33 32 60 70 44 64 50
69 65 55 19 -17 46 -20 55 -5 11 18 20 11 64 -55 24 -36 49 -65 56 -65 19 0
45 67 45 116 0 46 -17 91 -43 112 -13 11 -11 20 8 70 13 31 27 78 30 105 l7
47 89 0 c78 0 89 2 89 18 0 33 -40 83 -83 102 -56 26 -104 25 -160 -4 l-47
-23 0 36 c0 68 -69 141 -132 141 l-28 0 0 -89z"/>
</g>
</svg>
