<?xml version="1.0" standalone="no"?>
<!DOCTYPE svg PUBLIC "-//W3C//DTD SVG 20010904//EN"
 "http://www.w3.org/TR/2001/REC-SVG-20010904/DTD/svg10.dtd">
<svg version="1.0" xmlns="http://www.w3.org/2000/svg"
 width="116.000000pt" height="97.000000pt" viewBox="0 0 116.000000 97.000000"
 preserveAspectRatio="xMidYMid meet">
<metadata>
Created by potrace 1.16, written by Peter Selinger 2001-2019
</metadata>
<g transform="translate(0.000000,97.000000) scale(0.100000,-0.100000)"
fill="#000000" stroke="none">
<path d="M560 908 c0 -37 -39 -75 -138 -134 -88 -53 -161 -78 -188 -63 -13 6
-30 9 -38 6 -22 -9 -20 -34 4 -42 33 -10 43 -44 48 -155 6 -135 -9 -213 -43
-228 -27 -12 -30 -19 -16 -40 7 -12 13 -12 37 1 34 18 64 9 175 -49 97 -51
159 -108 159 -145 0 -22 5 -29 20 -29 15 0 20 7 20 29 0 37 62 94 159 145 110
57 142 66 174 49 49 -25 65 7 21 42 -31 25 -43 76 -44 187 0 110 16 177 46
190 32 15 27 44 -6 40 -14 -2 -38 -4 -53 -4 -38 -1 -180 71 -244 124 -44 36
-53 48 -53 76 0 25 -4 32 -20 32 -16 0 -20 -7 -20 -32z m70 -214 c45 -30 45
-30 25 -81 l-15 -38 -60 0 -60 0 -17 43 c-9 23 -13 45 -10 48 17 18 74 53 85
54 7 0 30 -12 52 -26z"/>
</g>
</svg>
