<?xml version="1.0" standalone="no"?>
<!DOCTYPE svg PUBLIC "-//W3C//DTD SVG 20010904//EN"
 "http://www.w3.org/TR/2001/REC-SVG-20010904/DTD/svg10.dtd">
<svg version="1.0" xmlns="http://www.w3.org/2000/svg"
 width="116.000000pt" height="97.000000pt" viewBox="0 0 116.000000 97.000000"
 preserveAspectRatio="xMidYMid meet">
<metadata>
Created by potrace 1.16, written by Peter Selinger 2001-2019
</metadata>
<g transform="translate(0.000000,97.000000) scale(0.100000,-0.100000)"
fill="#000000" stroke="none">
<path d="M500 675 l0 -89 -60 59 c-33 32 -63 56 -66 52 -4 -4 5 -37 20 -73 15
-37 25 -68 23 -71 -3 -2 -30 8 -62 22 -58 25 -85 31 -85 18 0 -4 26 -33 57
-65 l57 -58 -82 0 c-45 0 -82 -4 -82 -9 0 -5 32 -22 72 -37 l71 -28 -59 -28
c-32 -15 -65 -27 -71 -28 -7 0 -13 -7 -13 -15 0 -12 15 -15 77 -15 l77 0 -52
-53 c-29 -29 -52 -58 -52 -65 0 -16 -4 -17 79 17 39 17 71 26 71 22 0 -5 -11
-34 -25 -66 -41 -91 -29 -99 43 -31 l62 59 0 -81 c0 -45 4 -82 8 -82 5 0 22
32 37 70 16 39 32 67 36 63 4 -4 18 -35 32 -68 36 -86 47 -82 47 16 l0 83 60
-59 c33 -32 63 -56 66 -52 4 4 -7 39 -24 79 -16 40 -29 74 -28 75 1 2 33 -10
71 -26 38 -16 73 -27 78 -24 5 3 -17 32 -49 64 l-58 59 83 0 c99 0 103 12 13
50 -34 14 -64 29 -67 32 -3 3 26 18 64 33 39 16 71 32 71 37 0 4 -37 8 -82 8
l-82 0 57 58 c81 82 75 90 -31 47 -34 -14 -64 -25 -66 -25 -3 0 8 32 25 71 34
83 33 79 17 79 -7 0 -36 -23 -65 -52 l-53 -52 0 83 c0 117 -10 110 -72 -49 -9
-23 -11 -20 -38 44 -44 103 -50 103 -50 1z"/>
</g>
</svg>
