<?xml version="1.0" encoding="UTF-8"?>
<svg xmlns="http://www.w3.org/2000/svg" xmlns:xlink="http://www.w3.org/1999/xlink" width="30pt" height="30pt" viewBox="0 0 30 30" version="1.1">
<g id="surface1">
<path style=" stroke:none;fill-rule:nonzero;fill:rgb(0.392157%,0%,0.784314%);fill-opacity:1;" d="M 25.117188 23.726562 L 6.789062 23.726562 C 3.046875 23.726562 0 20.679688 0 16.9375 C 0 13.191406 3.046875 10.144531 6.789062 10.144531 C 7.402344 10.144531 8.011719 10.230469 8.609375 10.398438 C 9.667969 7.910156 12.121094 6.273438 14.851562 6.273438 C 16.808594 6.273438 18.640625 7.105469 19.933594 8.566406 C 20.53125 8.3125 21.179688 8.183594 21.832031 8.183594 C 24.523438 8.183594 26.710938 10.371094 26.710938 13.0625 C 26.710938 13.441406 26.664062 13.816406 26.578125 14.1875 C 28.589844 14.816406 30 16.695312 30 18.847656 C 30 21.539062 27.808594 23.726562 25.117188 23.726562 Z M 6.789062 11.136719 C 3.59375 11.136719 0.988281 13.738281 0.988281 16.9375 C 0.988281 20.136719 3.59375 22.738281 6.789062 22.738281 L 25.117188 22.738281 C 27.265625 22.738281 29.007812 20.992188 29.007812 18.847656 C 29.007812 16.988281 27.683594 15.378906 25.859375 15.027344 C 25.71875 15 25.597656 14.914062 25.523438 14.789062 C 25.453125 14.660156 25.441406 14.511719 25.488281 14.375 C 25.644531 13.945312 25.722656 13.503906 25.722656 13.0625 C 25.722656 10.917969 23.976562 9.171875 21.832031 9.171875 C 21.195312 9.171875 20.589844 9.320312 20.027344 9.617188 C 19.816406 9.726562 19.554688 9.671875 19.410156 9.484375 C 18.296875 8.070312 16.636719 7.261719 14.851562 7.261719 C 12.378906 7.261719 10.175781 8.835938 9.371094 11.171875 C 9.328125 11.296875 9.234375 11.398438 9.117188 11.457031 C 8.996094 11.515625 8.859375 11.523438 8.734375 11.476562 C 8.101562 11.25 7.445312 11.136719 6.789062 11.136719 Z M 6.789062 11.136719 "/>
</g>
</svg>
