<svg xmlns="http://www.w3.org/2000/svg" xmlns:xlink="http://www.w3.org/1999/xlink" width="20px" height="20px" viewBox="0 0 20 20" version="1.1"><defs><filter id="alpha" filterUnits="objectBoundingBox" x="0%" y="0%" width="100%" height="100%">  <feColorMatrix type="matrix" in="SourceGraphic" values="0 0 0 0 1 0 0 0 0 1 0 0 0 0 1 0 0 0 1 0"/></filter><mask id="mask0">  <g filter="url(#alpha)"><rect x="0" y="0" width="20" height="20" style="fill:rgb(0%,0%,0%);fill-opacity:0.2;stroke:none;"/>  </g></mask><clipPath id="clip1">  <rect x="0" y="0" width="20" height="20"/></clipPath><g id="surface5" clip-path="url(#clip1)"><path style=" stroke:none;fill-rule:nonzero;fill:rgb(100%,100%,100%);fill-opacity:1;" d="M 2.046875 18.183594 L 2.046875 14.546875 C 2.046875 14.042969 2.402344 13.636719 2.839844 13.636719 L 1.816406 13.636719 C 1.316406 13.636719 0.910156 14.042969 0.910156 14.546875 L 0.910156 18.183594 C 0.910156 18.683594 1.316406 19.089844 1.816406 19.089844 L 2.839844 19.089844 C 2.402344 19.089844 2.046875 18.683594 2.046875 18.183594 Z M 2.046875 18.183594 "/></g><mask id="mask1">  <g filter="url(#alpha)"><rect x="0" y="0" width="20" height="20" style="fill:rgb(0%,0%,0%);fill-opacity:0.1;stroke:none;"/>  </g></mask><clipPath id="clip2">  <rect x="0" y="0" width="20" height="20"/></clipPath><g id="surface8" clip-path="url(#clip2)"><path style=" stroke:none;fill-rule:nonzero;fill:rgb(0%,0%,0%);fill-opacity:1;" d="M 18.183594 13.636719 L 17.160156 13.636719 C 17.597656 13.636719 17.953125 14.042969 17.953125 14.546875 L 17.953125 18.183594 C 17.953125 18.683594 17.597656 19.089844 17.160156 19.089844 L 18.183594 19.089844 C 18.683594 19.089844 19.089844 18.683594 19.089844 18.183594 L 19.089844 14.546875 C 19.089844 14.042969 18.683594 13.636719 18.183594 13.636719 Z M 18.183594 13.636719 "/></g><mask id="mask2">  <g filter="url(#alpha)"><rect x="0" y="0" width="20" height="20" style="fill:rgb(0%,0%,0%);fill-opacity:0.1;stroke:none;"/>  </g></mask><clipPath id="clip3">  <rect x="0" y="0" width="20" height="20"/></clipPath><g id="surface11" clip-path="url(#clip3)"><path style=" stroke:none;fill-rule:nonzero;fill:rgb(0%,0%,0%);fill-opacity:1;" d="M 18.183594 7.273438 L 17.160156 7.273438 C 17.597656 7.273438 17.953125 7.679688 17.953125 8.183594 L 17.953125 11.816406 C 17.953125 12.320312 17.597656 12.726562 17.160156 12.726562 L 18.183594 12.726562 C 18.683594 12.726562 19.089844 12.320312 19.089844 11.816406 L 19.089844 8.183594 C 19.089844 7.679688 18.683594 7.273438 18.183594 7.273438 Z M 18.183594 7.273438 "/></g><mask id="mask3">  <g filter="url(#alpha)"><rect x="0" y="0" width="20" height="20" style="fill:rgb(0%,0%,0%);fill-opacity:0.2;stroke:none;"/>  </g></mask><clipPath id="clip4">  <rect x="0" y="0" width="20" height="20"/></clipPath><g id="surface14" clip-path="url(#clip4)"><path style=" stroke:none;fill-rule:nonzero;fill:rgb(100%,100%,100%);fill-opacity:1;" d="M 2.046875 11.816406 L 2.046875 8.183594 C 2.046875 7.679688 2.402344 7.273438 2.839844 7.273438 L 1.816406 7.273438 C 1.316406 7.273438 0.910156 7.679688 0.910156 8.183594 L 0.910156 11.816406 C 0.910156 12.320312 1.316406 12.726562 1.816406 12.726562 L 2.839844 12.726562 C 2.402344 12.726562 2.046875 12.320312 2.046875 11.816406 Z M 2.046875 11.816406 "/></g><mask id="mask4">  <g filter="url(#alpha)"><rect x="0" y="0" width="20" height="20" style="fill:rgb(0%,0%,0%);fill-opacity:0.2;stroke:none;"/>  </g></mask><clipPath id="clip5">  <rect x="0" y="0" width="20" height="20"/></clipPath><g id="surface17" clip-path="url(#clip5)"><path style=" stroke:none;fill-rule:nonzero;fill:rgb(100%,100%,100%);fill-opacity:1;" d="M 2.046875 5.453125 L 2.046875 1.816406 C 2.046875 1.316406 2.402344 0.910156 2.839844 0.910156 L 1.816406 0.910156 C 1.316406 0.910156 0.910156 1.316406 0.910156 1.816406 L 0.910156 5.453125 C 0.910156 5.957031 1.316406 6.363281 1.816406 6.363281 L 2.839844 6.363281 C 2.402344 6.363281 2.046875 5.957031 2.046875 5.453125 Z M 2.046875 5.453125 "/></g><mask id="mask5">  <g filter="url(#alpha)"><rect x="0" y="0" width="20" height="20" style="fill:rgb(0%,0%,0%);fill-opacity:0.1;stroke:none;"/>  </g></mask><clipPath id="clip6">  <rect x="0" y="0" width="20" height="20"/></clipPath><g id="surface20" clip-path="url(#clip6)"><path style=" stroke:none;fill-rule:nonzero;fill:rgb(0%,0%,0%);fill-opacity:1;" d="M 18.183594 0.910156 L 17.160156 0.910156 C 17.597656 0.910156 17.953125 1.316406 17.953125 1.816406 L 17.953125 5.453125 C 17.953125 5.957031 17.597656 6.363281 17.160156 6.363281 L 18.183594 6.363281 C 18.683594 6.363281 19.089844 5.957031 19.089844 5.453125 L 19.089844 1.816406 C 19.089844 1.316406 18.683594 0.910156 18.183594 0.910156 Z M 18.183594 0.910156 "/></g><linearGradient id="linear0" gradientUnits="userSpaceOnUse" x1="-68.688797" y1="619.051208" x2="-43.384201" y2="607.250916" gradientTransform="matrix(0.90909,0,0,-0.90909,60.942281,567.41045)"><stop offset="0" style="stop-color:rgb(100%,100%,100%);stop-opacity:0.2;"/><stop offset="1" style="stop-color:rgb(100%,100%,100%);stop-opacity:0;"/></linearGradient></defs><g id="surface1"><path style=" stroke:none;fill-rule:nonzero;fill:rgb(18.82353%,23.529412%,25.882354%);fill-opacity:1;" d="M 20 5.453125 L 20 1.816406 C 20 0.816406 19.183594 0 18.183594 0 L 1.816406 0 C 0.816406 0 0 0.816406 0 1.816406 L 0 5.453125 C 0 6 0.246094 6.484375 0.628906 6.816406 C 0.246094 7.152344 0 7.636719 0 8.183594 L 0 11.816406 C 0 12.363281 0.246094 12.847656 0.628906 13.183594 C 0.246094 13.515625 0 14 0 14.546875 L 0 18.183594 C 0 19.183594 0.816406 20 1.816406 20 L 18.183594 20 C 19.183594 20 20 19.183594 20 18.183594 L 20 14.546875 C 20 14 19.753906 13.515625 19.371094 13.183594 C 19.753906 12.847656 20 12.363281 20 11.816406 L 20 8.183594 C 20 7.636719 19.753906 7.152344 19.371094 6.816406 C 19.753906 6.484375 20 6 20 5.453125 Z M 20 5.453125 "/><path style=" stroke:none;fill-rule:nonzero;fill:rgb(90.196079%,90.196079%,90.196079%);fill-opacity:1;" d="M 19.089844 14.546875 L 19.089844 18.183594 C 19.089844 18.683594 18.683594 19.089844 18.183594 19.089844 L 1.816406 19.089844 C 1.316406 19.089844 0.910156 18.683594 0.910156 18.183594 L 0.910156 14.546875 C 0.910156 14.042969 1.316406 13.636719 1.816406 13.636719 L 18.183594 13.636719 C 18.683594 13.636719 19.089844 14.042969 19.089844 14.546875 Z M 19.089844 14.546875 "/><path style=" stroke:none;fill-rule:nonzero;fill:rgb(90.196079%,90.196079%,90.196079%);fill-opacity:1;" d="M 19.089844 8.183594 L 19.089844 11.816406 C 19.089844 12.320312 18.683594 12.726562 18.183594 12.726562 L 1.816406 12.726562 C 1.316406 12.726562 0.910156 12.320312 0.910156 11.816406 L 0.910156 8.183594 C 0.910156 7.679688 1.316406 7.273438 1.816406 7.273438 L 18.183594 7.273438 C 18.683594 7.273438 19.089844 7.679688 19.089844 8.183594 Z M 19.089844 8.183594 "/><path style=" stroke:none;fill-rule:nonzero;fill:rgb(90.196079%,90.196079%,90.196079%);fill-opacity:1;" d="M 1.816406 6.363281 C 1.316406 6.363281 0.910156 5.957031 0.910156 5.453125 L 0.910156 1.816406 C 0.910156 1.316406 1.316406 0.910156 1.816406 0.910156 L 18.183594 0.910156 C 18.683594 0.910156 19.089844 1.316406 19.089844 1.816406 L 19.089844 5.453125 C 19.089844 5.957031 18.683594 6.363281 18.183594 6.363281 Z M 1.816406 6.363281 "/><use xlink:href="#surface5" mask="url(#mask0)"/><use xlink:href="#surface8" mask="url(#mask1)"/><use xlink:href="#surface11" mask="url(#mask2)"/><use xlink:href="#surface14" mask="url(#mask3)"/><use xlink:href="#surface17" mask="url(#mask4)"/><use xlink:href="#surface20" mask="url(#mask5)"/><path style=" stroke:none;fill-rule:nonzero;fill:rgb(18.82353%,23.529412%,25.882354%);fill-opacity:1;" d="M 3.183594 1.816406 C 2.929688 1.816406 2.726562 2.023438 2.726562 2.273438 L 2.726562 5 C 2.726562 5.25 2.929688 5.453125 3.183594 5.453125 C 3.433594 5.453125 3.636719 5.25 3.636719 5 L 3.636719 2.273438 C 3.636719 2.023438 3.433594 1.816406 3.183594 1.816406 Z M 3.183594 1.816406 "/><path style=" stroke:none;fill-rule:nonzero;fill:rgb(18.82353%,23.529412%,25.882354%);fill-opacity:1;" d="M 5 1.816406 C 4.75 1.816406 4.546875 2.023438 4.546875 2.273438 L 4.546875 5 C 4.546875 5.25 4.75 5.453125 5 5.453125 C 5.25 5.453125 5.453125 5.25 5.453125 5 L 5.453125 2.273438 C 5.453125 2.023438 5.25 1.816406 5 1.816406 Z M 5 1.816406 "/><path style=" stroke:none;fill-rule:nonzero;fill:rgb(18.82353%,23.529412%,25.882354%);fill-opacity:1;" d="M 6.816406 1.816406 C 6.566406 1.816406 6.363281 2.023438 6.363281 2.273438 L 6.363281 5 C 6.363281 5.25 6.566406 5.453125 6.816406 5.453125 C 7.070312 5.453125 7.273438 5.25 7.273438 5 L 7.273438 2.273438 C 7.273438 2.023438 7.070312 1.816406 6.816406 1.816406 Z M 6.816406 1.816406 "/><path style=" stroke:none;fill-rule:nonzero;fill:rgb(18.82353%,23.529412%,25.882354%);fill-opacity:1;" d="M 17.273438 3.636719 C 17.273438 4.136719 16.867188 4.546875 16.363281 4.546875 C 15.863281 4.546875 15.453125 4.136719 15.453125 3.636719 C 15.453125 3.132812 15.863281 2.726562 16.363281 2.726562 C 16.867188 2.726562 17.273438 3.132812 17.273438 3.636719 Z M 17.273438 3.636719 "/><path style=" stroke:none;fill-rule:nonzero;fill:rgb(18.82353%,23.529412%,25.882354%);fill-opacity:1;" d="M 14.546875 3.636719 C 14.546875 4.136719 14.136719 4.546875 13.636719 4.546875 C 13.132812 4.546875 12.726562 4.136719 12.726562 3.636719 C 12.726562 3.132812 13.132812 2.726562 13.636719 2.726562 C 14.136719 2.726562 14.546875 3.132812 14.546875 3.636719 Z M 14.546875 3.636719 "/><path style=" stroke:none;fill-rule:nonzero;fill:rgb(18.82353%,23.529412%,25.882354%);fill-opacity:1;" d="M 3.183594 11.816406 C 3.433594 11.816406 3.636719 11.613281 3.636719 11.363281 L 3.636719 8.636719 C 3.636719 8.386719 3.433594 8.183594 3.183594 8.183594 C 2.929688 8.183594 2.726562 8.386719 2.726562 8.636719 L 2.726562 11.363281 C 2.726562 11.613281 2.929688 11.816406 3.183594 11.816406 Z M 3.183594 11.816406 "/><path style=" stroke:none;fill-rule:nonzero;fill:rgb(18.82353%,23.529412%,25.882354%);fill-opacity:1;" d="M 5 11.816406 C 5.25 11.816406 5.453125 11.613281 5.453125 11.363281 L 5.453125 8.636719 C 5.453125 8.386719 5.25 8.183594 5 8.183594 C 4.75 8.183594 4.546875 8.386719 4.546875 8.636719 L 4.546875 11.363281 C 4.546875 11.613281 4.75 11.816406 5 11.816406 Z M 5 11.816406 "/><path style=" stroke:none;fill-rule:nonzero;fill:rgb(18.82353%,23.529412%,25.882354%);fill-opacity:1;" d="M 6.816406 11.816406 C 7.070312 11.816406 7.273438 11.613281 7.273438 11.363281 L 7.273438 8.636719 C 7.273438 8.386719 7.070312 8.183594 6.816406 8.183594 C 6.566406 8.183594 6.363281 8.386719 6.363281 8.636719 L 6.363281 11.363281 C 6.363281 11.613281 6.566406 11.816406 6.816406 11.816406 Z M 6.816406 11.816406 "/><path style=" stroke:none;fill-rule:nonzero;fill:rgb(18.82353%,23.529412%,25.882354%);fill-opacity:1;" d="M 17.273438 10 C 17.273438 10.503906 16.867188 10.910156 16.363281 10.910156 C 15.863281 10.910156 15.453125 10.503906 15.453125 10 C 15.453125 9.496094 15.863281 9.089844 16.363281 9.089844 C 16.867188 9.089844 17.273438 9.496094 17.273438 10 Z M 17.273438 10 "/><path style=" stroke:none;fill-rule:nonzero;fill:rgb(18.82353%,23.529412%,25.882354%);fill-opacity:1;" d="M 14.546875 10 C 14.546875 10.503906 14.136719 10.910156 13.636719 10.910156 C 13.132812 10.910156 12.726562 10.503906 12.726562 10 C 12.726562 9.496094 13.132812 9.089844 13.636719 9.089844 C 14.136719 9.089844 14.546875 9.496094 14.546875 10 Z M 14.546875 10 "/><path style=" stroke:none;fill-rule:nonzero;fill:rgb(18.82353%,23.529412%,25.882354%);fill-opacity:1;" d="M 3.183594 18.183594 C 3.433594 18.183594 3.636719 17.980469 3.636719 17.726562 L 3.636719 15 C 3.636719 14.75 3.433594 14.546875 3.183594 14.546875 C 2.929688 14.546875 2.726562 14.75 2.726562 15 L 2.726562 17.726562 C 2.726562 17.980469 2.929688 18.183594 3.183594 18.183594 Z M 3.183594 18.183594 "/><path style=" stroke:none;fill-rule:nonzero;fill:rgb(18.82353%,23.529412%,25.882354%);fill-opacity:1;" d="M 5 18.183594 C 5.25 18.183594 5.453125 17.980469 5.453125 17.726562 L 5.453125 15 C 5.453125 14.75 5.25 14.546875 5 14.546875 C 4.75 14.546875 4.546875 14.75 4.546875 15 L 4.546875 17.726562 C 4.546875 17.980469 4.75 18.183594 5 18.183594 Z M 5 18.183594 "/><path style=" stroke:none;fill-rule:nonzero;fill:rgb(18.82353%,23.529412%,25.882354%);fill-opacity:1;" d="M 6.816406 18.183594 C 7.070312 18.183594 7.273438 17.980469 7.273438 17.726562 L 7.273438 15 C 7.273438 14.75 7.070312 14.546875 6.816406 14.546875 C 6.566406 14.546875 6.363281 14.75 6.363281 15 L 6.363281 17.726562 C 6.363281 17.980469 6.566406 18.183594 6.816406 18.183594 Z M 6.816406 18.183594 "/><path style=" stroke:none;fill-rule:nonzero;fill:rgb(18.82353%,23.529412%,25.882354%);fill-opacity:1;" d="M 17.273438 16.363281 C 17.273438 16.867188 16.867188 17.273438 16.363281 17.273438 C 15.863281 17.273438 15.453125 16.867188 15.453125 16.363281 C 15.453125 15.863281 15.863281 15.453125 16.363281 15.453125 C 16.867188 15.453125 17.273438 15.863281 17.273438 16.363281 Z M 17.273438 16.363281 "/><path style=" stroke:none;fill-rule:nonzero;fill:rgb(18.82353%,23.529412%,25.882354%);fill-opacity:1;" d="M 14.546875 16.363281 C 14.546875 16.867188 14.136719 17.273438 13.636719 17.273438 C 13.132812 17.273438 12.726562 16.867188 12.726562 16.363281 C 12.726562 15.863281 13.132812 15.453125 13.636719 15.453125 C 14.136719 15.453125 14.546875 15.863281 14.546875 16.363281 Z M 14.546875 16.363281 "/><path style=" stroke:none;fill-rule:nonzero;fill:url(#linear0);" d="M 20 5.453125 L 20 1.816406 C 20 0.816406 19.183594 0 18.183594 0 L 1.816406 0 C 0.816406 0 0 0.816406 0 1.816406 L 0 5.453125 C 0 6 0.246094 6.484375 0.628906 6.816406 C 0.246094 7.152344 0 7.636719 0 8.183594 L 0 11.816406 C 0 12.363281 0.246094 12.847656 0.628906 13.183594 C 0.246094 13.515625 0 14 0 14.546875 L 0 18.183594 C 0 19.183594 0.816406 20 1.816406 20 L 18.183594 20 C 19.183594 20 20 19.183594 20 18.183594 L 20 14.546875 C 20 14 19.753906 13.515625 19.371094 13.183594 C 19.753906 12.847656 20 12.363281 20 11.816406 L 20 8.183594 C 20 7.636719 19.753906 7.152344 19.371094 6.816406 C 19.753906 6.484375 20 6 20 5.453125 Z M 20 5.453125 "/></g></svg>