<svg xmlns="http://www.w3.org/2000/svg" xmlns:xlink="http://www.w3.org/1999/xlink" width="20px" height="20px" viewBox="0 0 20 20" version="1.1"><defs><filter id="alpha" filterUnits="objectBoundingBox" x="0%" y="0%" width="100%" height="100%">  <feColorMatrix type="matrix" in="SourceGraphic" values="0 0 0 0 1 0 0 0 0 1 0 0 0 0 1 0 0 0 1 0"/></filter><mask id="mask0">  <g filter="url(#alpha)"><rect x="0" y="0" width="20" height="20" style="fill:rgb(0%,0%,0%);fill-opacity:0.2;stroke:none;"/>  </g></mask><clipPath id="clip1">  <rect x="0" y="0" width="20" height="20"/></clipPath><g id="surface5" clip-path="url(#clip1)"><path style=" stroke:none;fill-rule:nonzero;fill:rgb(100%,100%,100%);fill-opacity:1;" d="M 5.453125 13.636719 L 5.453125 11.816406 C 5.453125 11.316406 5.8125 10.910156 6.25 10.910156 L 5.453125 10.910156 C 4.953125 10.910156 4.546875 11.316406 4.546875 11.816406 L 4.546875 13.636719 C 4.546875 14.136719 4.953125 14.546875 5.453125 14.546875 L 6.25 14.546875 C 5.8125 14.546875 5.453125 14.136719 5.453125 13.636719 Z M 5.453125 13.636719 "/></g><mask id="mask1">  <g filter="url(#alpha)"><rect x="0" y="0" width="20" height="20" style="fill:rgb(0%,0%,0%);fill-opacity:0.1;stroke:none;"/>  </g></mask><clipPath id="clip2">  <rect x="0" y="0" width="20" height="20"/></clipPath><g id="surface8" clip-path="url(#clip2)"><path style=" stroke:none;fill-rule:nonzero;fill:rgb(0%,0%,0%);fill-opacity:1;" d="M 18.183594 10.910156 L 17.386719 10.910156 C 17.824219 10.910156 18.183594 11.316406 18.183594 11.816406 L 18.183594 13.636719 C 18.183594 14.136719 17.824219 14.546875 17.386719 14.546875 L 18.183594 14.546875 C 18.683594 14.546875 19.089844 14.136719 19.089844 13.636719 L 19.089844 11.816406 C 19.089844 11.316406 18.683594 10.910156 18.183594 10.910156 Z M 18.183594 10.910156 "/></g><mask id="mask2">  <g filter="url(#alpha)"><rect x="0" y="0" width="20" height="20" style="fill:rgb(0%,0%,0%);fill-opacity:0.2;stroke:none;"/>  </g></mask><clipPath id="clip3">  <rect x="0" y="0" width="20" height="20"/></clipPath><g id="surface11" clip-path="url(#clip3)"><path style=" stroke:none;fill-rule:nonzero;fill:rgb(100%,100%,100%);fill-opacity:1;" d="M 5.453125 18.183594 L 5.453125 16.363281 C 5.453125 15.863281 5.8125 15.453125 6.25 15.453125 L 5.453125 15.453125 C 4.953125 15.453125 4.546875 15.863281 4.546875 16.363281 L 4.546875 18.183594 C 4.546875 18.683594 4.953125 19.089844 5.453125 19.089844 L 6.25 19.089844 C 5.8125 19.089844 5.453125 18.683594 5.453125 18.183594 Z M 5.453125 18.183594 "/></g><mask id="mask3">  <g filter="url(#alpha)"><rect x="0" y="0" width="20" height="20" style="fill:rgb(0%,0%,0%);fill-opacity:0.1;stroke:none;"/>  </g></mask><clipPath id="clip4">  <rect x="0" y="0" width="20" height="20"/></clipPath><g id="surface14" clip-path="url(#clip4)"><path style=" stroke:none;fill-rule:nonzero;fill:rgb(0%,0%,0%);fill-opacity:1;" d="M 18.183594 15.453125 L 17.386719 15.453125 C 17.824219 15.453125 18.183594 15.863281 18.183594 16.363281 L 18.183594 18.183594 C 18.183594 18.683594 17.824219 19.089844 17.386719 19.089844 L 18.183594 19.089844 C 18.683594 19.089844 19.089844 18.683594 19.089844 18.183594 L 19.089844 16.363281 C 19.089844 15.863281 18.683594 15.453125 18.183594 15.453125 Z M 18.183594 15.453125 "/></g><linearGradient id="linear0" gradientUnits="userSpaceOnUse" x1="-68.688698" y1="619.051086" x2="-43.384201" y2="607.250916" gradientTransform="matrix(0.90909,0,0,-0.90909,60.942281,567.41045)"><stop offset="0" style="stop-color:rgb(100%,100%,100%);stop-opacity:0.2;"/><stop offset="1" style="stop-color:rgb(100%,100%,100%);stop-opacity:0;"/></linearGradient></defs><g id="surface1"><path style=" stroke:none;fill-rule:nonzero;fill:rgb(18.82353%,23.529412%,25.882354%);fill-opacity:1;" d="M 20 13.636719 L 20 11.816406 C 20 10.816406 19.183594 10 18.183594 10 L 16.363281 10 L 16.363281 1.816406 C 16.363281 0.816406 15.546875 0 14.546875 0 L 1.816406 0 C 0.816406 0 0 0.816406 0 1.816406 L 0 10.910156 C 0 11.910156 0.816406 12.726562 1.816406 12.726562 L 3.636719 12.726562 L 3.636719 13.636719 C 3.636719 14.183594 3.882812 14.667969 4.265625 15 C 3.882812 15.332031 3.636719 15.816406 3.636719 16.363281 L 3.636719 18.183594 C 3.636719 19.183594 4.453125 20 5.453125 20 L 18.183594 20 C 19.183594 20 20 19.183594 20 18.183594 L 20 16.363281 C 20 15.816406 19.753906 15.332031 19.371094 15 C 19.753906 14.667969 20 14.183594 20 13.636719 Z M 20 13.636719 "/><path style=" stroke:none;fill-rule:nonzero;fill:rgb(48.627451%,70.19608%,25.882354%);fill-opacity:1;" d="M 7.007812 10 L 5.890625 8.882812 L 9.546875 5.191406 L 14.355469 10 Z M 7.007812 10 "/><path style=" stroke:none;fill-rule:nonzero;fill:rgb(73.333335%,87.058824%,98.431373%);fill-opacity:1;" d="M 1.816406 0.910156 L 14.546875 0.910156 C 15.046875 0.910156 15.453125 1.316406 15.453125 1.816406 L 15.453125 9.8125 L 9.867188 4.222656 C 9.78125 4.140625 9.667969 4.089844 9.546875 4.089844 L 9.542969 4.089844 C 9.421875 4.089844 9.308594 4.140625 9.222656 4.226562 L 5.246094 8.242188 L 3.957031 6.953125 C 3.78125 6.773438 3.492188 6.773438 3.316406 6.953125 L 0.910156 9.355469 L 0.910156 1.816406 C 0.910156 1.316406 1.316406 0.910156 1.816406 0.910156 Z M 1.816406 0.910156 "/><path style=" stroke:none;fill-rule:nonzero;fill:rgb(48.627451%,70.19608%,25.882354%);fill-opacity:1;" d="M 3.636719 11.816406 L 1.816406 11.816406 C 1.316406 11.816406 0.910156 11.410156 0.910156 10.910156 L 0.910156 10.644531 L 3.636719 7.914062 L 5.722656 10 L 5.453125 10 C 4.453125 10 3.636719 10.816406 3.636719 11.816406 Z M 3.636719 11.816406 "/><path style=" stroke:none;fill-rule:nonzero;fill:rgb(90.196079%,90.196079%,90.196079%);fill-opacity:1;" d="M 19.089844 16.363281 L 19.089844 18.183594 C 19.089844 18.683594 18.683594 19.089844 18.183594 19.089844 L 5.453125 19.089844 C 4.953125 19.089844 4.546875 18.683594 4.546875 18.183594 L 4.546875 16.363281 C 4.546875 15.863281 4.953125 15.453125 5.453125 15.453125 L 18.183594 15.453125 C 18.683594 15.453125 19.089844 15.863281 19.089844 16.363281 Z M 19.089844 16.363281 "/><path style=" stroke:none;fill-rule:nonzero;fill:rgb(90.196079%,90.196079%,90.196079%);fill-opacity:1;" d="M 5.453125 14.546875 C 4.953125 14.546875 4.546875 14.136719 4.546875 13.636719 L 4.546875 11.816406 C 4.546875 11.316406 4.953125 10.910156 5.453125 10.910156 L 18.183594 10.910156 C 18.683594 10.910156 19.089844 11.316406 19.089844 11.816406 L 19.089844 13.636719 C 19.089844 14.136719 18.683594 14.546875 18.183594 14.546875 Z M 5.453125 14.546875 "/><use xlink:href="#surface5" mask="url(#mask0)"/><use xlink:href="#surface8" mask="url(#mask1)"/><use xlink:href="#surface11" mask="url(#mask2)"/><use xlink:href="#surface14" mask="url(#mask3)"/><path style=" stroke:none;fill-rule:nonzero;fill:rgb(18.82353%,23.529412%,25.882354%);fill-opacity:1;" d="M 5.910156 11.816406 C 5.65625 11.816406 5.453125 12.023438 5.453125 12.273438 L 5.453125 13.183594 C 5.453125 13.433594 5.65625 13.636719 5.910156 13.636719 C 6.160156 13.636719 6.363281 13.433594 6.363281 13.183594 L 6.363281 12.273438 C 6.363281 12.023438 6.160156 11.816406 5.910156 11.816406 Z M 5.910156 11.816406 "/><path style=" stroke:none;fill-rule:nonzero;fill:rgb(18.82353%,23.529412%,25.882354%);fill-opacity:1;" d="M 7.726562 11.816406 C 7.476562 11.816406 7.273438 12.023438 7.273438 12.273438 L 7.273438 13.183594 C 7.273438 13.433594 7.476562 13.636719 7.726562 13.636719 C 7.976562 13.636719 8.183594 13.433594 8.183594 13.183594 L 8.183594 12.273438 C 8.183594 12.023438 7.976562 11.816406 7.726562 11.816406 Z M 7.726562 11.816406 "/><path style=" stroke:none;fill-rule:nonzero;fill:rgb(18.82353%,23.529412%,25.882354%);fill-opacity:1;" d="M 9.546875 11.816406 C 9.292969 11.816406 9.089844 12.023438 9.089844 12.273438 L 9.089844 13.183594 C 9.089844 13.433594 9.292969 13.636719 9.546875 13.636719 C 9.796875 13.636719 10 13.433594 10 13.183594 L 10 12.273438 C 10 12.023438 9.796875 11.816406 9.546875 11.816406 Z M 9.546875 11.816406 "/><path style=" stroke:none;fill-rule:nonzero;fill:rgb(18.82353%,23.529412%,25.882354%);fill-opacity:1;" d="M 18.183594 12.726562 C 18.183594 13.230469 17.773438 13.636719 17.273438 13.636719 C 16.769531 13.636719 16.363281 13.230469 16.363281 12.726562 C 16.363281 12.226562 16.769531 11.816406 17.273438 11.816406 C 17.773438 11.816406 18.183594 12.226562 18.183594 12.726562 Z M 18.183594 12.726562 "/><path style=" stroke:none;fill-rule:nonzero;fill:rgb(18.82353%,23.529412%,25.882354%);fill-opacity:1;" d="M 15.453125 12.726562 C 15.453125 13.230469 15.046875 13.636719 14.546875 13.636719 C 14.042969 13.636719 13.636719 13.230469 13.636719 12.726562 C 13.636719 12.226562 14.042969 11.816406 14.546875 11.816406 C 15.046875 11.816406 15.453125 12.226562 15.453125 12.726562 Z M 15.453125 12.726562 "/><path style=" stroke:none;fill-rule:nonzero;fill:rgb(18.82353%,23.529412%,25.882354%);fill-opacity:1;" d="M 5.453125 17.726562 C 5.453125 17.980469 5.65625 18.183594 5.910156 18.183594 C 6.160156 18.183594 6.363281 17.980469 6.363281 17.726562 L 6.363281 16.816406 C 6.363281 16.566406 6.160156 16.363281 5.910156 16.363281 C 5.65625 16.363281 5.453125 16.566406 5.453125 16.816406 Z M 5.453125 17.726562 "/><path style=" stroke:none;fill-rule:nonzero;fill:rgb(18.82353%,23.529412%,25.882354%);fill-opacity:1;" d="M 7.726562 18.183594 C 7.976562 18.183594 8.183594 17.980469 8.183594 17.726562 L 8.183594 16.816406 C 8.183594 16.566406 7.976562 16.363281 7.726562 16.363281 C 7.476562 16.363281 7.273438 16.566406 7.273438 16.816406 L 7.273438 17.726562 C 7.273438 17.980469 7.476562 18.183594 7.726562 18.183594 Z M 7.726562 18.183594 "/><path style=" stroke:none;fill-rule:nonzero;fill:rgb(18.82353%,23.529412%,25.882354%);fill-opacity:1;" d="M 9.546875 18.183594 C 9.796875 18.183594 10 17.980469 10 17.726562 L 10 16.816406 C 10 16.566406 9.796875 16.363281 9.546875 16.363281 C 9.292969 16.363281 9.089844 16.566406 9.089844 16.816406 L 9.089844 17.726562 C 9.089844 17.980469 9.292969 18.183594 9.546875 18.183594 Z M 9.546875 18.183594 "/><path style=" stroke:none;fill-rule:nonzero;fill:rgb(18.82353%,23.529412%,25.882354%);fill-opacity:1;" d="M 18.183594 17.273438 C 18.183594 17.773438 17.773438 18.183594 17.273438 18.183594 C 16.769531 18.183594 16.363281 17.773438 16.363281 17.273438 C 16.363281 16.769531 16.769531 16.363281 17.273438 16.363281 C 17.773438 16.363281 18.183594 16.769531 18.183594 17.273438 Z M 18.183594 17.273438 "/><path style=" stroke:none;fill-rule:nonzero;fill:rgb(18.82353%,23.529412%,25.882354%);fill-opacity:1;" d="M 15.453125 17.273438 C 15.453125 17.773438 15.046875 18.183594 14.546875 18.183594 C 14.042969 18.183594 13.636719 17.773438 13.636719 17.273438 C 13.636719 16.769531 14.042969 16.363281 14.546875 16.363281 C 15.046875 16.363281 15.453125 16.769531 15.453125 17.273438 Z M 15.453125 17.273438 "/><path style=" stroke:none;fill-rule:nonzero;fill:rgb(18.82353%,23.529412%,25.882354%);fill-opacity:1;" d="M 7.273438 3.636719 C 7.273438 4.640625 6.457031 5.453125 5.453125 5.453125 C 4.449219 5.453125 3.636719 4.640625 3.636719 3.636719 C 3.636719 2.632812 4.449219 1.816406 5.453125 1.816406 C 6.457031 1.816406 7.273438 2.632812 7.273438 3.636719 Z M 7.273438 3.636719 "/><path style=" stroke:none;fill-rule:nonzero;fill:rgb(100%,79.215688%,15.686275%);fill-opacity:1;" d="M 6.363281 3.636719 C 6.363281 4.136719 5.957031 4.546875 5.453125 4.546875 C 4.953125 4.546875 4.546875 4.136719 4.546875 3.636719 C 4.546875 3.132812 4.953125 2.726562 5.453125 2.726562 C 5.957031 2.726562 6.363281 3.132812 6.363281 3.636719 Z M 6.363281 3.636719 "/><path style=" stroke:none;fill-rule:nonzero;fill:url(#linear0);" d="M 20 13.636719 L 20 11.816406 C 20 10.816406 19.183594 10 18.183594 10 L 16.363281 10 L 16.363281 1.816406 C 16.363281 0.816406 15.546875 0 14.546875 0 L 1.816406 0 C 0.816406 0 0 0.816406 0 1.816406 L 0 10.910156 C 0 11.910156 0.816406 12.726562 1.816406 12.726562 L 3.636719 12.726562 L 3.636719 13.636719 C 3.636719 14.183594 3.882812 14.667969 4.265625 15 C 3.882812 15.332031 3.636719 15.816406 3.636719 16.363281 L 3.636719 18.183594 C 3.636719 19.183594 4.453125 20 5.453125 20 L 18.183594 20 C 19.183594 20 20 19.183594 20 18.183594 L 20 16.363281 C 20 15.816406 19.753906 15.332031 19.371094 15 C 19.753906 14.667969 20 14.183594 20 13.636719 Z M 20 13.636719 "/></g></svg>