<svg xmlns="http://www.w3.org/2000/svg" xmlns:xlink="http://www.w3.org/1999/xlink" width="20px" height="20px" viewBox="0 0 20 20" version="1.1"><defs><filter id="alpha" filterUnits="objectBoundingBox" x="0%" y="0%" width="100%" height="100%">  <feColorMatrix type="matrix" in="SourceGraphic" values="0 0 0 0 1 0 0 0 0 1 0 0 0 0 1 0 0 0 1 0"/></filter><mask id="mask0">  <g filter="url(#alpha)"><rect x="0" y="0" width="20" height="20" style="fill:rgb(0%,0%,0%);fill-opacity:0.1;stroke:none;"/>  </g></mask><clipPath id="clip1">  <rect x="0" y="0" width="20" height="20"/></clipPath><g id="surface5" clip-path="url(#clip1)"><path style=" stroke:none;fill-rule:nonzero;fill:rgb(0%,0%,0%);fill-opacity:1;" d="M 16.667969 8.332031 L 15.917969 8.332031 C 16.332031 8.332031 16.667969 8.707031 16.667969 9.167969 L 16.667969 12.5 C 16.667969 12.960938 16.332031 13.332031 15.917969 13.332031 L 16.667969 13.332031 C 17.125 13.332031 17.5 12.960938 17.5 12.5 L 17.5 9.167969 C 17.5 8.707031 17.125 8.332031 16.667969 8.332031 Z M 16.667969 8.332031 "/></g><mask id="mask1">  <g filter="url(#alpha)"><rect x="0" y="0" width="20" height="20" style="fill:rgb(0%,0%,0%);fill-opacity:0.2;stroke:none;"/>  </g></mask><clipPath id="clip2">  <rect x="0" y="0" width="20" height="20"/></clipPath><g id="surface8" clip-path="url(#clip2)"><path style=" stroke:none;fill-rule:nonzero;fill:rgb(100%,100%,100%);fill-opacity:1;" d="M 1.667969 12.5 L 1.667969 9.167969 C 1.667969 8.707031 2.003906 8.332031 2.417969 8.332031 L 1.667969 8.332031 C 1.207031 8.332031 0.832031 8.707031 0.832031 9.167969 L 0.832031 12.5 C 0.832031 12.960938 1.207031 13.332031 1.667969 13.332031 L 2.417969 13.332031 C 2.003906 13.332031 1.667969 12.960938 1.667969 12.5 Z M 1.667969 12.5 "/></g><mask id="mask2">  <g filter="url(#alpha)"><rect x="0" y="0" width="20" height="20" style="fill:rgb(0%,0%,0%);fill-opacity:0.2;stroke:none;"/>  </g></mask><clipPath id="clip3">  <rect x="0" y="0" width="20" height="20"/></clipPath><g id="surface11" clip-path="url(#clip3)"><path style=" stroke:none;fill-rule:nonzero;fill:rgb(100%,100%,100%);fill-opacity:1;" d="M 1.667969 6.667969 L 1.667969 3.332031 C 1.667969 2.875 2.003906 2.5 2.417969 2.5 L 1.667969 2.5 C 1.207031 2.5 0.832031 2.875 0.832031 3.332031 L 0.832031 6.667969 C 0.832031 7.125 1.207031 7.5 1.667969 7.5 L 2.417969 7.5 C 2.003906 7.5 1.667969 7.125 1.667969 6.667969 Z M 1.667969 6.667969 "/></g><mask id="mask3">  <g filter="url(#alpha)"><rect x="0" y="0" width="20" height="20" style="fill:rgb(0%,0%,0%);fill-opacity:0.1;stroke:none;"/>  </g></mask><clipPath id="clip4">  <rect x="0" y="0" width="20" height="20"/></clipPath><g id="surface14" clip-path="url(#clip4)"><path style=" stroke:none;fill-rule:nonzero;fill:rgb(0%,0%,0%);fill-opacity:1;" d="M 16.667969 2.5 L 15.917969 2.5 C 16.332031 2.5 16.667969 2.875 16.667969 3.332031 L 16.667969 6.667969 C 16.667969 7.125 16.332031 7.5 15.917969 7.5 L 16.667969 7.5 C 17.125 7.5 17.5 7.125 17.5 6.667969 L 17.5 3.332031 C 17.5 2.875 17.125 2.5 16.667969 2.5 Z M 16.667969 2.5 "/></g><linearGradient id="linear0" gradientUnits="userSpaceOnUse" x1="-47.0149" y1="642.258911" x2="-20.5352" y2="629.911926" gradientTransform="matrix(0.833332,0,0,-0.833332,38.919272,538.736992)"><stop offset="0" style="stop-color:rgb(100%,100%,100%);stop-opacity:0.2;"/><stop offset="1" style="stop-color:rgb(100%,100%,100%);stop-opacity:0;"/></linearGradient></defs><g id="surface1"><path style=" stroke:none;fill-rule:nonzero;fill:rgb(18.82353%,23.529412%,25.882354%);fill-opacity:1;" d="M 18.332031 6.667969 L 18.332031 3.332031 C 18.332031 2.414062 17.585938 1.667969 16.667969 1.667969 L 1.667969 1.667969 C 0.746094 1.667969 0 2.414062 0 3.332031 L 0 6.667969 C 0 7.167969 0.226562 7.609375 0.574219 7.917969 C 0.226562 8.222656 0 8.667969 0 9.167969 L 0 12.5 C 0 13.417969 0.746094 14.167969 1.667969 14.167969 L 16.667969 14.167969 C 17.585938 14.167969 18.332031 13.417969 18.332031 12.5 L 18.332031 9.167969 C 18.332031 8.667969 18.105469 8.222656 17.757812 7.917969 C 18.105469 7.609375 18.332031 7.167969 18.332031 6.667969 Z M 18.332031 6.667969 "/><path style=" stroke:none;fill-rule:nonzero;fill:rgb(90.196079%,90.196079%,90.196079%);fill-opacity:1;" d="M 17.5 9.167969 L 17.5 12.5 C 17.5 12.960938 17.125 13.332031 16.667969 13.332031 L 1.667969 13.332031 C 1.207031 13.332031 0.832031 12.960938 0.832031 12.5 L 0.832031 9.167969 C 0.832031 8.707031 1.207031 8.332031 1.667969 8.332031 L 16.667969 8.332031 C 17.125 8.332031 17.5 8.707031 17.5 9.167969 Z M 17.5 9.167969 "/><path style=" stroke:none;fill-rule:nonzero;fill:rgb(90.196079%,90.196079%,90.196079%);fill-opacity:1;" d="M 1.667969 7.5 C 1.207031 7.5 0.832031 7.125 0.832031 6.667969 L 0.832031 3.332031 C 0.832031 2.875 1.207031 2.5 1.667969 2.5 L 16.667969 2.5 C 17.125 2.5 17.5 2.875 17.5 3.332031 L 17.5 6.667969 C 17.5 7.125 17.125 7.5 16.667969 7.5 Z M 1.667969 7.5 "/><use xlink:href="#surface5" mask="url(#mask0)"/><use xlink:href="#surface8" mask="url(#mask1)"/><use xlink:href="#surface11" mask="url(#mask2)"/><use xlink:href="#surface14" mask="url(#mask3)"/><path style=" stroke:none;fill-rule:nonzero;fill:rgb(18.82353%,23.529412%,25.882354%);fill-opacity:1;" d="M 2.917969 6.667969 C 2.6875 6.667969 2.5 6.480469 2.5 6.25 L 2.5 3.75 C 2.5 3.519531 2.6875 3.332031 2.917969 3.332031 C 3.148438 3.332031 3.332031 3.519531 3.332031 3.75 L 3.332031 6.25 C 3.332031 6.480469 3.148438 6.667969 2.917969 6.667969 Z M 2.917969 6.667969 "/><path style=" stroke:none;fill-rule:nonzero;fill:rgb(18.82353%,23.529412%,25.882354%);fill-opacity:1;" d="M 4.582031 6.667969 C 4.351562 6.667969 4.167969 6.480469 4.167969 6.25 L 4.167969 3.75 C 4.167969 3.519531 4.351562 3.332031 4.582031 3.332031 C 4.8125 3.332031 5 3.519531 5 3.75 L 5 6.25 C 5 6.480469 4.8125 6.667969 4.582031 6.667969 Z M 4.582031 6.667969 "/><path style=" stroke:none;fill-rule:nonzero;fill:rgb(18.82353%,23.529412%,25.882354%);fill-opacity:1;" d="M 6.25 6.667969 C 6.019531 6.667969 5.832031 6.480469 5.832031 6.25 L 5.832031 3.75 C 5.832031 3.519531 6.019531 3.332031 6.25 3.332031 C 6.480469 3.332031 6.667969 3.519531 6.667969 3.75 L 6.667969 6.25 C 6.667969 6.480469 6.480469 6.667969 6.25 6.667969 Z M 6.25 6.667969 "/><path style=" stroke:none;fill-rule:nonzero;fill:rgb(18.82353%,23.529412%,25.882354%);fill-opacity:1;" d="M 2.917969 12.5 C 2.6875 12.5 2.5 12.3125 2.5 12.082031 L 2.5 9.582031 C 2.5 9.351562 2.6875 9.167969 2.917969 9.167969 C 3.148438 9.167969 3.332031 9.351562 3.332031 9.582031 L 3.332031 12.082031 C 3.332031 12.3125 3.148438 12.5 2.917969 12.5 Z M 2.917969 12.5 "/><path style=" stroke:none;fill-rule:nonzero;fill:rgb(18.82353%,23.529412%,25.882354%);fill-opacity:1;" d="M 4.582031 12.5 C 4.351562 12.5 4.167969 12.3125 4.167969 12.082031 L 4.167969 9.582031 C 4.167969 9.351562 4.351562 9.167969 4.582031 9.167969 C 4.8125 9.167969 5 9.351562 5 9.582031 L 5 12.082031 C 5 12.3125 4.8125 12.5 4.582031 12.5 Z M 4.582031 12.5 "/><path style=" stroke:none;fill-rule:nonzero;fill:rgb(18.82353%,23.529412%,25.882354%);fill-opacity:1;" d="M 6.25 12.5 C 6.019531 12.5 5.832031 12.3125 5.832031 12.082031 L 5.832031 9.582031 C 5.832031 9.351562 6.019531 9.167969 6.25 9.167969 C 6.480469 9.167969 6.667969 9.351562 6.667969 9.582031 L 6.667969 12.082031 C 6.667969 12.3125 6.480469 12.5 6.25 12.5 Z M 6.25 12.5 "/><path style=" stroke:none;fill-rule:nonzero;fill:rgb(18.82353%,23.529412%,25.882354%);fill-opacity:1;" d="M 15.832031 5 C 15.832031 5.460938 15.460938 5.832031 15 5.832031 C 14.539062 5.832031 14.167969 5.460938 14.167969 5 C 14.167969 4.539062 14.539062 4.167969 15 4.167969 C 15.460938 4.167969 15.832031 4.539062 15.832031 5 Z M 15.832031 5 "/><path style=" stroke:none;fill-rule:nonzero;fill:rgb(18.82353%,23.529412%,25.882354%);fill-opacity:1;" d="M 13.332031 5 C 13.332031 5.460938 12.960938 5.832031 12.5 5.832031 C 12.039062 5.832031 11.667969 5.460938 11.667969 5 C 11.667969 4.539062 12.039062 4.167969 12.5 4.167969 C 12.960938 4.167969 13.332031 4.539062 13.332031 5 Z M 13.332031 5 "/><path style=" stroke:none;fill-rule:nonzero;fill:rgb(18.82353%,23.529412%,25.882354%);fill-opacity:1;" d="M 15.832031 10.832031 C 15.832031 11.292969 15.460938 11.667969 15 11.667969 C 14.539062 11.667969 14.167969 11.292969 14.167969 10.832031 C 14.167969 10.375 14.539062 10 15 10 C 15.460938 10 15.832031 10.375 15.832031 10.832031 Z M 15.832031 10.832031 "/><path style=" stroke:none;fill-rule:nonzero;fill:rgb(18.82353%,23.529412%,25.882354%);fill-opacity:1;" d="M 13.332031 10.832031 C 13.332031 11.292969 12.960938 11.667969 12.5 11.667969 C 12.039062 11.667969 11.667969 11.292969 11.667969 10.832031 C 11.667969 10.375 12.039062 10 12.5 10 C 12.960938 10 13.332031 10.375 13.332031 10.832031 Z M 13.332031 10.832031 "/><path style=" stroke:none;fill-rule:nonzero;fill:rgb(18.82353%,23.529412%,25.882354%);fill-opacity:1;" d="M 19.167969 12.5 L 19.167969 12.082031 C 19.167969 10.476562 17.859375 9.167969 16.25 9.167969 C 14.640625 9.167969 13.332031 10.476562 13.332031 12.082031 L 13.332031 12.5 C 12.875 12.5 12.5 12.875 12.5 13.332031 L 12.5 17.5 C 12.5 17.960938 12.875 18.332031 13.332031 18.332031 L 19.167969 18.332031 C 19.625 18.332031 20 17.960938 20 17.5 L 20 13.332031 C 20 12.875 19.625 12.5 19.167969 12.5 Z M 18.332031 12.5 L 14.167969 12.5 L 14.167969 12.082031 C 14.167969 10.933594 15.101562 10 16.25 10 C 17.398438 10 18.332031 10.933594 18.332031 12.082031 Z M 18.332031 12.5 "/><path style=" stroke:none;fill-rule:nonzero;fill:rgb(90.196079%,90.196079%,90.196079%);fill-opacity:1;" d="M 13.332031 13.332031 L 19.167969 13.332031 L 19.167969 17.5 L 13.332031 17.5 Z M 13.332031 13.332031 "/><path style=" stroke:none;fill-rule:nonzero;fill:rgb(18.82353%,23.529412%,25.882354%);fill-opacity:1;" d="M 15.832031 15.707031 L 15.832031 16.25 C 15.832031 16.480469 16.019531 16.667969 16.25 16.667969 C 16.480469 16.667969 16.667969 16.480469 16.667969 16.25 L 16.667969 15.707031 C 16.910156 15.558594 17.082031 15.304688 17.082031 15 C 17.082031 14.539062 16.710938 14.167969 16.25 14.167969 C 15.789062 14.167969 15.417969 14.539062 15.417969 15 C 15.417969 15.304688 15.589844 15.558594 15.832031 15.707031 Z M 15.832031 15.707031 "/><path style=" stroke:none;fill-rule:nonzero;fill:url(#linear0);" d="M 19.167969 12.5 L 19.167969 12.082031 C 19.167969 11.292969 18.847656 10.574219 18.332031 10.046875 L 18.332031 9.167969 C 18.332031 8.667969 18.105469 8.222656 17.757812 7.917969 C 18.105469 7.609375 18.332031 7.167969 18.332031 6.667969 L 18.332031 3.332031 C 18.332031 2.414062 17.585938 1.667969 16.667969 1.667969 L 1.667969 1.667969 C 0.746094 1.667969 0 2.414062 0 3.332031 L 0 6.667969 C 0 7.167969 0.226562 7.609375 0.574219 7.917969 C 0.226562 8.222656 0 8.667969 0 9.167969 L 0 12.5 C 0 13.417969 0.746094 14.167969 1.667969 14.167969 L 12.5 14.167969 L 12.5 17.5 C 12.5 17.960938 12.875 18.332031 13.332031 18.332031 L 19.167969 18.332031 C 19.625 18.332031 20 17.960938 20 17.5 L 20 13.332031 C 20 12.875 19.625 12.5 19.167969 12.5 Z M 19.167969 12.5 "/></g></svg>