<?xml version="1.0" encoding="UTF-8"?>
<svg xmlns="http://www.w3.org/2000/svg" xmlns:xlink="http://www.w3.org/1999/xlink" width="20px" height="20px" viewBox="0 0 20 20" version="1.1">
<defs>
<filter id="alpha" filterUnits="objectBoundingBox" x="0%" y="0%" width="100%" height="100%">
  <feColorMatrix type="matrix" in="SourceGraphic" values="0 0 0 0 1 0 0 0 0 1 0 0 0 0 1 0 0 0 1 0"/>
</filter>
<mask id="mask0">
  <g filter="url(#alpha)">
<rect x="0" y="0" width="20" height="20" style="fill:rgb(0%,0%,0%);fill-opacity:0.1;stroke:none;"/>
  </g>
</mask>
<clipPath id="clip1">
  <rect x="0" y="0" width="20" height="20"/>
</clipPath>
<g id="surface5" clip-path="url(#clip1)">
<path style=" stroke:none;fill-rule:nonzero;fill:rgb(0%,0%,0%);fill-opacity:1;" d="M 13.183594 11.363281 C 13.148438 11.363281 13.121094 11.351562 13.09375 11.34375 C 13.148438 11.492188 13.183594 11.652344 13.183594 11.816406 C 13.183594 12.570312 12.570312 13.183594 11.816406 13.183594 L 5.910156 13.183594 C 5.835938 13.183594 5.765625 13.167969 5.695312 13.160156 C 6.007812 13.710938 6.59375 14.089844 7.273438 14.089844 L 13.183594 14.089844 C 13.933594 14.089844 14.546875 13.480469 14.546875 12.726562 C 14.546875 11.976562 13.933594 11.363281 13.183594 11.363281 Z M 13.183594 11.363281 "/>
</g>
<mask id="mask1">
  <g filter="url(#alpha)">
<rect x="0" y="0" width="20" height="20" style="fill:rgb(0%,0%,0%);fill-opacity:0.2;stroke:none;"/>
  </g>
</mask>
<clipPath id="clip2">
  <rect x="0" y="0" width="20" height="20"/>
</clipPath>
<g id="surface8" clip-path="url(#clip2)">
<path style=" stroke:none;fill-rule:nonzero;fill:rgb(100%,100%,100%);fill-opacity:1;" d="M 1.816406 11.816406 L 1.816406 8.183594 C 1.816406 7.679688 2.183594 7.273438 2.636719 7.273438 L 1.816406 7.273438 C 1.316406 7.273438 0.910156 7.679688 0.910156 8.183594 L 0.910156 11.816406 C 0.910156 12.320312 1.316406 12.726562 1.816406 12.726562 L 2.636719 12.726562 C 2.183594 12.726562 1.816406 12.320312 1.816406 11.816406 Z M 1.816406 11.816406 "/>
</g>
<mask id="mask2">
  <g filter="url(#alpha)">
<rect x="0" y="0" width="20" height="20" style="fill:rgb(0%,0%,0%);fill-opacity:0.1;stroke:none;"/>
  </g>
</mask>
<clipPath id="clip3">
  <rect x="0" y="0" width="20" height="20"/>
</clipPath>
<g id="surface11" clip-path="url(#clip3)">
<path style=" stroke:none;fill-rule:nonzero;fill:rgb(0%,0%,0%);fill-opacity:1;" d="M 18.183594 7.273438 L 17.363281 7.273438 C 17.816406 7.273438 18.183594 7.679688 18.183594 8.183594 L 18.183594 11.816406 C 18.183594 12.320312 17.816406 12.726562 17.363281 12.726562 L 18.183594 12.726562 C 18.683594 12.726562 19.089844 12.320312 19.089844 11.816406 L 19.089844 8.183594 C 19.089844 7.679688 18.683594 7.273438 18.183594 7.273438 Z M 18.183594 7.273438 "/>
</g>
<mask id="mask3">
  <g filter="url(#alpha)">
<rect x="0" y="0" width="20" height="20" style="fill:rgb(0%,0%,0%);fill-opacity:0.1;stroke:none;"/>
  </g>
</mask>
<clipPath id="clip4">
  <rect x="0" y="0" width="20" height="20"/>
</clipPath>
<g id="surface14" clip-path="url(#clip4)">
<path style=" stroke:none;fill-rule:nonzero;fill:rgb(0%,0%,0%);fill-opacity:1;" d="M 18.183594 0.910156 L 17.363281 0.910156 C 17.816406 0.910156 18.183594 1.316406 18.183594 1.816406 L 18.183594 5.453125 C 18.183594 5.957031 17.816406 6.363281 17.363281 6.363281 L 18.183594 6.363281 C 18.683594 6.363281 19.089844 5.957031 19.089844 5.453125 L 19.089844 1.816406 C 19.089844 1.316406 18.683594 0.910156 18.183594 0.910156 Z M 18.183594 0.910156 "/>
</g>
<mask id="mask4">
  <g filter="url(#alpha)">
<rect x="0" y="0" width="20" height="20" style="fill:rgb(0%,0%,0%);fill-opacity:0.2;stroke:none;"/>
  </g>
</mask>
<clipPath id="clip5">
  <rect x="0" y="0" width="20" height="20"/>
</clipPath>
<g id="surface17" clip-path="url(#clip5)">
<path style=" stroke:none;fill-rule:nonzero;fill:rgb(100%,100%,100%);fill-opacity:1;" d="M 1.816406 5.453125 L 1.816406 1.816406 C 1.816406 1.316406 2.183594 0.910156 2.636719 0.910156 L 1.816406 0.910156 C 1.316406 0.910156 0.910156 1.316406 0.910156 1.816406 L 0.910156 5.453125 C 0.910156 5.957031 1.316406 6.363281 1.816406 6.363281 L 2.636719 6.363281 C 2.183594 6.363281 1.816406 5.957031 1.816406 5.453125 Z M 1.816406 5.453125 "/>
</g>
<linearGradient id="linear0" gradientUnits="userSpaceOnUse" x1="-68.422997" y1="619.620911" x2="-44.6968" y2="608.557312" gradientTransform="matrix(0.90909,0,0,-0.90909,60.942281,567.41045)">
<stop offset="0" style="stop-color:rgb(100%,100%,100%);stop-opacity:0.2;"/>
<stop offset="1" style="stop-color:rgb(100%,100%,100%);stop-opacity:0;"/>
</linearGradient>
</defs>
<g id="surface1">
<path style=" stroke:none;fill-rule:nonzero;fill:rgb(18.82353%,23.529412%,25.882354%);fill-opacity:1;" d="M 20 5.453125 L 20 1.816406 C 20 0.816406 19.183594 0 18.183594 0 L 1.816406 0 C 0.816406 0 0 0.816406 0 1.816406 L 0 5.453125 C 0 6 0.246094 6.484375 0.628906 6.816406 C 0.246094 7.152344 0 7.636719 0 8.183594 L 0 11.816406 C 0 12.820312 0.816406 13.636719 1.816406 13.636719 L 4.925781 13.636719 C 5.398438 14.449219 6.269531 15 7.273438 15 L 9.546875 15 L 9.546875 17.273438 L 9.089844 17.273438 C 8.839844 17.273438 8.636719 17.476562 8.636719 17.726562 L 8.636719 18.183594 L 2.273438 18.183594 C 2.019531 18.183594 1.816406 18.386719 1.816406 18.636719 C 1.816406 18.886719 2.023438 19.089844 2.273438 19.089844 L 8.636719 19.089844 L 8.636719 19.546875 C 8.636719 19.796875 8.839844 20 9.089844 20 L 10.910156 20 C 11.160156 20 11.363281 19.796875 11.363281 19.546875 L 11.363281 19.089844 L 17.726562 19.089844 C 17.980469 19.089844 18.183594 18.886719 18.183594 18.636719 C 18.183594 18.386719 17.980469 18.183594 17.726562 18.183594 L 11.363281 18.183594 L 11.363281 17.726562 C 11.363281 17.476562 11.160156 17.273438 10.910156 17.273438 L 10.453125 17.273438 L 10.453125 15 L 13.183594 15 C 14.113281 15 14.910156 14.4375 15.261719 13.636719 L 18.183594 13.636719 C 19.183594 13.636719 20 12.820312 20 11.816406 L 20 8.183594 C 20 7.636719 19.753906 7.152344 19.371094 6.816406 C 19.753906 6.484375 20 6 20 5.453125 Z M 20 5.453125 "/>
<path style=" stroke:none;fill-rule:nonzero;fill:rgb(90.196079%,31.764707%,0%);fill-opacity:1;" d="M 9.546875 18.183594 L 10.453125 18.183594 L 10.453125 19.089844 L 9.546875 19.089844 Z M 9.546875 18.183594 "/>
<path style=" stroke:none;fill-rule:nonzero;fill:rgb(90.196079%,90.196079%,90.196079%);fill-opacity:1;" d="M 13.183594 14.089844 L 7.273438 14.089844 C 6.269531 14.089844 5.453125 13.277344 5.453125 12.273438 C 5.453125 11.269531 6.269531 10.453125 7.273438 10.453125 C 7.851562 10.453125 8.378906 10.71875 8.726562 11.183594 C 8.878906 11.382812 9.164062 11.421875 9.363281 11.273438 C 9.566406 11.121094 9.605469 10.835938 9.453125 10.636719 C 9.144531 10.222656 8.734375 9.933594 8.273438 9.75 C 8.78125 9.0625 9.585938 8.636719 10.453125 8.636719 C 11.628906 8.636719 12.652344 9.402344 13.019531 10.488281 C 12.847656 10.554688 12.726562 10.714844 12.726562 10.910156 C 12.726562 11.160156 12.929688 11.363281 13.183594 11.363281 C 13.933594 11.363281 14.546875 11.976562 14.546875 12.726562 C 14.546875 13.480469 13.933594 14.089844 13.183594 14.089844 Z M 13.183594 14.089844 "/>
<use xlink:href="#surface5" mask="url(#mask0)"/>
<path style=" stroke:none;fill-rule:nonzero;fill:rgb(90.196079%,90.196079%,90.196079%);fill-opacity:1;" d="M 19.089844 8.183594 L 19.089844 11.816406 C 19.089844 12.320312 18.683594 12.726562 18.183594 12.726562 L 15.453125 12.726562 C 15.453125 11.839844 14.9375 11.074219 14.191406 10.703125 C 14.402344 10.535156 14.546875 10.289062 14.546875 10 C 14.546875 9.5 14.136719 9.089844 13.636719 9.089844 C 13.527344 9.089844 13.421875 9.117188 13.320312 9.152344 C 12.652344 8.285156 11.613281 7.726562 10.453125 7.726562 C 9.160156 7.726562 7.96875 8.4375 7.320312 9.550781 C 7.304688 9.550781 7.289062 9.546875 7.273438 9.546875 L 7.273438 8.636719 C 7.273438 8.386719 7.070312 8.183594 6.816406 8.183594 C 6.566406 8.183594 6.363281 8.386719 6.363281 8.636719 L 6.363281 9.714844 C 6.023438 9.835938 5.71875 10.019531 5.453125 10.253906 L 5.453125 8.636719 C 5.453125 8.386719 5.25 8.183594 5 8.183594 C 4.75 8.183594 4.546875 8.386719 4.546875 8.636719 L 4.546875 11.363281 C 4.546875 11.460938 4.582031 11.546875 4.632812 11.617188 C 4.582031 11.828125 4.546875 12.046875 4.546875 12.273438 C 4.546875 12.429688 4.566406 12.578125 4.589844 12.726562 L 1.816406 12.726562 C 1.316406 12.726562 0.910156 12.320312 0.910156 11.816406 L 0.910156 8.183594 C 0.910156 7.679688 1.316406 7.273438 1.816406 7.273438 L 18.183594 7.273438 C 18.683594 7.273438 19.089844 7.679688 19.089844 8.183594 Z M 19.089844 8.183594 "/>
<path style=" stroke:none;fill-rule:nonzero;fill:rgb(90.196079%,90.196079%,90.196079%);fill-opacity:1;" d="M 1.816406 6.363281 C 1.316406 6.363281 0.910156 5.957031 0.910156 5.453125 L 0.910156 1.816406 C 0.910156 1.316406 1.316406 0.910156 1.816406 0.910156 L 18.183594 0.910156 C 18.683594 0.910156 19.089844 1.316406 19.089844 1.816406 L 19.089844 5.453125 C 19.089844 5.957031 18.683594 6.363281 18.183594 6.363281 Z M 1.816406 6.363281 "/>
<use xlink:href="#surface8" mask="url(#mask1)"/>
<use xlink:href="#surface11" mask="url(#mask2)"/>
<use xlink:href="#surface14" mask="url(#mask3)"/>
<use xlink:href="#surface17" mask="url(#mask4)"/>
<path style=" stroke:none;fill-rule:nonzero;fill:rgb(18.82353%,23.529412%,25.882354%);fill-opacity:1;" d="M 3.183594 1.816406 C 2.929688 1.816406 2.726562 2.023438 2.726562 2.273438 L 2.726562 5 C 2.726562 5.25 2.929688 5.453125 3.183594 5.453125 C 3.433594 5.453125 3.636719 5.25 3.636719 5 L 3.636719 2.273438 C 3.636719 2.023438 3.433594 1.816406 3.183594 1.816406 Z M 3.183594 1.816406 "/>
<path style=" stroke:none;fill-rule:nonzero;fill:rgb(18.82353%,23.529412%,25.882354%);fill-opacity:1;" d="M 5 1.816406 C 4.75 1.816406 4.546875 2.023438 4.546875 2.273438 L 4.546875 5 C 4.546875 5.25 4.75 5.453125 5 5.453125 C 5.25 5.453125 5.453125 5.25 5.453125 5 L 5.453125 2.273438 C 5.453125 2.023438 5.25 1.816406 5 1.816406 Z M 5 1.816406 "/>
<path style=" stroke:none;fill-rule:nonzero;fill:rgb(18.82353%,23.529412%,25.882354%);fill-opacity:1;" d="M 6.816406 1.816406 C 6.566406 1.816406 6.363281 2.023438 6.363281 2.273438 L 6.363281 5 C 6.363281 5.25 6.566406 5.453125 6.816406 5.453125 C 7.070312 5.453125 7.273438 5.25 7.273438 5 L 7.273438 2.273438 C 7.273438 2.023438 7.070312 1.816406 6.816406 1.816406 Z M 6.816406 1.816406 "/>
<path style=" stroke:none;fill-rule:nonzero;fill:rgb(18.82353%,23.529412%,25.882354%);fill-opacity:1;" d="M 17.273438 3.636719 C 17.273438 4.136719 16.867188 4.546875 16.363281 4.546875 C 15.863281 4.546875 15.453125 4.136719 15.453125 3.636719 C 15.453125 3.132812 15.863281 2.726562 16.363281 2.726562 C 16.867188 2.726562 17.273438 3.132812 17.273438 3.636719 Z M 17.273438 3.636719 "/>
<path style=" stroke:none;fill-rule:nonzero;fill:rgb(18.82353%,23.529412%,25.882354%);fill-opacity:1;" d="M 14.546875 3.636719 C 14.546875 4.136719 14.136719 4.546875 13.636719 4.546875 C 13.132812 4.546875 12.726562 4.136719 12.726562 3.636719 C 12.726562 3.132812 13.132812 2.726562 13.636719 2.726562 C 14.136719 2.726562 14.546875 3.132812 14.546875 3.636719 Z M 14.546875 3.636719 "/>
<path style=" stroke:none;fill-rule:nonzero;fill:rgb(18.82353%,23.529412%,25.882354%);fill-opacity:1;" d="M 3.183594 11.816406 C 3.433594 11.816406 3.636719 11.613281 3.636719 11.363281 L 3.636719 8.636719 C 3.636719 8.386719 3.433594 8.183594 3.183594 8.183594 C 2.929688 8.183594 2.726562 8.386719 2.726562 8.636719 L 2.726562 11.363281 C 2.726562 11.613281 2.929688 11.816406 3.183594 11.816406 Z M 3.183594 11.816406 "/>
<path style=" stroke:none;fill-rule:nonzero;fill:rgb(18.82353%,23.529412%,25.882354%);fill-opacity:1;" d="M 17.273438 10 C 17.273438 10.503906 16.867188 10.910156 16.363281 10.910156 C 15.863281 10.910156 15.453125 10.503906 15.453125 10 C 15.453125 9.496094 15.863281 9.089844 16.363281 9.089844 C 16.867188 9.089844 17.273438 9.496094 17.273438 10 Z M 17.273438 10 "/>
<path style=" stroke:none;fill-rule:nonzero;fill:url(#linear0);" d="M 20 5.453125 L 20 1.816406 C 20 0.816406 19.183594 0 18.183594 0 L 1.816406 0 C 0.816406 0 0 0.816406 0 1.816406 L 0 5.453125 C 0 6 0.246094 6.484375 0.628906 6.816406 C 0.246094 7.152344 0 7.636719 0 8.183594 L 0 11.816406 C 0 12.820312 0.816406 13.636719 1.816406 13.636719 L 4.925781 13.636719 C 5.398438 14.449219 6.269531 15 7.273438 15 L 9.546875 15 L 9.546875 17.273438 L 9.089844 17.273438 C 8.839844 17.273438 8.636719 17.476562 8.636719 17.726562 L 8.636719 18.183594 L 2.273438 18.183594 C 2.019531 18.183594 1.816406 18.386719 1.816406 18.636719 C 1.816406 18.886719 2.023438 19.089844 2.273438 19.089844 L 8.636719 19.089844 L 8.636719 19.546875 C 8.636719 19.796875 8.839844 20 9.089844 20 L 10.910156 20 C 11.160156 20 11.363281 19.796875 11.363281 19.546875 L 11.363281 19.089844 L 17.726562 19.089844 C 17.980469 19.089844 18.183594 18.886719 18.183594 18.636719 C 18.183594 18.386719 17.980469 18.183594 17.726562 18.183594 L 11.363281 18.183594 L 11.363281 17.726562 C 11.363281 17.476562 11.160156 17.273438 10.910156 17.273438 L 10.453125 17.273438 L 10.453125 15 L 13.183594 15 C 14.113281 15 14.910156 14.4375 15.261719 13.636719 L 18.183594 13.636719 C 19.183594 13.636719 20 12.820312 20 11.816406 L 20 8.183594 C 20 7.636719 19.753906 7.152344 19.371094 6.816406 C 19.753906 6.484375 20 6 20 5.453125 Z M 20 5.453125 "/>
</g>
</svg>
