<svg xmlns="http://www.w3.org/2000/svg" xmlns:xlink="http://www.w3.org/1999/xlink" width="20px" height="20px" viewBox="0 0 20 20" version="1.1"><defs><linearGradient id="linear0" gradientUnits="userSpaceOnUse" x1="-41.300701" y1="646.56073" x2="-28.105499" y2="640.408081" gradientTransform="matrix(0.833332,0,0,-0.833332,38.919272,538.736992)"><stop offset="0" style="stop-color:rgb(100%,100%,100%);stop-opacity:0.2;"/><stop offset="1" style="stop-color:rgb(100%,100%,100%);stop-opacity:0;"/></linearGradient><linearGradient id="linear1" gradientUnits="userSpaceOnUse" x1="-38.703098" y1="646.03833" x2="-25.3444" y2="632.679626" gradientTransform="matrix(0.833332,0,0,-0.833332,38.919272,538.736992)"><stop offset="0" style="stop-color:rgb(0%,0%,0%);stop-opacity:0.1;"/><stop offset="1" style="stop-color:rgb(0%,0%,0%);stop-opacity:0;"/></linearGradient><linearGradient id="linear2" gradientUnits="userSpaceOnUse" x1="-45.8004" y1="639.268188" x2="-23.395901" y2="628.820984" gradientTransform="matrix(0.833332,0,0,-0.833332,38.919272,538.736992)"><stop offset="0" style="stop-color:rgb(100%,100%,100%);stop-opacity:0.2;"/><stop offset="1" style="stop-color:rgb(100%,100%,100%);stop-opacity:0;"/></linearGradient></defs><g id="surface1"><path style=" stroke:none;fill-rule:nonzero;fill:rgb(18.82353%,23.529412%,25.882354%);fill-opacity:1;" d="M 10 0 C 6.273438 0 2.5 0.859375 2.5 2.5 L 2.5 12.5 C 2.5 14.082031 5.996094 14.933594 9.582031 14.992188 L 9.582031 17.5 L 9.167969 17.5 C 8.9375 17.5 8.75 17.6875 8.75 17.917969 L 8.75 18.332031 L 2.917969 18.332031 C 2.6875 18.332031 2.5 18.519531 2.5 18.75 C 2.5 18.980469 2.6875 19.167969 2.917969 19.167969 L 8.75 19.167969 L 8.75 19.582031 C 8.75 19.8125 8.9375 20 9.167969 20 L 10.832031 20 C 11.0625 20 11.25 19.8125 11.25 19.582031 L 11.25 19.167969 L 17.082031 19.167969 C 17.3125 19.167969 17.5 18.980469 17.5 18.75 C 17.5 18.519531 17.3125 18.332031 17.082031 18.332031 L 11.25 18.332031 L 11.25 17.917969 C 11.25 17.6875 11.0625 17.5 10.832031 17.5 L 10.417969 17.5 L 10.417969 14.992188 C 14.003906 14.933594 17.5 14.082031 17.5 12.5 L 17.5 2.5 C 17.5 0.859375 13.726562 0 10 0 Z M 10 0 "/><path style=" stroke:none;fill-rule:nonzero;fill:rgb(100%,43.529412%,0%);fill-opacity:1;" d="M 9.582031 18.332031 L 10.417969 18.332031 L 10.417969 19.167969 L 9.582031 19.167969 Z M 9.582031 18.332031 "/><path style=" stroke:none;fill-rule:nonzero;fill:rgb(32.941177%,43.137255%,47.843137%);fill-opacity:1;" d="M 10 0.832031 C 14.378906 0.832031 16.667969 1.917969 16.667969 2.5 C 16.667969 3.082031 14.378906 4.167969 10 4.167969 C 5.621094 4.167969 3.332031 3.082031 3.332031 2.5 C 3.332031 1.917969 5.621094 0.832031 10 0.832031 Z M 10 0.832031 "/><path style=" stroke:none;fill-rule:nonzero;fill:url(#linear0);" d="M 10 0.832031 C 14.378906 0.832031 16.667969 1.917969 16.667969 2.5 C 16.667969 3.082031 14.378906 4.167969 10 4.167969 C 5.621094 4.167969 3.332031 3.082031 3.332031 2.5 C 3.332031 1.917969 5.621094 0.832031 10 0.832031 Z M 10 0.832031 "/><path style=" stroke:none;fill-rule:nonzero;fill:rgb(32.941177%,43.137255%,47.843137%);fill-opacity:1;" d="M 10 14.167969 C 5.621094 14.167969 3.332031 13.082031 3.332031 12.5 L 3.332031 10.371094 C 4.648438 11.222656 7.332031 11.667969 10 11.667969 C 12.667969 11.667969 15.351562 11.222656 16.667969 10.371094 L 16.667969 12.5 C 16.667969 13.082031 14.378906 14.167969 10 14.167969 Z M 10 14.167969 "/><path style=" stroke:none;fill-rule:nonzero;fill:rgb(32.941177%,43.137255%,47.843137%);fill-opacity:1;" d="M 10 10.832031 C 5.621094 10.832031 3.332031 9.75 3.332031 9.167969 L 3.332031 7.039062 C 4.648438 7.890625 7.332031 8.332031 10 8.332031 C 12.667969 8.332031 15.351562 7.890625 16.667969 7.039062 L 16.667969 9.167969 C 16.667969 9.75 14.378906 10.832031 10 10.832031 Z M 10 10.832031 "/><path style=" stroke:none;fill-rule:nonzero;fill:rgb(32.941177%,43.137255%,47.843137%);fill-opacity:1;" d="M 10 7.5 C 5.621094 7.5 3.332031 6.414062 3.332031 5.832031 L 3.332031 3.703125 C 4.648438 4.558594 7.332031 5 10 5 C 12.667969 5 15.351562 4.558594 16.667969 3.703125 L 16.667969 5.832031 C 16.667969 6.414062 14.378906 7.5 10 7.5 Z M 10 7.5 "/><path style=" stroke:none;fill-rule:nonzero;fill:url(#linear1);" d="M 13.519531 13.890625 C 15.59375 13.53125 16.667969 12.898438 16.667969 12.5 L 16.667969 10.371094 C 15.558594 11.089844 13.480469 11.511719 11.257812 11.628906 Z M 7.863281 8.234375 L 10.453125 10.828125 C 14.53125 10.753906 16.667969 9.726562 16.667969 9.167969 L 16.667969 7.039062 C 15.351562 7.890625 12.667969 8.332031 10 8.332031 C 9.277344 8.332031 8.558594 8.296875 7.863281 8.234375 Z M 10 5 C 7.332031 5 4.648438 4.558594 3.332031 3.703125 L 6.921875 7.292969 C 7.792969 7.417969 8.816406 7.5 10 7.5 C 14.378906 7.5 16.667969 6.414062 16.667969 5.832031 L 16.667969 3.703125 C 15.351562 4.558594 12.667969 5 10 5 Z M 10 5 "/><path style=" stroke:none;fill-rule:nonzero;fill:url(#linear2);" d="M 10 0 C 6.273438 0 2.5 0.859375 2.5 2.5 L 2.5 12.5 C 2.5 14.082031 5.996094 14.933594 9.582031 14.992188 L 9.582031 17.5 L 9.167969 17.5 C 8.9375 17.5 8.75 17.6875 8.75 17.917969 L 8.75 18.332031 L 2.917969 18.332031 C 2.6875 18.332031 2.5 18.519531 2.5 18.75 C 2.5 18.980469 2.6875 19.167969 2.917969 19.167969 L 8.75 19.167969 L 8.75 19.582031 C 8.75 19.8125 8.9375 20 9.167969 20 L 10.832031 20 C 11.0625 20 11.25 19.8125 11.25 19.582031 L 11.25 19.167969 L 17.082031 19.167969 C 17.3125 19.167969 17.5 18.980469 17.5 18.75 C 17.5 18.519531 17.3125 18.332031 17.082031 18.332031 L 11.25 18.332031 L 11.25 17.917969 C 11.25 17.6875 11.0625 17.5 10.832031 17.5 L 10.417969 17.5 L 10.417969 14.992188 C 14.003906 14.933594 17.5 14.082031 17.5 12.5 L 17.5 2.5 C 17.5 0.859375 13.726562 0 10 0 Z M 10 0 "/></g></svg>