<?xml version="1.0" encoding="iso-8859-1"?>
<!-- Generator: Adobe Illustrator 19.0.0, SVG Export Plug-In . SVG Version: 6.00 Build 0)  -->
<svg xmlns="http://www.w3.org/2000/svg" xmlns:xlink="http://www.w3.org/1999/xlink" version="1.1" id="Capa_1" x="0px" y="0px" viewBox="0 0 512 512" style="enable-background:new 0 0 512 512;" xml:space="preserve">
<path style="fill:#303C42;" d="M469.333,170.667V85.333c0-23.531-19.146-42.667-42.667-42.667h-384C19.146,42.667,0,61.802,0,85.333  v85.333c0,12.805,5.786,24.174,14.746,32C5.786,210.492,0,221.862,0,234.667V320c0,23.531,19.146,42.667,42.667,42.667h384  c23.521,0,42.667-19.135,42.667-42.667v-85.333c0-12.805-5.786-24.174-14.746-32C463.547,194.841,469.333,183.471,469.333,170.667z"/>
<g>
	<path style="fill:#E6E6E6;" d="M448,234.667V320c0,11.76-9.563,21.333-21.333,21.333h-384c-11.771,0-21.333-9.573-21.333-21.333   v-85.333c0-11.76,9.563-21.333,21.333-21.333h384C438.438,213.333,448,222.906,448,234.667z"/>
	<path style="fill:#E6E6E6;" d="M42.667,192c-11.771,0-21.333-9.573-21.333-21.333V85.333C21.333,73.573,30.896,64,42.667,64h384   C438.438,64,448,73.573,448,85.333v85.333c0,11.76-9.563,21.333-21.333,21.333H42.667z"/>
</g>
<path style="opacity:0.1;enable-background:new    ;" d="M426.667,213.333h-19.201c10.594,0,19.201,9.573,19.201,21.333V320  c0,11.76-8.607,21.333-19.201,21.333h19.201C438.438,341.333,448,331.76,448,320v-85.333  C448,222.906,438.438,213.333,426.667,213.333z"/>
<g>
	<path style="opacity:0.2;fill:#FFFFFF;enable-background:new    ;" d="M42.667,320v-85.333c0-11.76,8.607-21.333,19.201-21.333   H42.667c-11.771,0-21.333,9.573-21.333,21.333V320c0,11.76,9.563,21.333,21.333,21.333h19.201   C51.273,341.333,42.667,331.76,42.667,320z"/>
	<path style="opacity:0.2;fill:#FFFFFF;enable-background:new    ;" d="M42.667,170.667V85.333C42.667,73.573,51.273,64,61.867,64   H42.667c-11.771,0-21.333,9.573-21.333,21.333v85.333c0,11.76,9.563,21.333,21.333,21.333h19.201   C51.273,192,42.667,182.427,42.667,170.667z"/>
</g>
<path style="opacity:0.1;enable-background:new    ;" d="M426.667,64h-19.201c10.594,0,19.201,9.573,19.201,21.333v85.333  c0,11.76-8.607,21.333-19.201,21.333h19.201c11.771,0,21.333-9.573,21.333-21.333V85.333C448,73.573,438.438,64,426.667,64z"/>
<g>
	<path style="fill:#303C42;" d="M74.667,170.667C68.771,170.667,64,165.896,64,160V96c0-5.896,4.771-10.667,10.667-10.667   c5.896,0,10.667,4.771,10.667,10.667v64C85.333,165.896,80.563,170.667,74.667,170.667z"/>
	<path style="fill:#303C42;" d="M117.333,170.667c-5.896,0-10.667-4.771-10.667-10.667V96c0-5.896,4.771-10.667,10.667-10.667   S128,90.104,128,96v64C128,165.896,123.229,170.667,117.333,170.667z"/>
	<path style="fill:#303C42;" d="M160,170.667c-5.896,0-10.667-4.771-10.667-10.667V96c0-5.896,4.771-10.667,10.667-10.667   c5.896,0,10.667,4.771,10.667,10.667v64C170.667,165.896,165.896,170.667,160,170.667z"/>
	<path style="fill:#303C42;" d="M74.667,320C68.771,320,64,315.229,64,309.333v-64c0-5.896,4.771-10.667,10.667-10.667   c5.896,0,10.667,4.771,10.667,10.667v64C85.333,315.229,80.563,320,74.667,320z"/>
	<path style="fill:#303C42;" d="M117.333,320c-5.896,0-10.667-4.771-10.667-10.667v-64c0-5.896,4.771-10.667,10.667-10.667   S128,239.438,128,245.333v64C128,315.229,123.229,320,117.333,320z"/>
	<path style="fill:#303C42;" d="M160,320c-5.896,0-10.667-4.771-10.667-10.667v-64c0-5.896,4.771-10.667,10.667-10.667   c5.896,0,10.667,4.771,10.667,10.667v64C170.667,315.229,165.896,320,160,320z"/>
	<circle style="fill:#303C42;" cx="384" cy="128" r="21.333"/>
	<circle style="fill:#303C42;" cx="320" cy="128" r="21.333"/>
	<circle style="fill:#303C42;" cx="384" cy="277.333" r="21.333"/>
	<circle style="fill:#303C42;" cx="320" cy="277.333" r="21.333"/>
	<path style="fill:#303C42;" d="M503.917,320.313l-20.438-5.083l10.833-18.083c2.521-4.188,1.854-9.563-1.604-13.021l-30.167-30.167   c-3.479-3.5-8.833-4.104-13.021-1.604l-18.083,10.833l-5.083-20.438c-1.188-4.75-5.458-8.083-10.354-8.083h-42.667   c-4.896,0-9.167,3.333-10.354,8.083l-5.104,20.438l-18.083-10.833c-4.188-2.5-9.542-1.896-13.021,1.604l-30.167,30.167   c-3.458,3.458-4.125,8.833-1.604,13.021l10.833,18.083l-20.417,5.083c-4.75,1.188-8.083,5.458-8.083,10.354v42.667   c0,4.896,3.333,9.167,8.083,10.354l20.438,5.104L295,406.875c-2.521,4.188-1.854,9.563,1.604,13.021l30.167,30.167   c3.479,3.479,8.875,4.104,13.021,1.604l18.083-10.854l5.104,20.438c1.188,4.75,5.458,8.083,10.354,8.083H416   c4.896,0,9.167-3.333,10.354-8.083l5.083-20.417l18.083,10.833c4.125,2.5,9.542,1.875,13.021-1.604l30.167-30.167   c3.458-3.458,4.125-8.833,1.604-13.021l-10.833-18.083l20.438-5.104c4.75-1.188,8.083-5.458,8.083-10.354v-42.667   C512,325.771,508.667,321.5,503.917,320.313z M394.667,384c-17.646,0-32-14.354-32-32c0-17.646,14.354-32,32-32   c17.646,0,32,14.354,32,32C426.667,369.646,412.313,384,394.667,384z"/>
</g>
<path style="fill:#E6E6E6;" d="M472.333,334.438c-3.5-0.875-6.333-3.458-7.5-6.875c-0.938-2.75-2-5.417-3.229-7.979  c-1.563-3.229-1.396-7.021,0.458-10.104l9.667-16.146l-18.396-18.396l-16.146,9.667c-3.104,1.875-6.917,2-10.104,0.458  c-2.563-1.229-5.229-2.292-7.979-3.229c-3.417-1.167-6-4-6.875-7.5L407.667,256h-26l-4.583,18.333c-0.875,3.5-3.458,6.333-6.875,7.5  c-2.771,0.958-5.417,2-8,3.25c-3.25,1.5-7,1.375-10.083-0.479l-16.146-9.667l-18.396,18.375l9.688,16.167  c1.854,3.083,2.021,6.917,0.438,10.167c-1.25,2.542-2.292,5.188-3.229,7.917c-1.167,3.417-4,6-7.5,6.875L298.667,339v26  l18.313,4.583c3.5,0.875,6.333,3.479,7.5,6.875c0.938,2.75,2,5.375,3.25,7.938c1.563,3.25,1.396,7.063-0.458,10.146l-9.688,16.167  l18.375,18.375l16.167-9.688c3.063-1.896,6.875-2.021,10.146-0.458c2.563,1.25,5.188,2.313,7.938,3.25c3.396,1.167,6,4,6.875,7.5  L381.667,448h26l4.563-18.313c0.875-3.5,3.458-6.333,6.875-7.5c2.729-0.938,5.375-1.979,7.917-3.229  c3.208-1.604,7.083-1.458,10.167,0.438l16.167,9.688l18.375-18.396l-9.667-16.146c-1.854-3.063-2.021-6.854-0.479-10.083  c1.25-2.583,2.292-5.229,3.25-8c1.167-3.417,4-6,7.5-6.875L490.667,365v-26L472.333,334.438z M394.667,405.333  c-29.417,0-53.333-23.917-53.333-53.333c0-29.417,23.917-53.333,53.333-53.333C424.083,298.667,448,322.583,448,352  C448,381.417,424.083,405.333,394.667,405.333z"/>
<linearGradient id="SVGID_1_" gradientUnits="userSpaceOnUse" x1="-47.0149" y1="642.259" x2="-21.8402" y2="630.5201" gradientTransform="matrix(21.3333 0 0 -21.3333 996.3334 13791.667)">
	<stop offset="0" style="stop-color:#FFFFFF;stop-opacity:0.2"/>
	<stop offset="1" style="stop-color:#FFFFFF;stop-opacity:0"/>
</linearGradient>
<path style="fill:url(#SVGID_1_);" d="M503.917,320.313l-20.438-5.083l10.833-18.083c2.521-4.188,1.854-9.563-1.604-13.021  l-23.375-23.375v-26.083c0-12.805-5.786-24.174-14.746-32c8.96-7.826,14.746-19.195,14.746-32V85.333  c0-23.531-19.146-42.667-42.667-42.667h-384C19.146,42.667,0,61.802,0,85.333v85.333c0,12.805,5.786,24.174,14.746,32  C5.786,210.492,0,221.862,0,234.667V320c0,23.531,19.146,42.667,42.667,42.667h234.667v10.667c0,4.896,3.333,9.167,8.083,10.354  l20.438,5.104L295,406.875c-2.521,4.188-1.854,9.563,1.604,13.021l30.167,30.167c3.479,3.479,8.875,4.104,13.021,1.604  l18.083-10.854l5.104,20.438c1.188,4.75,5.458,8.083,10.354,8.083H416c4.896,0,9.167-3.333,10.354-8.083l5.083-20.417l18.083,10.833  c4.125,2.5,9.542,1.875,13.021-1.604l30.167-30.167c3.458-3.458,4.125-8.833,1.604-13.021l-10.833-18.083l20.438-5.104  c4.75-1.188,8.083-5.458,8.083-10.354v-42.667C512,325.771,508.667,321.5,503.917,320.313z M394.667,384  c-13.888,0-25.617-8.944-30.035-21.333h60.07C420.284,375.056,408.555,384,394.667,384z"/>
<g>
</g>
<g>
</g>
<g>
</g>
<g>
</g>
<g>
</g>
<g>
</g>
<g>
</g>
<g>
</g>
<g>
</g>
<g>
</g>
<g>
</g>
<g>
</g>
<g>
</g>
<g>
</g>
<g>
</g>
</svg>
