<?xml version="1.0" encoding="iso-8859-1"?>
<!-- Generator: Adobe Illustrator 19.0.0, SVG Export Plug-In . SVG Version: 6.00 Build 0)  -->
<svg xmlns="http://www.w3.org/2000/svg" xmlns:xlink="http://www.w3.org/1999/xlink" version="1.1" id="Capa_1" x="0px" y="0px" viewBox="0 0 469.333 469.333" style="enable-background:new 0 0 469.333 469.333;" xml:space="preserve">
<path style="fill:#303C42;" d="M469.333,277.333c0-23.531-19.135-42.667-42.667-42.667v-61.865c0-4.896-3.333-9.156-8.083-10.344  l-44.656-11.167c-0.979-2.604-2.021-5.177-3.125-7.708l23.646-39.406c2.521-4.198,1.854-9.573-1.604-13.031l-57.323-57.323  c-3.469-3.49-8.854-4.125-13.031-1.604l-39.396,23.646c-2.542-1.104-5.115-2.146-7.719-3.135L264.208,8.083  C263.021,3.333,258.76,0,253.865,0h-81.063c-4.896,0-9.156,3.333-10.344,8.083l-11.167,44.646c-2.604,0.99-5.177,2.031-7.719,3.135  l-39.396-23.646c-4.198-2.51-9.573-1.844-13.031,1.604L33.823,91.146c-3.458,3.458-4.125,8.833-1.604,13.031l23.646,39.406  c-1.104,2.531-2.146,5.104-3.125,7.708L8.083,162.458C3.333,163.646,0,167.906,0,172.802v81.063c0,4.896,3.333,9.156,8.083,10.344  l44.656,11.167c0.979,2.604,2.021,5.177,3.125,7.708L32.219,322.49c-2.521,4.198-1.854,9.573,1.604,13.031l51.51,51.51v39.635  c0,23.531,19.135,42.667,42.667,42.667h298.667c23.531,0,42.667-19.135,42.667-42.667V384c0-12.805-5.784-24.174-14.741-32  c8.957-7.826,14.741-19.195,14.741-32V277.333z M295.342,234.667H131.311c-1.992-7.268-3.311-14.365-3.311-21.333  C128,166.281,166.281,128,213.333,128s85.333,38.281,85.333,85.333C298.667,220.267,297.35,227.365,295.342,234.667z"/>
<path style="fill:#37474F;" d="M77.052,289.24c1.854-3.094,2.021-6.906,0.448-10.156c-2.552-5.24-4.667-10.646-6.615-16.208  c-1.177-3.385-3.99-5.948-7.479-6.813l-42.073-10.521v-64.417l42.073-10.521c3.49-0.865,6.302-3.427,7.479-6.813  c1.948-5.563,4.063-10.969,6.615-16.208c1.573-3.25,1.406-7.063-0.448-10.156l-22.26-37.083l45.552-45.552l37.083,22.26  c3.104,1.844,6.896,2.01,10.156,0.448c5.24-2.552,10.635-4.667,16.188-6.604c3.396-1.188,5.969-4,6.833-7.49l10.521-42.073h64.417  l10.521,42.073c0.865,3.49,3.438,6.302,6.833,7.49c5.552,1.938,10.948,4.052,16.188,6.604c3.26,1.583,7.063,1.417,10.156-0.448  l37.083-22.26l45.552,45.552l-22.26,37.083c-1.854,3.094-2.021,6.906-0.448,10.156c2.552,5.24,4.667,10.646,6.615,16.208  c1.177,3.385,3.99,5.948,7.479,6.813l42.073,10.521v53.542h-87.967c1.581-7.188,2.634-14.286,2.634-21.333  c0-58.813-47.854-106.667-106.667-106.667s-106.667,47.854-106.667,106.667c0,8.352,1.487,16.746,3.684,25.264  c-14.719,6.736-25.017,21.516-25.017,38.736V320c0,12.805,5.784,24.174,14.741,32c-3.521,3.076-6.493,6.682-8.854,10.751  l-36.428-36.428L77.052,289.24z"/>
<path style="fill:#E6E6E6;" d="M448,384v42.667c0,11.76-9.573,21.333-21.333,21.333H128c-11.76,0-21.333-9.573-21.333-21.333V384  c0-11.76,9.573-21.333,21.333-21.333h298.667C438.427,362.667,448,372.24,448,384z"/>
<path style="opacity:0.1;enable-background:new    ;" d="M75.087,273.172c0.828,1.954,1.482,4,2.413,5.911  c1.573,3.25,1.406,7.063-0.448,10.156l-2.385,3.974V320c0,12.052,4.171,23.059,10.939,32c-0.746,0.986-1.333,2.087-2.014,3.122  l7.629,7.629c2.361-4.069,5.333-7.676,8.854-10.751c-8.957-7.826-14.741-19.195-14.741-32v-42.667c0-17.22,10.298-32,25.017-38.736  c-0.923-3.578-1.625-7.124-2.24-10.664C89.788,235.339,76.707,252.638,75.087,273.172z"/>
<path style="opacity:0.1;enable-background:new    ;" d="M319.267,224c-0.461,3.536-1.115,7.091-1.901,10.667h87.967V224H319.267z"/>
<path style="fill:#E6E6E6;" d="M128,341.333c-11.76,0-21.333-9.573-21.333-21.333v-42.667c0-11.76,9.573-21.333,21.333-21.333  h298.667c11.76,0,21.333,9.573,21.333,21.333V320c0,11.76-9.573,21.333-21.333,21.333H128z"/>
<g>
	<path style="fill:#303C42;" d="M138.667,277.333c-5.896,0-10.667,4.771-10.667,10.667v21.333c0,5.896,4.771,10.667,10.667,10.667   s10.667-4.771,10.667-10.667V288C149.333,282.104,144.563,277.333,138.667,277.333z"/>
	<path style="fill:#303C42;" d="M181.333,277.333c-5.896,0-10.667,4.771-10.667,10.667v21.333c0,5.896,4.771,10.667,10.667,10.667   c5.896,0,10.667-4.771,10.667-10.667V288C192,282.104,187.229,277.333,181.333,277.333z"/>
	<path style="fill:#303C42;" d="M224,277.333c-5.896,0-10.667,4.771-10.667,10.667v21.333c0,5.896,4.771,10.667,10.667,10.667   c5.896,0,10.667-4.771,10.667-10.667V288C234.667,282.104,229.896,277.333,224,277.333z"/>
	<circle style="fill:#303C42;" cx="405.333" cy="298.667" r="21.333"/>
	<circle style="fill:#303C42;" cx="341.333" cy="298.667" r="21.333"/>
	<path style="fill:#303C42;" d="M128,416c0,5.896,4.771,10.667,10.667,10.667s10.667-4.771,10.667-10.667v-21.333   c0-5.896-4.771-10.667-10.667-10.667S128,388.771,128,394.667V416z"/>
	<path style="fill:#303C42;" d="M181.333,426.667c5.896,0,10.667-4.771,10.667-10.667v-21.333c0-5.896-4.771-10.667-10.667-10.667   c-5.896,0-10.667,4.771-10.667,10.667V416C170.667,421.896,175.438,426.667,181.333,426.667z"/>
	<path style="fill:#303C42;" d="M224,426.667c5.896,0,10.667-4.771,10.667-10.667v-21.333c0-5.896-4.771-10.667-10.667-10.667   c-5.896,0-10.667,4.771-10.667,10.667V416C213.333,421.896,218.104,426.667,224,426.667z"/>
	<circle style="fill:#303C42;" cx="405.333" cy="405.333" r="21.333"/>
	<circle style="fill:#303C42;" cx="341.333" cy="405.333" r="21.333"/>
</g>
<linearGradient id="SVGID_1_" gradientUnits="userSpaceOnUse" x1="-66.7347" y1="617.197" x2="-43.7452" y2="606.4768" gradientTransform="matrix(21.3333 0 0 -21.3333 1430.1112 13315.2227)">
	<stop offset="0" style="stop-color:#FFFFFF;stop-opacity:0.2"/>
	<stop offset="1" style="stop-color:#FFFFFF;stop-opacity:0"/>
</linearGradient>
<path style="fill:url(#SVGID_1_);" d="M469.333,277.333c0-23.531-19.135-42.667-42.667-42.667v-61.865  c0-4.896-3.333-9.156-8.083-10.344l-44.656-11.167c-0.979-2.604-2.021-5.177-3.125-7.708l23.646-39.406  c2.521-4.198,1.854-9.573-1.604-13.031l-57.323-57.323c-3.469-3.49-8.854-4.125-13.031-1.604l-39.396,23.646  c-2.542-1.104-5.115-2.146-7.719-3.135L264.208,8.083C263.021,3.333,258.76,0,253.865,0h-81.063c-4.896,0-9.156,3.333-10.344,8.083  l-11.167,44.646c-2.604,0.99-5.177,2.031-7.719,3.135l-39.396-23.646c-4.198-2.51-9.573-1.844-13.031,1.604L33.823,91.146  c-3.458,3.458-4.125,8.833-1.604,13.031l23.646,39.406c-1.104,2.531-2.146,5.104-3.125,7.708L8.083,162.458  C3.333,163.646,0,167.906,0,172.802v81.063c0,4.896,3.333,9.156,8.083,10.344l44.656,11.167c0.979,2.604,2.021,5.177,3.125,7.708  L32.219,322.49c-2.521,4.198-1.854,9.573,1.604,13.031l51.51,51.51v39.635c0,23.531,19.135,42.667,42.667,42.667h298.667  c23.531,0,42.667-19.135,42.667-42.667V384c0-12.805-5.784-24.174-14.741-32c8.957-7.826,14.741-19.195,14.741-32V277.333z   M295.342,234.667H131.311c-1.992-7.268-3.311-14.365-3.311-21.333C128,166.281,166.281,128,213.333,128  s85.333,38.281,85.333,85.333C298.667,220.267,297.35,227.365,295.342,234.667z"/>
<g>
</g>
<g>
</g>
<g>
</g>
<g>
</g>
<g>
</g>
<g>
</g>
<g>
</g>
<g>
</g>
<g>
</g>
<g>
</g>
<g>
</g>
<g>
</g>
<g>
</g>
<g>
</g>
<g>
</g>
</svg>
