<?xml version="1.0" encoding="iso-8859-1"?>
<!-- Generator: Adobe Illustrator 19.0.0, SVG Export Plug-In . SVG Version: 6.00 Build 0)  -->
<svg xmlns="http://www.w3.org/2000/svg" xmlns:xlink="http://www.w3.org/1999/xlink" version="1.1" id="Capa_1" x="0px" y="0px" viewBox="0 0 469.333 469.333" style="enable-background:new 0 0 469.333 469.333;" xml:space="preserve">
<path style="fill:#303C42;" d="M469.333,319.997v-42.667c0-23.531-19.146-42.667-42.667-42.667h-86.452  c0.742-14.427,1.118-30.439,1.118-48.698V63.997c0-4.594-2.938-8.667-7.292-10.115l-160-53.333c-2.208-0.729-4.542-0.729-6.75,0  l-160,53.333C2.938,55.331,0,59.404,0,63.997v121.969c0,115.76,12.628,164.237,85.333,214.151v26.547  c0,23.531,19.146,42.667,42.667,42.667h298.667c23.521,0,42.667-19.135,42.667-42.667v-42.667c0-12.805-5.786-24.174-14.746-32  C463.547,344.172,469.333,332.802,469.333,319.997z"/>
<path style="fill:#01579B;" d="M319.652,213.331c0.219-8.547,0.348-17.572,0.348-27.365V71.685L170.667,21.904v191.427H319.652z"/>
<g>
	<path style="fill:#0288D1;" d="M170.667,21.904L21.333,71.685v114.281c0,9.697,0.116,18.691,0.303,27.365h149.03V21.904z"/>
	<path style="fill:#0288D1;" d="M319.652,213.331H170.667v21.333H318.84C319.201,227.966,319.46,220.823,319.652,213.331z"/>
</g>
<path style="fill:#01579B;" d="M21.637,213.331c1.828,84.611,13.982,123.016,64.792,161.348c2.018-8.995,6.938-16.816,13.651-22.681  c-8.96-7.826-14.746-19.195-14.746-32v-42.667c0-23.531,19.146-42.667,42.667-42.667h42.667v-21.333H21.637z"/>
<path style="fill:#E6E6E6;" d="M448,383.997v42.667c0,11.76-9.563,21.333-21.333,21.333H128c-11.771,0-21.333-9.573-21.333-21.333  v-42.667c0-11.76,9.563-21.333,21.333-21.333h298.667C438.438,362.664,448,372.237,448,383.997z"/>
<path style="opacity:0.1;enable-background:new    ;" d="M170.667,223.997H128c-29.417,0-53.333,23.927-53.333,53.333v42.667  c0,12.052,4.169,23.059,10.936,32c-3.461,4.572-6.212,9.697-8.104,15.212c2.965,2.487,5.651,4.995,8.93,7.469  c2.018-8.995,6.938-16.816,13.651-22.681c-8.96-7.826-14.746-19.195-14.746-32v-42.667c0-23.531,19.146-42.667,42.667-42.667h42.667  H318.84c0.181-3.349,0.272-7.107,0.406-10.667H170.667z"/>
<path style="fill:#E6E6E6;" d="M128,341.331c-11.771,0-21.333-9.573-21.333-21.333v-42.667c0-11.76,9.563-21.333,21.333-21.333  h298.667c11.771,0,21.333,9.573,21.333,21.333v42.667c0,11.76-9.563,21.333-21.333,21.333H128z"/>
<g>
	<path style="fill:#303C42;" d="M224,426.664c5.896,0,10.667-4.771,10.667-10.667v-21.333c0-5.896-4.771-10.667-10.667-10.667   c-5.896,0-10.667,4.771-10.667,10.667v21.333C213.333,421.893,218.104,426.664,224,426.664z"/>
	<path style="fill:#303C42;" d="M138.667,277.331c-5.896,0-10.667,4.771-10.667,10.667v21.333c0,5.896,4.771,10.667,10.667,10.667   s10.667-4.771,10.667-10.667v-21.333C149.333,282.102,144.563,277.331,138.667,277.331z"/>
	<path style="fill:#303C42;" d="M181.333,277.331c-5.896,0-10.667,4.771-10.667,10.667v21.333c0,5.896,4.771,10.667,10.667,10.667   c5.896,0,10.667-4.771,10.667-10.667v-21.333C192,282.102,187.229,277.331,181.333,277.331z"/>
	<path style="fill:#303C42;" d="M224,277.331c-5.896,0-10.667,4.771-10.667,10.667v21.333c0,5.896,4.771,10.667,10.667,10.667   c5.896,0,10.667-4.771,10.667-10.667v-21.333C234.667,282.102,229.896,277.331,224,277.331z"/>
	<circle style="fill:#303C42;" cx="405.333" cy="298.667" r="21.333"/>
	<circle style="fill:#303C42;" cx="341.333" cy="298.667" r="21.333"/>
	<path style="fill:#303C42;" d="M128,415.997c0,5.896,4.771,10.667,10.667,10.667s10.667-4.771,10.667-10.667v-21.333   c0-5.896-4.771-10.667-10.667-10.667S128,388.768,128,394.664V415.997z"/>
	<path style="fill:#303C42;" d="M181.333,426.664c5.896,0,10.667-4.771,10.667-10.667v-21.333c0-5.896-4.771-10.667-10.667-10.667   c-5.896,0-10.667,4.771-10.667,10.667v21.333C170.667,421.893,175.438,426.664,181.333,426.664z"/>
	<circle style="fill:#303C42;" cx="405.333" cy="405.333" r="21.333"/>
	<circle style="fill:#303C42;" cx="341.333" cy="405.333" r="21.333"/>
</g>
<linearGradient id="SVGID_1_" gradientUnits="userSpaceOnUse" x1="-68.7313" y1="617.6287" x2="-43.9377" y2="606.0634" gradientTransform="matrix(21.3333 0 0 -21.3333 1430.1112 13315.2227)">
	<stop offset="0" style="stop-color:#FFFFFF;stop-opacity:0.2"/>
	<stop offset="1" style="stop-color:#FFFFFF;stop-opacity:0"/>
</linearGradient>
<path style="fill:url(#SVGID_1_);" d="M469.333,319.997v-42.667c0-23.531-19.146-42.667-42.667-42.667h-86.452  c0.742-14.427,1.118-30.439,1.118-48.698V63.997c0-4.594-2.938-8.667-7.292-10.115l-160-53.333c-2.208-0.729-4.542-0.729-6.75,0  l-160,53.333C2.938,55.331,0,59.404,0,63.997v121.969c0,115.76,12.628,164.237,85.333,214.151v26.547  c0,23.531,19.146,42.667,42.667,42.667h298.667c23.521,0,42.667-19.135,42.667-42.667v-42.667c0-12.805-5.786-24.174-14.746-32  C463.547,344.172,469.333,332.802,469.333,319.997z"/>
<g>
</g>
<g>
</g>
<g>
</g>
<g>
</g>
<g>
</g>
<g>
</g>
<g>
</g>
<g>
</g>
<g>
</g>
<g>
</g>
<g>
</g>
<g>
</g>
<g>
</g>
<g>
</g>
<g>
</g>
</svg>
