<?xml version="1.0" encoding="iso-8859-1"?>
<!-- Generator: Adobe Illustrator 19.0.0, SVG Export Plug-In . SVG Version: 6.00 Build 0)  -->
<svg xmlns="http://www.w3.org/2000/svg" xmlns:xlink="http://www.w3.org/1999/xlink" version="1.1" id="Capa_1" x="0px" y="0px" viewBox="0 0 469.333 469.333" style="enable-background:new 0 0 469.333 469.333;" xml:space="preserve">
<path style="fill:#303C42;" d="M464.302,321.271l-1.738-2.81c-0.28-0.438-0.521-0.895-0.816-1.322l-88.164-142.535  c-9.792-15.823-26.75-25.271-45.365-25.271H141.115c-18.615,0-35.573,9.448-45.365,25.271L7.586,317.139  c-0.296,0.427-0.536,0.884-0.816,1.322l-1.738,2.81l0.158,0.098C1.986,327.353,0,334.082,0,341.333v85.333  c0,23.531,19.135,42.667,42.667,42.667h384c23.531,0,42.667-19.135,42.667-42.667v-85.333c0-7.251-1.986-13.98-5.189-19.965  L464.302,321.271z"/>
<path style="fill:#F2F2F2;" d="M114.721,186.658c5.875-9.5,16.052-15.167,27.219-15.167h187.104  c11.167,0,21.344,5.667,27.219,15.167l69.792,112.833H44.929L114.721,186.658z"/>
<path style="fill:#E6E6E6;" d="M448.825,427.492c0,11.76-9.573,21.333-21.333,21.333h-384c-11.76,0-21.333-9.573-21.333-21.333  v-85.333c0-11.76,9.573-21.333,21.333-21.333h384c11.76,0,21.333,9.573,21.333,21.333V427.492z"/>
<linearGradient id="SVGID_1_" gradientUnits="userSpaceOnUse" x1="-60.6776" y1="613.7489" x2="-48.3127" y2="601.384" gradientTransform="matrix(21.3333 0 0 -21.3333 1430.1112 13315.2227)">
	<stop offset="0" style="stop-color:#000000;stop-opacity:0.1"/>
	<stop offset="1" style="stop-color:#000000;stop-opacity:0"/>
</linearGradient>
<path style="fill:url(#SVGID_1_);" d="M427.492,320.825h-384c-3.12,0-6.034,0.749-8.708,1.958l126.042,126.042h266.667  c11.76,0,21.333-9.573,21.333-21.333v-85.333C448.825,330.398,439.252,320.825,427.492,320.825z"/>
<g>
	<path style="fill:#303C42;" d="M74.667,341.333C68.771,341.333,64,346.104,64,352v64c0,5.896,4.771,10.667,10.667,10.667   c5.896,0,10.667-4.771,10.667-10.667v-64C85.333,346.104,80.563,341.333,74.667,341.333z"/>
	<path style="fill:#303C42;" d="M117.333,341.333c-5.896,0-10.667,4.771-10.667,10.667v64c0,5.896,4.771,10.667,10.667,10.667   S128,421.896,128,416v-64C128,346.104,123.229,341.333,117.333,341.333z"/>
	<path style="fill:#303C42;" d="M160,341.333c-5.896,0-10.667,4.771-10.667,10.667v64c0,5.896,4.771,10.667,10.667,10.667   c5.896,0,10.667-4.771,10.667-10.667v-64C170.667,346.104,165.896,341.333,160,341.333z"/>
	<circle style="fill:#303C42;" cx="384" cy="384" r="21.333"/>
	<circle style="fill:#303C42;" cx="320" cy="384" r="21.333"/>
	<path style="fill:#303C42;" d="M75.492,342.158c-5.896,0-10.667,4.771-10.667,10.667v64c0,5.896,4.771,10.667,10.667,10.667   c5.896,0,10.667-4.771,10.667-10.667v-64C86.158,346.929,81.388,342.158,75.492,342.158z"/>
	<path style="fill:#303C42;" d="M42.667,85.333h384c23.531,0,42.667-19.135,42.667-42.667S450.198,0,426.667,0h-384   C19.135,0,0,19.135,0,42.667S19.135,85.333,42.667,85.333z"/>
</g>
<path style="fill:#F2F2F2;" d="M448,42.667C448,54.427,438.427,64,426.667,64H320V21.333h106.667  C438.427,21.333,448,30.906,448,42.667z"/>
<path style="fill:#0288D1;" d="M42.667,21.333h256V64h-256c-11.76,0-21.333-9.573-21.333-21.333S30.906,21.333,42.667,21.333z"/>
<path style="opacity:0.1;enable-background:new    ;" d="M448,42.667C448,54.427,438.427,64,426.667,64H320V42.667H448z"/>
<path style="opacity:0.1;enable-background:new    ;" d="M298.667,64h-256c-11.76,0-21.333-9.573-21.333-21.333h277.333V64z"/>
<linearGradient id="SVGID_2_" gradientUnits="userSpaceOnUse" x1="-68.6888" y1="619.0512" x2="-43.3842" y2="607.2509" gradientTransform="matrix(21.3333 0 0 -21.3333 1430.1112 13315.2227)">
	<stop offset="0" style="stop-color:#FFFFFF;stop-opacity:0.2"/>
	<stop offset="1" style="stop-color:#FFFFFF;stop-opacity:0"/>
</linearGradient>
<path style="fill:url(#SVGID_2_);" d="M464.302,321.271l-1.738-2.81c-0.28-0.438-0.521-0.895-0.816-1.322l-88.164-142.535  c-9.792-15.823-26.75-25.271-45.365-25.271H141.115c-18.615,0-35.573,9.448-45.365,25.271L7.586,317.139  c-0.296,0.427-0.536,0.884-0.816,1.322l-1.738,2.81l0.158,0.098C1.986,327.353,0,334.082,0,341.333v85.333  c0,23.531,19.135,42.667,42.667,42.667h384c23.531,0,42.667-19.135,42.667-42.667v-85.333c0-7.251-1.986-13.98-5.189-19.965  L464.302,321.271z M42.667,85.333h384c23.531,0,42.667-19.135,42.667-42.667S450.198,0,426.667,0h-384C19.135,0,0,19.135,0,42.667  S19.135,85.333,42.667,85.333z"/>
<g>
</g>
<g>
</g>
<g>
</g>
<g>
</g>
<g>
</g>
<g>
</g>
<g>
</g>
<g>
</g>
<g>
</g>
<g>
</g>
<g>
</g>
<g>
</g>
<g>
</g>
<g>
</g>
<g>
</g>
</svg>
