<?xml version="1.0" encoding="iso-8859-1"?>
<!-- Generator: Adobe Illustrator 19.0.0, SVG Export Plug-In . SVG Version: 6.00 Build 0)  -->
<svg xmlns="http://www.w3.org/2000/svg" xmlns:xlink="http://www.w3.org/1999/xlink" version="1.1" id="Capa_1" x="0px" y="0px" viewBox="0 0 469.333 469.333" style="enable-background:new 0 0 469.333 469.333;" xml:space="preserve">
<path style="fill:#303C42;" d="M384,192v-42.667c0-10.348-3.849-19.719-9.996-27.113l0.163-0.137L287.625,19.031  C277.458,6.938,262.573,0,246.781,0H137.219c-15.792,0-30.677,6.938-40.844,19.031L9.833,122.083l0.163,0.137  C3.849,129.615,0,138.986,0,149.333V192c0,12.805,5.784,24.174,14.741,32C5.784,231.826,0,243.195,0,256v42.667  c0,23.531,19.135,42.667,42.667,42.667h298.667c23.531,0,42.667-19.135,42.667-42.667V256c0-12.805-5.784-24.174-14.741-32  C378.216,216.174,384,204.805,384,192z"/>
<path style="fill:#F2F2F2;" d="M112.708,32.76c6.104-7.26,15.031-11.427,24.51-11.427h109.563c9.479,0,18.406,4.167,24.51,11.427  l62.065,73.906H50.643L112.708,32.76z"/>
<g>
	<path style="fill:#E6E6E6;" d="M362.667,256v42.667c0,11.76-9.573,21.333-21.333,21.333H42.667   c-11.76,0-21.333-9.573-21.333-21.333V256c0-11.76,9.573-21.333,21.333-21.333h298.667C353.094,234.667,362.667,244.24,362.667,256   z"/>
	<path style="fill:#E6E6E6;" d="M42.667,213.333c-11.76,0-21.333-9.573-21.333-21.333v-42.667c0-11.76,9.573-21.333,21.333-21.333   h298.667c11.76,0,21.333,9.573,21.333,21.333V192c0,11.76-9.573,21.333-21.333,21.333H42.667z"/>
</g>
<path style="fill:#303C42;" d="M53.333,192c-5.896,0-10.667-4.771-10.667-10.667V160c0-5.896,4.771-10.667,10.667-10.667  S64,154.104,64,160v21.333C64,187.229,59.229,192,53.333,192z"/>
<linearGradient id="SVGID_1_" gradientUnits="userSpaceOnUse" x1="-61.8664" y1="621.7216" x2="-49.9585" y2="609.8156" gradientTransform="matrix(21.3333 0 0 -21.3333 1430.1112 13315.2227)">
	<stop offset="0" style="stop-color:#000000;stop-opacity:0.1"/>
	<stop offset="1" style="stop-color:#000000;stop-opacity:0"/>
</linearGradient>
<path style="fill:url(#SVGID_1_);" d="M341.333,234.667H129.501L214.835,320h126.499c11.76,0,21.333-9.573,21.333-21.333V256  C362.667,244.24,353.094,234.667,341.333,234.667z M341.333,128H42.667c-5.492,0-10.396,2.228-14.181,5.651l79.682,79.682h233.165  c11.76,0,21.333-9.573,21.333-21.333v-42.667C362.667,137.573,353.094,128,341.333,128z"/>
<g>
	<path style="fill:#303C42;" d="M96,192c-5.896,0-10.667-4.771-10.667-10.667V160c0-5.896,4.771-10.667,10.667-10.667   c5.896,0,10.667,4.771,10.667,10.667v21.333C106.667,187.229,101.896,192,96,192z"/>
	<path style="fill:#303C42;" d="M138.667,192c-5.896,0-10.667-4.771-10.667-10.667V160c0-5.896,4.771-10.667,10.667-10.667   s10.667,4.771,10.667,10.667v21.333C149.333,187.229,144.563,192,138.667,192z"/>
	<path style="fill:#303C42;" d="M320,192c-11.76,0-21.333-9.573-21.333-21.333s9.573-21.333,21.333-21.333   c11.76,0,21.333,9.573,21.333,21.333S331.76,192,320,192z"/>
	<path style="fill:#303C42;" d="M256,192c-11.76,0-21.333-9.573-21.333-21.333s9.573-21.333,21.333-21.333   c11.76,0,21.333,9.573,21.333,21.333S267.76,192,256,192z"/>
	<path style="fill:#303C42;" d="M53.333,298.667c-5.896,0-10.667-4.771-10.667-10.667v-21.333c0-5.896,4.771-10.667,10.667-10.667   S64,260.771,64,266.667V288C64,293.896,59.229,298.667,53.333,298.667z"/>
	<path style="fill:#303C42;" d="M96,298.667c-5.896,0-10.667-4.771-10.667-10.667v-21.333C85.333,260.771,90.104,256,96,256   c5.896,0,10.667,4.771,10.667,10.667V288C106.667,293.896,101.896,298.667,96,298.667z"/>
	<path style="fill:#303C42;" d="M138.667,298.667c-5.896,0-10.667-4.771-10.667-10.667v-21.333c0-5.896,4.771-10.667,10.667-10.667   s10.667,4.771,10.667,10.667V288C149.333,293.896,144.563,298.667,138.667,298.667z"/>
	<path style="fill:#303C42;" d="M320,298.667c-11.76,0-21.333-9.573-21.333-21.333S308.24,256,320,256   c11.76,0,21.333,9.573,21.333,21.333S331.76,298.667,320,298.667z"/>
	<path style="fill:#303C42;" d="M256,298.667c-11.76,0-21.333-9.573-21.333-21.333S244.24,256,256,256   c11.76,0,21.333,9.573,21.333,21.333S267.76,298.667,256,298.667z"/>
</g>
<g>
	<path style="fill:#1E88E5;" d="M352,234.667c-2.729,0-5.458,1.042-7.542,3.125c-4.167,4.167-4.167,10.917,0,15.083l21.333,21.333   c2.01,2.01,4.729,3.125,7.542,3.125c0.49,0,0.99-0.031,1.49-0.104c3.313-0.469,6.219-2.469,7.844-5.396l4.888-8.831   C422.905,277.177,448,311.643,448,352c0,52.938-43.063,96-96,96s-96-43.063-96-96c0-38.073,22.615-72.573,57.615-87.896   c5.396-2.365,7.854-8.656,5.49-14.052c-2.354-5.385-8.604-7.865-14.052-5.49c-42.76,18.719-70.385,60.885-70.385,107.438   c0,64.698,52.635,117.333,117.333,117.333S469.333,416.698,469.333,352S416.698,234.667,352,234.667z"/>
	<path style="fill:#1E88E5;" d="M384,394.667c-2.729,0-5.458-1.042-7.542-3.125l-32-32c-2-2-3.125-4.708-3.125-7.542v-64   c0-5.896,4.771-10.667,10.667-10.667c5.896,0,10.667,4.771,10.667,10.667v59.583l28.875,28.875c4.167,4.167,4.167,10.917,0,15.083   C389.458,393.625,386.729,394.667,384,394.667z"/>
</g>
<linearGradient id="SVGID_2_" gradientUnits="userSpaceOnUse" x1="-66.362" y1="619.0266" x2="-44.0219" y2="608.6076" gradientTransform="matrix(21.3333 0 0 -21.3333 1430.1112 13315.2227)">
	<stop offset="0" style="stop-color:#FFFFFF;stop-opacity:0.2"/>
	<stop offset="1" style="stop-color:#FFFFFF;stop-opacity:0"/>
</linearGradient>
<path style="fill:url(#SVGID_2_);" d="M380.007,238.186c-2.566-5.441-6.255-10.262-10.747-14.186  c8.957-7.826,14.741-19.195,14.741-32v-42.667c0-10.348-3.849-19.719-9.996-27.113l0.163-0.137L287.625,19.031  C277.458,6.938,262.573,0,246.781,0H137.219c-15.792,0-30.677,6.938-40.844,19.031L9.833,122.083l0.163,0.137  C3.849,129.615,0,138.986,0,149.333V192c0,12.805,5.784,24.174,14.741,32C5.784,231.826,0,243.195,0,256v42.667  c0,23.531,19.135,42.667,42.667,42.667h192.788c-0.326,3.544-0.788,7.061-0.788,10.667c0,64.698,52.635,117.333,117.333,117.333  S469.333,416.698,469.333,352C469.333,296.969,431.202,250.796,380.007,238.186z M352,448c-52.938,0-96-43.063-96-96  c0-3.605,0.391-7.138,0.788-10.667h84.546V352c0,2.833,1.125,5.542,3.125,7.542l32,32c2.083,2.083,4.813,3.125,7.542,3.125  c2.729,0,5.458-1.042,7.542-3.125c4.167-4.167,4.167-10.917,0-15.083l-28.875-28.875V335.4C375.358,328,384,314.392,384,298.667  v-29.242l3.555-6.422C422.905,277.177,448,311.643,448,352C448,404.938,404.938,448,352,448z"/>
<g>
</g>
<g>
</g>
<g>
</g>
<g>
</g>
<g>
</g>
<g>
</g>
<g>
</g>
<g>
</g>
<g>
</g>
<g>
</g>
<g>
</g>
<g>
</g>
<g>
</g>
<g>
</g>
<g>
</g>
</svg>
