<?xml version="1.0" encoding="iso-8859-1"?>
<!-- Generator: Adobe Illustrator 19.0.0, SVG Export Plug-In . SVG Version: 6.00 Build 0)  -->
<svg xmlns="http://www.w3.org/2000/svg" xmlns:xlink="http://www.w3.org/1999/xlink" version="1.1" id="Capa_1" x="0px" y="0px" viewBox="0 0 512 512" style="enable-background:new 0 0 512 512;" xml:space="preserve">
<path style="fill:#303C42;" d="M512,234.667c0-35.292-23.917-64-53.333-64c-12.917,0-30.958,5.594-47,14.573  c3.354-40.938,9.708-79.635,14.458-104.885c1.729-9.198-0.729-18.625-6.75-25.875c-6.208-7.51-15.458-11.813-25.354-11.813H301.5  c-7.792,0-14.958,4.229-18.667,11.052c-3.75,6.844-3.438,15.188,0.813,21.792c9.854,15.302,15.021,32.625,15.021,41.823  c0,17.646-19.146,32-42.667,32s-42.667-14.354-42.667-32c0-9.198,5.167-26.521,15.042-41.844c4.229-6.583,4.542-14.927,0.792-21.771  c-3.708-6.823-10.875-11.052-18.667-11.052h-92.521c-9.896,0-19.146,4.302-25.354,11.813c-6.021,7.25-8.479,16.677-6.75,25.875  c4.75,25.25,11.104,63.948,14.521,104.917c-16.104-9.01-34.146-14.604-47.063-14.604c-29.417,0-53.333,28.708-53.333,64  s23.917,64,53.333,64c12.917,0,30.958-5.594,47-14.583c-3.354,40.948-9.708,79.646-14.458,104.896  c-1.729,9.198,0.729,18.625,6.75,25.875c6.229,7.51,15.458,11.813,25.354,11.813H128c0,23.531,19.146,42.667,42.667,42.667h298.667  c23.521,0,42.667-19.135,42.667-42.667V384c0-12.805-5.786-24.174-14.746-32c8.96-7.826,14.746-19.195,14.746-32v-42.667  c0-6.689-1.684-12.94-4.439-18.579C510.273,250.897,512,242.861,512,234.667z"/>
<path style="fill:#0288D1;" d="M128,384v21.333h-10.021c-3.521,0-6.792-1.5-8.938-4.104c-1.146-1.375-2.958-4.292-2.208-8.313  c4.854-25.75,11.354-65.229,14.75-107.083c0.667-7.885-3.063-15.438-9.708-19.719c-6.625-4.281-15.042-4.49-21.896-0.677  C75.292,273.656,61,277.333,53.333,277.333c-17.646,0-32-19.135-32-42.667S35.688,192,53.333,192  c7.667,0,21.958,3.677,36.646,11.885c6.833,3.833,15.208,3.604,21.896-0.667c6.646-4.281,10.375-11.844,9.708-19.708  c-3.417-41.865-9.896-81.344-14.75-107.094c-0.75-4.021,1.063-6.938,2.208-8.313c2.146-2.615,5.417-4.104,8.938-4.104l92.458-0.052  C199.417,81.052,192,102.51,192,117.333c0,29.406,28.708,53.333,64,53.333s64-23.927,64-53.333c0-14.823-7.417-36.281-18.5-53.333  h92.521c3.521,0,6.792,1.49,8.938,4.104c1.146,1.375,2.958,4.292,2.208,8.313c-4.854,25.75-11.333,65.229-14.75,107.073  c-0.667,7.885,3.063,15.448,9.708,19.729c6.646,4.26,15.021,4.542,21.896,0.677C436.708,195.677,451,192,458.667,192  c17.646,0,32,19.135,32,42.667c0,1.885-0.378,3.745-0.585,5.617c-6.169-3.471-13.181-5.617-20.749-5.617H170.667  c-23.521,0-42.667,19.135-42.667,42.667V320c0,12.805,5.786,24.174,14.746,32C133.786,359.826,128,371.195,128,384z"/>
<path style="opacity:0.1;enable-background:new    ;" d="M395.865,76.417c-4.854,25.75-11.333,65.229-14.75,107.073  c-0.667,7.885,3.063,15.448,9.708,19.729c5,3.204,10.977,4.151,16.559,2.781c-2.526-0.523-5.003-1.336-7.257-2.781  c-6.646-4.281-10.375-11.844-9.708-19.729c3.417-41.844,9.896-81.323,14.75-107.073c0.75-4.021-1.063-6.938-2.208-8.313  C400.813,65.49,397.542,64,394.021,64h-9.302c3.521,0,6.792,1.49,8.938,4.104C394.802,69.479,396.615,72.396,395.865,76.417z"/>
<path style="opacity:0.1;enable-background:new    ;" d="M458.667,192c-1.473,0-3.379,0.263-5.296,0.54  c15.74,2.661,27.993,20.424,27.993,42.126c0,0.637-0.133,1.264-0.198,1.897c3.109,0.952,6.124,2.15,8.915,3.72  c0.207-1.872,0.585-3.732,0.585-5.617C490.667,211.135,476.313,192,458.667,192z"/>
<path style="opacity:0.2;fill:#FFFFFF;enable-background:new    ;" d="M37.359,250.693c0-23.531,14.354-42.667,32-42.667  c7.667,0,21.958,3.677,36.646,11.885c6.833,3.833,15.208,3.604,21.896-0.667c6.646-4.281,10.375-11.844,9.708-19.708  c-3.417-41.865-9.896-81.344-14.75-107.094c-0.75-4.021,1.063-6.938,2.208-8.313c2.146-2.615,5.417-4.104,8.938-4.104l67.841-0.038  c2.53-5.533,5.333-10.984,8.591-16.04L117.979,64c-3.521,0-6.792,1.49-8.938,4.104c-1.146,1.375-2.958,4.292-2.208,8.313  c4.854,25.75,11.333,65.229,14.75,107.094c0.667,7.865-3.063,15.427-9.708,19.708c-6.688,4.271-15.063,4.5-21.896,0.667  C75.292,195.677,61,192,53.333,192c-17.646,0-32,19.135-32,42.667c0,18.702,9.125,34.449,21.704,40.199  C39.473,267.986,37.359,259.672,37.359,250.693z"/>
<g>
	<path style="fill:#E6E6E6;" d="M490.667,384v42.667c0,11.76-9.563,21.333-21.333,21.333H170.667   c-11.771,0-21.333-9.573-21.333-21.333V384c0-11.76,9.563-21.333,21.333-21.333h298.667   C481.104,362.667,490.667,372.24,490.667,384z"/>
	<path style="fill:#E6E6E6;" d="M170.667,341.333c-11.771,0-21.333-9.573-21.333-21.333v-42.667c0-11.76,9.563-21.333,21.333-21.333   h298.667c11.771,0,21.333,9.573,21.333,21.333V320c0,11.76-9.563,21.333-21.333,21.333H170.667z"/>
</g>
<path style="opacity:0.2;fill:#FFFFFF;enable-background:new    ;" d="M170.667,320v-42.667c0-11.76,8.367-21.333,18.667-21.333  h-18.667c-11.771,0-21.333,9.573-21.333,21.333V320c0,11.76,9.563,21.333,21.333,21.333h18.667  C179.034,341.333,170.667,331.76,170.667,320z"/>
<path style="opacity:0.1;enable-background:new    ;" d="M469.333,256h-18.667c10.299,0,18.667,9.573,18.667,21.333V320  c0,11.76-8.367,21.333-18.667,21.333h18.667c11.771,0,21.333-9.573,21.333-21.333v-42.667C490.667,265.573,481.104,256,469.333,256z  "/>
<g>
	<path style="fill:#303C42;" d="M224,277.333c-5.896,0-10.667,4.771-10.667,10.667v21.333c0,5.896,4.771,10.667,10.667,10.667   c5.896,0,10.667-4.771,10.667-10.667V288C234.667,282.104,229.896,277.333,224,277.333z"/>
	<path style="fill:#303C42;" d="M266.667,277.333c-5.896,0-10.667,4.771-10.667,10.667v21.333c0,5.896,4.771,10.667,10.667,10.667   c5.896,0,10.667-4.771,10.667-10.667V288C277.333,282.104,272.563,277.333,266.667,277.333z"/>
	<path style="fill:#303C42;" d="M448,277.333c-11.771,0-21.333,9.573-21.333,21.333c0,11.76,9.563,21.333,21.333,21.333   c11.771,0,21.333-9.573,21.333-21.333C469.333,286.906,459.771,277.333,448,277.333z"/>
	<path style="fill:#303C42;" d="M384,277.333c-11.771,0-21.333,9.573-21.333,21.333c0,11.76,9.563,21.333,21.333,21.333   c11.771,0,21.333-9.573,21.333-21.333C405.333,286.906,395.771,277.333,384,277.333z"/>
	<path style="fill:#303C42;" d="M224,426.667c5.896,0,10.667-4.771,10.667-10.667v-21.333c0-5.896-4.771-10.667-10.667-10.667   c-5.896,0-10.667,4.771-10.667,10.667V416C213.333,421.896,218.104,426.667,224,426.667z"/>
	<path style="fill:#303C42;" d="M266.667,426.667c5.896,0,10.667-4.771,10.667-10.667v-21.333c0-5.896-4.771-10.667-10.667-10.667   c-5.896,0-10.667,4.771-10.667,10.667V416C256,421.896,260.771,426.667,266.667,426.667z"/>
	<path style="fill:#303C42;" d="M448,426.667c11.771,0,21.333-9.573,21.333-21.333S459.771,384,448,384   c-11.771,0-21.333,9.573-21.333,21.333S436.229,426.667,448,426.667z"/>
	<path style="fill:#303C42;" d="M384,426.667c11.771,0,21.333-9.573,21.333-21.333S395.771,384,384,384   c-11.771,0-21.333,9.573-21.333,21.333S372.229,426.667,384,426.667z"/>
</g>
<path style="opacity:0.2;fill:#FFFFFF;enable-background:new    ;" d="M170.667,426.667V384c0-11.76,8.367-21.333,18.667-21.333  h-18.667c-11.771,0-21.333,9.573-21.333,21.333v42.667c0,11.76,9.563,21.333,21.333,21.333h18.667  C179.034,448,170.667,438.427,170.667,426.667z"/>
<path style="opacity:0.1;enable-background:new    ;" d="M469.333,362.667h-18.667c10.299,0,18.667,9.573,18.667,21.333v42.667  c0,11.76-8.367,21.333-18.667,21.333h18.667c11.771,0,21.333-9.573,21.333-21.333V384  C490.667,372.24,481.104,362.667,469.333,362.667z"/>
<g>
	<path style="fill:#303C42;" d="M181.333,277.333c-5.896,0-10.667,4.771-10.667,10.667v21.333c0,5.896,4.771,10.667,10.667,10.667   c5.896,0,10.667-4.771,10.667-10.667V288C192,282.104,187.229,277.333,181.333,277.333z"/>
	<path style="fill:#303C42;" d="M170.667,416c0,5.896,4.771,10.667,10.667,10.667c5.896,0,10.667-4.771,10.667-10.667v-21.333   c0-5.896-4.771-10.667-10.667-10.667c-5.896,0-10.667,4.771-10.667,10.667V416z"/>
</g>
<linearGradient id="SVGID_1_" gradientUnits="userSpaceOnUse" x1="-45.0303" y1="639.8534" x2="-21.4003" y2="628.8354" gradientTransform="matrix(21.3333 0 0 -21.3333 996.3334 13791.667)">
	<stop offset="0" style="stop-color:#FFFFFF;stop-opacity:0.2"/>
	<stop offset="1" style="stop-color:#FFFFFF;stop-opacity:0"/>
</linearGradient>
<path style="fill:url(#SVGID_1_);" d="M512,234.667c0-35.292-23.917-64-53.333-64c-12.917,0-30.958,5.594-47,14.573  c3.354-40.938,9.708-79.635,14.458-104.885c1.729-9.198-0.729-18.625-6.75-25.875c-6.208-7.51-15.458-11.813-25.354-11.813H301.5  c-7.792,0-14.958,4.229-18.667,11.052c-3.75,6.844-3.438,15.188,0.813,21.792c9.854,15.302,15.021,32.625,15.021,41.823  c0,17.646-19.146,32-42.667,32s-42.667-14.354-42.667-32c0-9.198,5.167-26.521,15.042-41.844c4.229-6.583,4.542-14.927,0.792-21.771  c-3.708-6.823-10.875-11.052-18.667-11.052h-92.521c-9.896,0-19.146,4.302-25.354,11.813c-6.021,7.25-8.479,16.677-6.75,25.875  c4.75,25.25,11.104,63.948,14.521,104.917c-16.104-9.01-34.146-14.604-47.063-14.604c-29.417,0-53.333,28.708-53.333,64  s23.917,64,53.333,64c12.917,0,30.958-5.594,47-14.583c-3.354,40.948-9.708,79.646-14.458,104.896  c-1.729,9.198,0.729,18.625,6.75,25.875c6.229,7.51,15.458,11.813,25.354,11.813H128c0,23.531,19.146,42.667,42.667,42.667h298.667  c23.521,0,42.667-19.135,42.667-42.667V384c0-12.805-5.786-24.174-14.746-32c8.96-7.826,14.746-19.195,14.746-32v-42.667  c0-6.689-1.684-12.94-4.439-18.579C510.273,250.897,512,242.861,512,234.667z"/>
<g>
</g>
<g>
</g>
<g>
</g>
<g>
</g>
<g>
</g>
<g>
</g>
<g>
</g>
<g>
</g>
<g>
</g>
<g>
</g>
<g>
</g>
<g>
</g>
<g>
</g>
<g>
</g>
<g>
</g>
</svg>
