<?xml version="1.0" encoding="iso-8859-1"?>
<!-- Generator: Adobe Illustrator 19.0.0, SVG Export Plug-In . SVG Version: 6.00 Build 0)  -->
<svg xmlns="http://www.w3.org/2000/svg" xmlns:xlink="http://www.w3.org/1999/xlink" version="1.1" id="Capa_1" x="0px" y="0px" viewBox="0 0 512 512" style="enable-background:new 0 0 512 512;" xml:space="preserve">
<path style="fill:#303C42;" d="M234.667,0C118.052,0,0,25.646,0,74.667v320c0,49.021,118.052,74.667,234.667,74.667  s234.667-25.646,234.667-74.667v-320C469.333,25.646,351.281,0,234.667,0z"/>
<path style="fill:#546E7A;" d="M234.667,21.333C364.896,21.333,448,52.917,448,74.667S364.896,128,234.667,128  S21.333,96.417,21.333,74.667S104.438,21.333,234.667,21.333z"/>
<linearGradient id="SVGID_1_" gradientUnits="userSpaceOnUse" x1="-43.955" y1="646.8323" x2="-27.4512" y2="639.1364" gradientTransform="matrix(21.3333 0 0 -21.3333 996.3334 13791.667)">
	<stop offset="0" style="stop-color:#FFFFFF;stop-opacity:0.2"/>
	<stop offset="1" style="stop-color:#FFFFFF;stop-opacity:0"/>
</linearGradient>
<path style="fill:url(#SVGID_1_);" d="M234.667,21.333C364.896,21.333,448,52.917,448,74.667S364.896,128,234.667,128  S21.333,96.417,21.333,74.667S104.438,21.333,234.667,21.333z"/>
<g>
	<path style="fill:#546E7A;" d="M234.667,448c-130.229,0-213.333-31.583-213.333-53.333v-73.651   c39.161,27.44,126.6,41.651,213.333,41.651S408.839,348.456,448,321.016v73.651C448,416.417,364.896,448,234.667,448z"/>
	<path style="fill:#546E7A;" d="M234.667,341.333c-130.229,0-213.333-31.583-213.333-53.333v-73.651   C60.495,241.789,147.934,256,234.667,256S408.839,241.789,448,214.349V288C448,309.75,364.896,341.333,234.667,341.333z"/>
	<path style="fill:#546E7A;" d="M234.667,234.667c-130.229,0-213.333-31.583-213.333-53.333v-73.651   c39.161,27.44,126.6,41.651,213.333,41.651S408.839,135.122,448,107.682v73.651C448,203.083,364.896,234.667,234.667,234.667z"/>
</g>
<linearGradient id="SVGID_2_" gradientUnits="userSpaceOnUse" x1="-40.7037" y1="646.4365" x2="-23.8645" y2="629.5984" gradientTransform="matrix(21.3333 0 0 -21.3333 996.3334 13791.667)">
	<stop offset="0" style="stop-color:#000000;stop-opacity:0.1"/>
	<stop offset="1" style="stop-color:#000000;stop-opacity:0"/>
</linearGradient>
<path style="fill:url(#SVGID_2_);" d="M351.863,438.212C412.518,427.148,448,408.844,448,394.667v-73.651  c-33.036,23.148-100.501,36.759-172.845,40.488L351.863,438.212z M166.613,252.962l88.069,88.069  C373.305,338.001,448,308.609,448,288v-73.651C408.839,241.789,321.4,256,234.667,256C211.706,256,188.764,254.936,166.613,252.962z   M234.667,149.333c-86.733,0-174.172-14.211-213.333-41.651l121.148,121.148c27.072,3.613,57.944,5.836,92.185,5.836  c130.229,0,213.333-31.583,213.333-53.333v-73.651C408.839,135.122,321.4,149.333,234.667,149.333z"/>
<circle style="fill:#303C42;" cx="394.667" cy="394.667" r="117.333"/>
<circle style="fill:#E6E6E6;" cx="394.667" cy="394.667" r="96"/>
<g>
	<path style="fill:#303C42;" d="M368.583,382.208c4.906-3.271,6.229-9.885,2.958-14.792c-3.271-4.917-9.896-6.229-14.792-2.958   l-9.906,6.604c8.729-17.604,26.885-29.729,47.823-29.729c17.75,0,34.281,8.792,44.24,23.521c3.271,4.885,9.948,6.167,14.802,2.865   c4.885-3.292,6.167-9.927,2.865-14.802C442.656,332.302,419.51,320,394.667,320C353.5,320,320,353.5,320,394.667   c0,3.938,2.167,7.552,5.635,9.406c1.573,0.844,3.302,1.26,5.031,1.26c2.073,0,4.135-0.604,5.917-1.792L368.583,382.208z"/>
	<path style="fill:#303C42;" d="M463.698,385.26c-3.448-1.854-7.688-1.656-10.948,0.531l-32,21.333   c-4.906,3.271-6.229,9.885-2.958,14.792c3.25,4.896,9.865,6.198,14.792,2.958l9.906-6.604C433.76,435.875,415.604,448,394.667,448   c-17.75,0-34.281-8.792-44.24-23.521c-3.281-4.885-9.938-6.167-14.802-2.865c-4.885,3.292-6.167,9.927-2.865,14.802   c13.917,20.615,37.063,32.917,61.906,32.917c41.167,0,74.667-33.5,74.667-74.667C469.333,390.729,467.167,387.115,463.698,385.26z"/>
</g>
<linearGradient id="SVGID_3_" gradientUnits="userSpaceOnUse" x1="-47.7317" y1="641.0927" x2="-21.6854" y2="628.9485" gradientTransform="matrix(21.3333 0 0 -21.3333 996.3334 13791.667)">
	<stop offset="0" style="stop-color:#FFFFFF;stop-opacity:0.2"/>
	<stop offset="1" style="stop-color:#FFFFFF;stop-opacity:0"/>
</linearGradient>
<path style="fill:url(#SVGID_3_);" d="M469.333,304.228V74.667C469.333,25.646,351.281,0,234.667,0S0,25.646,0,74.667v320  c0,49.021,118.052,74.667,234.667,74.667c22.702,0,45.428-1.003,67.357-2.93C323.507,494.083,356.996,512,394.667,512  C459.365,512,512,459.365,512,394.667C512,358.31,495.376,325.767,469.333,304.228z"/>
<g>
</g>
<g>
</g>
<g>
</g>
<g>
</g>
<g>
</g>
<g>
</g>
<g>
</g>
<g>
</g>
<g>
</g>
<g>
</g>
<g>
</g>
<g>
</g>
<g>
</g>
<g>
</g>
<g>
</g>
</svg>
