<?xml version="1.0" encoding="iso-8859-1"?>
<!-- Generator: Adobe Illustrator 19.0.0, SVG Export Plug-In . SVG Version: 6.00 Build 0)  -->
<svg xmlns="http://www.w3.org/2000/svg" xmlns:xlink="http://www.w3.org/1999/xlink" version="1.1" id="Capa_1" x="0px" y="0px" viewBox="0 0 512.552 512.552" style="enable-background:new 0 0 512.552 512.552;" xml:space="preserve">
<path style="fill:#303C42;" d="M234.943,0C118.328,0,0.276,25.646,0.276,74.667v320c0,49.021,118.052,74.667,234.667,74.667  s234.667-25.646,234.667-74.667v-320C469.609,25.646,351.557,0,234.943,0z"/>
<path style="fill:#546E7A;" d="M234.943,21.333c130.229,0,213.333,31.583,213.333,53.333S365.172,128,234.943,128  S21.609,96.417,21.609,74.667S104.714,21.333,234.943,21.333z"/>
<linearGradient id="SVGID_1_" gradientUnits="userSpaceOnUse" x1="-43.679" y1="647.1213" x2="-27.1752" y2="639.4254" gradientTransform="matrix(21.3333 0 0 -21.3333 990.7205 13797.832)">
	<stop offset="0" style="stop-color:#FFFFFF;stop-opacity:0.2"/>
	<stop offset="1" style="stop-color:#FFFFFF;stop-opacity:0"/>
</linearGradient>
<path style="fill:url(#SVGID_1_);" d="M234.943,21.333c130.229,0,213.333,31.583,213.333,53.333S365.172,128,234.943,128  S21.609,96.417,21.609,74.667S104.714,21.333,234.943,21.333z"/>
<g>
	<path style="fill:#546E7A;" d="M234.943,448c-130.229,0-213.333-31.583-213.333-53.333v-73.651   c39.161,27.44,126.6,41.651,213.333,41.651s174.172-14.211,213.333-41.651v73.651C448.276,416.417,365.172,448,234.943,448z"/>
	<path style="fill:#546E7A;" d="M234.943,341.333c-130.229,0-213.333-31.583-213.333-53.333v-73.651   C60.771,241.789,148.21,256,234.943,256s174.172-14.211,213.333-41.651V288C448.276,309.75,365.172,341.333,234.943,341.333z"/>
	<path style="fill:#546E7A;" d="M234.943,234.667c-130.229,0-213.333-31.583-213.333-53.333v-73.651   c39.161,27.44,126.6,41.651,213.333,41.651s174.172-14.211,213.333-41.651v73.651C448.276,203.083,365.172,234.667,234.943,234.667   z"/>
</g>
<linearGradient id="SVGID_2_" gradientUnits="userSpaceOnUse" x1="-40.4276" y1="646.7255" x2="-23.5884" y2="629.8873" gradientTransform="matrix(21.3333 0 0 -21.3333 990.7205 13797.832)">
	<stop offset="0" style="stop-color:#000000;stop-opacity:0.1"/>
	<stop offset="1" style="stop-color:#000000;stop-opacity:0"/>
</linearGradient>
<path style="fill:url(#SVGID_2_);" d="M352.139,438.212c60.655-11.064,96.137-29.368,96.137-43.546v-73.651  c-33.036,23.148-100.501,36.759-172.845,40.488L352.139,438.212z M166.889,252.962l88.069,88.069  c118.622-3.03,193.318-32.422,193.318-53.031v-73.651C409.115,241.789,321.676,256,234.943,256  C211.982,256,189.04,254.936,166.889,252.962z M234.943,149.333c-86.733,0-174.172-14.211-213.333-41.651l121.148,121.148  c27.072,3.613,57.944,5.836,92.185,5.836c130.229,0,213.333-31.583,213.333-53.333v-73.651  C409.115,135.122,321.676,149.333,234.943,149.333z"/>
<path style="fill:#303C42;" d="M411.776,511.552c1.427,0.667,2.958,1,4.5,1c1.542,0,3.073-0.333,4.5-1  c79.49-37.021,91.5-64.448,91.5-139.521v-55.656c0-4.615-2.969-8.708-7.365-10.146l-85.333-27.823c-2.146-0.688-4.458-0.688-6.604,0  l-85.333,27.823c-4.396,1.438-7.365,5.531-7.365,10.146v55.656C320.276,447.104,332.286,474.531,411.776,511.552z"/>
<path style="fill:#0288D1;" d="M416.276,299.219l-74.667,24.344v47.917c0,8.44,0.137,16.109,0.503,23.188h74.164V299.219z"/>
<path style="fill:#01579B;" d="M342.112,394.667c2.448,47.444,15.663,67.001,74.164,94.875v-94.875H342.112z"/>
<path style="fill:#0288D1;" d="M416.276,394.667v94.875c58.501-27.874,71.716-47.431,74.164-94.875H416.276z"/>
<path style="opacity:0.1;enable-background:new    ;" d="M489.582,394.667c-3.879,40.471-19.02,48.801-73.306,74.667  c-54.286-25.866-69.427-34.195-73.306-74.667h-0.858c2.448,47.444,15.663,67.001,74.164,94.875  c58.501-27.874,71.716-47.431,74.164-94.875H489.582z"/>
<path style="fill:#01579B;" d="M490.44,394.667c0.366-7.078,0.503-14.747,0.503-23.188v-47.917l-74.667-24.344v95.448H490.44z"/>
<linearGradient id="SVGID_3_" gradientUnits="userSpaceOnUse" x1="-47.4553" y1="641.3831" x2="-21.3632" y2="629.2142" gradientTransform="matrix(21.3333 0 0 -21.3333 990.7205 13797.832)">
	<stop offset="0" style="stop-color:#FFFFFF;stop-opacity:0.2"/>
	<stop offset="1" style="stop-color:#FFFFFF;stop-opacity:0"/>
</linearGradient>
<path style="fill:url(#SVGID_3_);" d="M504.911,306.229l-35.302-11.51V74.667C469.609,25.646,351.557,0,234.943,0  S0.276,25.646,0.276,74.667v320c0,49.021,118.052,74.667,234.667,74.667c36.195,0,72.517-2.48,105.417-7.354  c13.484,18.068,35.533,32.861,71.417,49.573c1.427,0.667,2.958,1,4.5,1c1.542,0,3.073-0.333,4.5-1  c79.49-37.021,91.5-64.448,91.5-139.521v-55.656C512.276,311.76,509.307,307.667,504.911,306.229z"/>
<g>
</g>
<g>
</g>
<g>
</g>
<g>
</g>
<g>
</g>
<g>
</g>
<g>
</g>
<g>
</g>
<g>
</g>
<g>
</g>
<g>
</g>
<g>
</g>
<g>
</g>
<g>
</g>
<g>
</g>
</svg>
