<?xml version="1.0" encoding="iso-8859-1"?>
<!-- Generator: Adobe Illustrator 19.0.0, SVG Export Plug-In . SVG Version: 6.00 Build 0)  -->
<svg xmlns="http://www.w3.org/2000/svg" xmlns:xlink="http://www.w3.org/1999/xlink" version="1.1" id="Capa_1" x="0px" y="0px" viewBox="0 0 512 512" style="enable-background:new 0 0 512 512;" xml:space="preserve">
<path style="fill:#303C42;" d="M469.333,128H448v-21.333C448,83.135,428.865,64,405.333,64h-198.25l-39.542-39.542  c-2-2-4.708-3.125-7.542-3.125H42.667C19.135,21.333,0,40.469,0,64v298.667c0,5.333,1.031,10.635,3.073,15.75l9.81-3.897  l0.099,0.029l-9.878,3.962c6.542,16.292,22.063,26.823,39.563,26.823h160v21.333H192c-5.896,0-10.667,4.771-10.667,10.667V448H32  c-5.896,0-10.667,4.771-10.667,10.667c0,5.896,4.771,10.667,10.667,10.667h149.333V480c0,5.896,4.771,10.667,10.667,10.667h42.667  c5.896,0,10.667-4.771,10.667-10.667v-10.667h149.333c5.896,0,10.667-4.771,10.667-10.667c0-5.896-4.771-10.667-10.667-10.667  H245.333v-10.667c0-5.896-4.771-10.667-10.667-10.667H224v-21.333h181.333c19.346,0,36.083-13.005,41.069-31.685l0.118,0.039  l63.375-189.833c0.208-0.604,0.344-1.229,0.438-1.854c1.115-3.948,1.667-7.667,1.667-11.333C512,147.135,492.865,128,469.333,128z"/>
<rect x="202.667" y="448" style="fill:#FF6F00;" width="21.333" height="21.333"/>
<path style="fill:#1E88E5;" d="M42.667,42.667h112.917l39.542,39.542c2,2,4.708,3.125,7.542,3.125h202.667  c11.76,0,21.333,9.573,21.333,21.333V128h-320C86.875,128,70,141.292,65.292,160.427c-0.021,0.073-0.052,0.156-0.073,0.229  L21.333,308.736V64C21.333,52.24,30.906,42.667,42.667,42.667z"/>
<path style="opacity:0.1;enable-background:new    ;" d="M42.667,42.667h112.917l39.542,39.542c2,2,4.708,3.125,7.542,3.125h202.667  c11.76,0,21.333,9.573,21.333,21.333V128h-320C86.875,128,70,141.292,65.292,160.427c-0.021,0.073-0.052,0.156-0.073,0.229  L21.333,308.736V64C21.333,52.24,30.906,42.667,42.667,42.667z"/>
<path style="fill:#1E88E5;" d="M489.521,177.104c-0.146,0.479-0.26,0.958-0.344,1.448l-62.885,188.385l-0.333,0.823  c-2.354,9.563-10.833,16.24-20.625,16.24H42.667c-7.673,0-14.408-4.221-18.199-10.746l60.991-205.796  c0.177-0.479,0.323-0.969,0.438-1.469c2.198-9.813,10.74-16.656,20.771-16.656h362.667c11.76,0,21.333,9.573,21.333,21.333  C490.667,172.615,490.302,174.656,489.521,177.104z"/>
<path style="opacity:0.1;enable-background:new    ;" d="M106.667,117.333c-25.125,0-46.5,17.135-51.885,41.031L21.333,256v52.736  l0,0l43.885-148.079c0.021-0.073,0.052-0.156,0.073-0.229C70,141.292,86.875,128,106.667,128h320v-10.667H106.667z"/>
<linearGradient id="SVGID_1_" gradientUnits="userSpaceOnUse" x1="-37.7634" y1="643.8305" x2="-24.8545" y2="630.9215" gradientTransform="matrix(21.3333 0 0 -21.3333 996.3334 13791.667)">
	<stop offset="0" style="stop-color:#000000;stop-opacity:0.1"/>
	<stop offset="1" style="stop-color:#000000;stop-opacity:0"/>
</linearGradient>
<path style="fill:url(#SVGID_1_);" d="M489.521,177.104c0.781-2.448,1.146-4.49,1.146-6.438c0-11.76-9.573-21.333-21.333-21.333  H106.667c-5.013,0-9.652,1.71-13.315,4.645L323.375,384h81.958c9.792,0,18.271-6.677,20.625-16.24l0.333-0.823l62.885-188.385  C489.26,178.063,489.375,177.583,489.521,177.104z"/>
<linearGradient id="SVGID_2_" gradientUnits="userSpaceOnUse" x1="-48.6513" y1="639.7496" x2="-25.7058" y2="629.0504" gradientTransform="matrix(21.3333 0 0 -21.3333 996.3334 13791.667)">
	<stop offset="0" style="stop-color:#FFFFFF;stop-opacity:0.2"/>
	<stop offset="1" style="stop-color:#FFFFFF;stop-opacity:0"/>
</linearGradient>
<path style="fill:url(#SVGID_2_);" d="M469.333,128H448v-21.333C448,83.135,428.865,64,405.333,64h-198.25l-39.542-39.542  c-2-2-4.708-3.125-7.542-3.125H42.667C19.135,21.333,0,40.469,0,64v298.667c0,5.333,1.031,10.635,3.073,15.75l9.81-3.897  l0.099,0.029l-9.878,3.962c6.542,16.292,22.063,26.823,39.563,26.823h160v21.333H192c-5.896,0-10.667,4.771-10.667,10.667V448H32  c-5.896,0-10.667,4.771-10.667,10.667c0,5.896,4.771,10.667,10.667,10.667h149.333V480c0,5.896,4.771,10.667,10.667,10.667h42.667  c5.896,0,10.667-4.771,10.667-10.667v-10.667h149.333c5.896,0,10.667-4.771,10.667-10.667c0-5.896-4.771-10.667-10.667-10.667  H245.333v-10.667c0-5.896-4.771-10.667-10.667-10.667H224v-21.333h181.333c19.346,0,36.083-13.005,41.069-31.685l0.118,0.039  l63.375-189.833c0.208-0.604,0.344-1.229,0.438-1.854c1.115-3.948,1.667-7.667,1.667-11.333C512,147.135,492.865,128,469.333,128z"/>
<g>
</g>
<g>
</g>
<g>
</g>
<g>
</g>
<g>
</g>
<g>
</g>
<g>
</g>
<g>
</g>
<g>
</g>
<g>
</g>
<g>
</g>
<g>
</g>
<g>
</g>
<g>
</g>
<g>
</g>
</svg>
