<?xml version="1.0" encoding="iso-8859-1"?>
<!-- Generator: Adobe Illustrator 19.0.0, SVG Export Plug-In . SVG Version: 6.00 Build 0)  -->
<svg xmlns="http://www.w3.org/2000/svg" xmlns:xlink="http://www.w3.org/1999/xlink" version="1.1" id="Capa_1" x="0px" y="0px" viewBox="0 0 469.333 469.333" style="enable-background:new 0 0 469.333 469.333;" xml:space="preserve">
<path style="fill:#303C42;" d="M426.667,42.667H207.083L167.542,3.125c-2-2-4.708-3.125-7.542-3.125H42.667  C19.146,0,0,19.135,0,42.667v298.667c0,5.26,1,10.479,2.979,15.521c0.042,0.115,0.083,0.219,0.125,0.323  C9.646,373.469,25.167,384,42.667,384H224v21.333h-10.667c-5.896,0-10.667,4.771-10.667,10.667v10.667H53.333  c-5.896,0-10.667,4.771-10.667,10.667S47.438,448,53.333,448h149.333v10.667c0,5.896,4.771,10.667,10.667,10.667H256  c5.896,0,10.667-4.771,10.667-10.667V448H416c5.896,0,10.667-4.771,10.667-10.667s-4.771-10.667-10.667-10.667H266.667V416  c0-5.896-4.771-10.667-10.667-10.667h-10.667V384h181.333c23.521,0,42.667-19.135,42.667-42.667v-256  C469.333,61.802,450.188,42.667,426.667,42.667z"/>
<rect x="224" y="426.667" style="fill:#E65100;" width="21.333" height="21.333"/>
<path style="fill:#1E88E5;" d="M448,341.333c0,11.76-9.563,21.333-21.333,21.333h-384c-8.667,0-16.375-5.198-19.688-13.26  c-0.042-0.063-0.063-0.135-0.083-0.198c-1.042-2.604-1.563-5.25-1.563-7.875V42.667c0-11.76,9.563-21.333,21.333-21.333h112.917  l39.542,39.542c2,2,4.708,3.125,7.542,3.125h224C438.438,64,448,73.573,448,85.333V341.333z"/>
<linearGradient id="SVGID_1_" gradientUnits="userSpaceOnUse" x1="-68.8059" y1="618.8002" x2="-45.0337" y2="607.7137" gradientTransform="matrix(21.3333 0 0 -21.3333 1430.1112 13315.2227)">
	<stop offset="0" style="stop-color:#FFFFFF;stop-opacity:0.2"/>
	<stop offset="1" style="stop-color:#FFFFFF;stop-opacity:0"/>
</linearGradient>
<path style="fill:url(#SVGID_1_);" d="M426.667,42.667H207.083L167.542,3.125c-2-2-4.708-3.125-7.542-3.125H42.667  C19.146,0,0,19.135,0,42.667v298.667c0,5.26,1,10.479,2.979,15.521c0.042,0.115,0.083,0.219,0.125,0.323  C9.646,373.469,25.167,384,42.667,384H224v21.333h-10.667c-5.896,0-10.667,4.771-10.667,10.667v10.667H53.333  c-5.896,0-10.667,4.771-10.667,10.667S47.438,448,53.333,448h149.333v10.667c0,5.896,4.771,10.667,10.667,10.667H256  c5.896,0,10.667-4.771,10.667-10.667V448H416c5.896,0,10.667-4.771,10.667-10.667s-4.771-10.667-10.667-10.667H266.667V416  c0-5.896-4.771-10.667-10.667-10.667h-10.667V384h181.333c23.521,0,42.667-19.135,42.667-42.667v-256  C469.333,61.802,450.188,42.667,426.667,42.667z"/>
<g>
</g>
<g>
</g>
<g>
</g>
<g>
</g>
<g>
</g>
<g>
</g>
<g>
</g>
<g>
</g>
<g>
</g>
<g>
</g>
<g>
</g>
<g>
</g>
<g>
</g>
<g>
</g>
<g>
</g>
</svg>
