<?xml version="1.0" encoding="iso-8859-1"?>
<!-- Generator: Adobe Illustrator 19.0.0, SVG Export Plug-In . SVG Version: 6.00 Build 0)  -->
<svg xmlns="http://www.w3.org/2000/svg" xmlns:xlink="http://www.w3.org/1999/xlink" version="1.1" id="Capa_1" x="0px" y="0px" viewBox="0 0 512 512" style="enable-background:new 0 0 512 512;" xml:space="preserve">
<path style="fill:#303C42;" d="M256,0C160.583,0,64,21.979,64,64v256c0,40.454,89.521,62.271,181.333,63.846V448h-10.667  c-5.896,0-10.667,4.771-10.667,10.667v10.667H74.667C68.771,469.333,64,474.104,64,480c0,5.896,4.771,10.667,10.667,10.667H224  v10.667c0,5.896,4.771,10.667,10.667,10.667h42.667c5.896,0,10.667-4.771,10.667-10.667v-10.667h149.333  c5.896,0,10.667-4.771,10.667-10.667c0-5.896-4.771-10.667-10.667-10.667H288v-10.667c0-5.896-4.771-10.667-10.667-10.667h-10.667  v-64.154C358.479,382.271,448,360.454,448,320V64C448,21.979,351.417,0,256,0z"/>
<rect x="245.333" y="469.333" style="fill:#FF6F00;" width="21.333" height="21.333"/>
<path style="fill:#546E7A;" d="M256,21.333c112.052,0,170.667,27.781,170.667,42.667S368.052,106.667,256,106.667  S85.333,78.885,85.333,64S143.948,21.333,256,21.333z"/>
<linearGradient id="SVGID_1_" gradientUnits="userSpaceOnUse" x1="-41.3007" y1="646.5607" x2="-28.1055" y2="640.4081" gradientTransform="matrix(21.3333 0 0 -21.3333 996.3334 13791.667)">
	<stop offset="0" style="stop-color:#FFFFFF;stop-opacity:0.2"/>
	<stop offset="1" style="stop-color:#FFFFFF;stop-opacity:0"/>
</linearGradient>
<path style="fill:url(#SVGID_1_);" d="M256,21.333c112.052,0,170.667,27.781,170.667,42.667S368.052,106.667,256,106.667  S85.333,78.885,85.333,64S143.948,21.333,256,21.333z"/>
<g>
	<path style="fill:#546E7A;" d="M256,362.667c-112.052,0-170.667-27.781-170.667-42.667v-54.484   c33.635,21.824,102.35,33.151,170.667,33.151s137.031-11.327,170.667-33.151V320C426.667,334.885,368.052,362.667,256,362.667z"/>
	<path style="fill:#546E7A;" d="M256,277.333c-112.052,0-170.667-27.781-170.667-42.667v-54.484   c33.635,21.824,102.35,33.151,170.667,33.151s137.031-11.327,170.667-33.151v54.484C426.667,249.552,368.052,277.333,256,277.333z"/>
	<path style="fill:#546E7A;" d="M256,192c-112.052,0-170.667-27.781-170.667-42.667V94.849C118.969,116.673,187.684,128,256,128   s137.031-11.327,170.667-33.151v54.484C426.667,164.219,368.052,192,256,192z"/>
</g>
<linearGradient id="SVGID_2_" gradientUnits="userSpaceOnUse" x1="-38.7031" y1="646.0383" x2="-25.3444" y2="632.6796" gradientTransform="matrix(21.3333 0 0 -21.3333 996.3334 13791.667)">
	<stop offset="0" style="stop-color:#000000;stop-opacity:0.1"/>
	<stop offset="1" style="stop-color:#000000;stop-opacity:0"/>
</linearGradient>
<path style="fill:url(#SVGID_2_);" d="M346.09,355.605c53.142-9.233,80.577-25.428,80.577-35.605v-54.484  c-28.323,18.378-81.573,29.208-138.462,32.204L346.09,355.605z M201.281,210.797l66.357,66.357  c104.368-1.862,159.029-28.133,159.029-42.487v-54.484c-33.635,21.824-102.35,33.151-170.667,33.151  C237.534,213.333,219.104,212.435,201.281,210.797z M256,128c-68.316,0-137.031-11.327-170.667-33.151l91.835,91.835  C199.529,189.934,225.747,192,256,192c112.052,0,170.667-27.781,170.667-42.667V94.849C393.031,116.673,324.316,128,256,128z"/>
<linearGradient id="SVGID_3_" gradientUnits="userSpaceOnUse" x1="-45.8004" y1="639.2682" x2="-23.3959" y2="628.821" gradientTransform="matrix(21.3333 0 0 -21.3333 996.3334 13791.667)">
	<stop offset="0" style="stop-color:#FFFFFF;stop-opacity:0.2"/>
	<stop offset="1" style="stop-color:#FFFFFF;stop-opacity:0"/>
</linearGradient>
<path style="fill:url(#SVGID_3_);" d="M256,0C160.583,0,64,21.979,64,64v256c0,40.454,89.521,62.271,181.333,63.846V448h-10.667  c-5.896,0-10.667,4.771-10.667,10.667v10.667H74.667C68.771,469.333,64,474.104,64,480c0,5.896,4.771,10.667,10.667,10.667H224  v10.667c0,5.896,4.771,10.667,10.667,10.667h42.667c5.896,0,10.667-4.771,10.667-10.667v-10.667h149.333  c5.896,0,10.667-4.771,10.667-10.667c0-5.896-4.771-10.667-10.667-10.667H288v-10.667c0-5.896-4.771-10.667-10.667-10.667h-10.667  v-64.154C358.479,382.271,448,360.454,448,320V64C448,21.979,351.417,0,256,0z"/>
<g>
</g>
<g>
</g>
<g>
</g>
<g>
</g>
<g>
</g>
<g>
</g>
<g>
</g>
<g>
</g>
<g>
</g>
<g>
</g>
<g>
</g>
<g>
</g>
<g>
</g>
<g>
</g>
<g>
</g>
</svg>
