<?xml version="1.0" encoding="iso-8859-1"?>
<!-- Generator: Adobe Illustrator 19.0.0, SVG Export Plug-In . SVG Version: 6.00 Build 0)  -->
<svg xmlns="http://www.w3.org/2000/svg" xmlns:xlink="http://www.w3.org/1999/xlink" version="1.1" id="Capa_1" x="0px" y="0px" viewBox="0 0 512 512" style="enable-background:new 0 0 512 512;" xml:space="preserve">
<path style="fill:#303C42;" d="M416,384c52.938,0,96-43.063,96-96c0-42.068-27.368-77.503-65.102-90.445  c-7.767-87.376-80.832-154.888-169.565-154.888c-69.885,0-132.083,42.763-157.717,106.854c-0.764-0.016-1.518-0.188-2.283-0.188  C52.635,149.333,0,201.969,0,266.667S52.635,384,117.333,384h128v21.333h-10.667c-5.896,0-10.667,4.771-10.667,10.667v10.667H74.667  c-5.896,0-10.667,4.771-10.667,10.667S68.771,448,74.667,448H224v10.667c0,5.896,4.771,10.667,10.667,10.667h42.667  c5.896,0,10.667-4.771,10.667-10.667V448h149.333c5.896,0,10.667-4.771,10.667-10.667s-4.771-10.667-10.667-10.667H288V416  c0-5.896-4.771-10.667-10.667-10.667h-10.667V384H416z"/>
<rect x="245.333" y="426.667" style="fill:#FF6F00;" width="21.333" height="21.333"/>
<path style="fill:#E6E6E6;" d="M21.333,266.667c0-52.938,43.063-96,96-96c20.49,0,40.958,6.833,57.635,19.229  c4.771,3.521,11.417,2.521,14.927-2.198c3.51-4.729,2.531-11.406-2.198-14.927c-13.688-10.174-29.552-16.961-46.055-20.513  C165.284,99.141,218.111,64,277.333,64c75.413,0,137.96,55.694,147.702,128.913c-3.02-0.288-5.941-0.913-9.035-0.913  c-5.896,0-10.667,4.771-10.667,10.667s4.771,10.667,10.667,10.667c41.167,0,74.667,33.5,74.667,74.667s-33.5,74.667-74.667,74.667  H117.333C64.396,362.667,21.333,319.604,21.333,266.667z"/>
<path style="opacity:0.1;enable-background:new    ;" d="M442.814,218.52c3.234,8.349,5.186,17.339,5.186,26.814  C448,286.5,414.5,320,373.333,320H74.667c-15.454,0-29.859-4.014-42.805-10.529c15.799,31.397,47.988,53.195,85.471,53.195H416  c41.167,0,74.667-33.5,74.667-74.667C490.667,256.309,470.733,229.339,442.814,218.52z"/>
<linearGradient id="SVGID_1_" gradientUnits="userSpaceOnUse" x1="-45.1642" y1="638.5032" x2="-24.2191" y2="628.7362" gradientTransform="matrix(21.3333 0 0 -21.3333 996.3334 13791.667)">
	<stop offset="0" style="stop-color:#FFFFFF;stop-opacity:0.2"/>
	<stop offset="1" style="stop-color:#FFFFFF;stop-opacity:0"/>
</linearGradient>
<path style="fill:url(#SVGID_1_);" d="M416,384c52.938,0,96-43.063,96-96c0-42.068-27.368-77.503-65.102-90.445  c-7.767-87.376-80.832-154.888-169.565-154.888c-69.885,0-132.083,42.763-157.717,106.854c-0.764-0.016-1.518-0.188-2.283-0.188  C52.635,149.333,0,201.969,0,266.667S52.635,384,117.333,384h128v21.333h-10.667c-5.896,0-10.667,4.771-10.667,10.667v10.667H74.667  c-5.896,0-10.667,4.771-10.667,10.667S68.771,448,74.667,448H224v10.667c0,5.896,4.771,10.667,10.667,10.667h42.667  c5.896,0,10.667-4.771,10.667-10.667V448h149.333c5.896,0,10.667-4.771,10.667-10.667s-4.771-10.667-10.667-10.667H288V416  c0-5.896-4.771-10.667-10.667-10.667h-10.667V384H416z"/>
<g>
</g>
<g>
</g>
<g>
</g>
<g>
</g>
<g>
</g>
<g>
</g>
<g>
</g>
<g>
</g>
<g>
</g>
<g>
</g>
<g>
</g>
<g>
</g>
<g>
</g>
<g>
</g>
<g>
</g>
</svg>
