<?xml version="1.0" encoding="iso-8859-1"?>
<!-- Generator: Adobe Illustrator 19.0.0, SVG Export Plug-In . SVG Version: 6.00 Build 0)  -->
<svg xmlns="http://www.w3.org/2000/svg" xmlns:xlink="http://www.w3.org/1999/xlink" version="1.1" id="Capa_1" x="0px" y="0px" viewBox="0 0 469.333 469.333" style="enable-background:new 0 0 469.333 469.333;" xml:space="preserve">
<path style="fill:#303C42;" d="M469.333,298.667V256c0-23.531-19.146-42.667-42.667-42.667h-21.333V32  c0-5.896-4.771-10.667-10.667-10.667H32c-5.896,0-10.667,4.771-10.667,10.667v33.965C8.944,70.383,0,82.112,0,96  s8.944,25.617,21.333,30.035v151.298C21.333,300.865,40.479,320,64,320h27.268c2.354,4.034,5.314,7.612,8.811,10.667  c-8.96,7.826-14.746,19.195-14.746,32v42.667C85.333,428.865,104.479,448,128,448h298.667c23.521,0,42.667-19.135,42.667-42.667  v-42.667c0-12.805-5.786-24.174-14.746-32C463.547,322.841,469.333,311.471,469.333,298.667z"/>
<g>
	<polygon style="fill:#455A64;" points="384,85.333 335.083,85.333 377.75,42.667 384,42.667  "/>
	<polygon style="fill:#455A64;" points="79.083,85.333 121.75,42.667 155.583,42.667 112.917,85.333  "/>
</g>
<polygon style="fill:#F2F2F2;" points="185.75,42.667 219.583,42.667 176.917,85.333 143.083,85.333 "/>
<polygon style="fill:#455A64;" points="249.75,42.667 283.583,42.667 240.917,85.333 207.083,85.333 "/>
<g>
	<polygon style="fill:#F2F2F2;" points="313.75,42.667 347.583,42.667 304.917,85.333 271.083,85.333  "/>
	<path style="fill:#F2F2F2;" d="M91.583,42.667L57.443,76.807c-3.738-4.94-8.836-8.724-14.776-10.842V42.667H91.583z"/>
	<circle style="fill:#F2F2F2;" cx="32" cy="96" r="10.667"/>
</g>
<path style="fill:#455A64;" d="M85.333,256v42.667H64c-11.771,0-21.333-9.573-21.333-21.333V126.035  c9.036-3.223,16.146-10.332,19.368-19.368H384v106.667H128C104.479,213.333,85.333,232.469,85.333,256z"/>
<g>
	<path style="fill:#E6E6E6;" d="M448,362.667v42.667c0,11.76-9.563,21.333-21.333,21.333H128c-11.771,0-21.333-9.573-21.333-21.333   v-42.667c0-11.76,9.563-21.333,21.333-21.333h298.667C438.438,341.333,448,350.906,448,362.667z"/>
	<path style="fill:#E6E6E6;" d="M128,320c-11.771,0-21.333-9.573-21.333-21.333V256c0-11.76,9.563-21.333,21.333-21.333h298.667   C438.438,234.667,448,244.24,448,256v42.667c0,11.76-9.563,21.333-21.333,21.333H128z"/>
</g>
<path style="opacity:0.2;fill:#FFFFFF;enable-background:new    ;" d="M128,298.667V256c0-11.76,8.367-21.333,18.667-21.333H128  c-11.771,0-21.333,9.573-21.333,21.333v42.667c0,11.76,9.563,21.333,21.333,21.333h18.667C136.367,320,128,310.427,128,298.667z"/>
<path style="opacity:0.1;enable-background:new    ;" d="M426.667,234.667H408c10.299,0,18.667,9.573,18.667,21.333v42.667  c0,11.76-8.367,21.333-18.667,21.333h18.667c11.771,0,21.333-9.573,21.333-21.333V256C448,244.24,438.438,234.667,426.667,234.667z"/>
<g>
	<path style="fill:#303C42;" d="M181.333,256c-5.896,0-10.667,4.771-10.667,10.667V288c0,5.896,4.771,10.667,10.667,10.667   c5.896,0,10.667-4.771,10.667-10.667v-21.333C192,260.771,187.229,256,181.333,256z"/>
	<path style="fill:#303C42;" d="M224,256c-5.896,0-10.667,4.771-10.667,10.667V288c0,5.896,4.771,10.667,10.667,10.667   c5.896,0,10.667-4.771,10.667-10.667v-21.333C234.667,260.771,229.896,256,224,256z"/>
	<path style="fill:#303C42;" d="M405.333,256C393.563,256,384,265.573,384,277.333s9.563,21.333,21.333,21.333   s21.333-9.573,21.333-21.333S417.104,256,405.333,256z"/>
	<path style="fill:#303C42;" d="M341.333,256C329.563,256,320,265.573,320,277.333s9.563,21.333,21.333,21.333   s21.333-9.573,21.333-21.333S353.104,256,341.333,256z"/>
	<path style="fill:#303C42;" d="M181.333,405.333c5.896,0,10.667-4.771,10.667-10.667v-21.333c0-5.896-4.771-10.667-10.667-10.667   c-5.896,0-10.667,4.771-10.667,10.667v21.333C170.667,400.563,175.438,405.333,181.333,405.333z"/>
	<path style="fill:#303C42;" d="M224,405.333c5.896,0,10.667-4.771,10.667-10.667v-21.333c0-5.896-4.771-10.667-10.667-10.667   c-5.896,0-10.667,4.771-10.667,10.667v21.333C213.333,400.563,218.104,405.333,224,405.333z"/>
	<path style="fill:#303C42;" d="M405.333,405.333c11.771,0,21.333-9.573,21.333-21.333c0-11.76-9.563-21.333-21.333-21.333   S384,372.24,384,384C384,395.76,393.563,405.333,405.333,405.333z"/>
	<path style="fill:#303C42;" d="M341.333,405.333c11.771,0,21.333-9.573,21.333-21.333c0-11.76-9.563-21.333-21.333-21.333   S320,372.24,320,384C320,395.76,329.563,405.333,341.333,405.333z"/>
</g>
<path style="opacity:0.2;fill:#FFFFFF;enable-background:new    ;" d="M128,405.333v-42.667c0-11.76,8.367-21.333,18.667-21.333H128  c-11.771,0-21.333,9.573-21.333,21.333v42.667c0,11.76,9.563,21.333,21.333,21.333h18.667C136.367,426.667,128,417.094,128,405.333z  "/>
<path style="opacity:0.1;enable-background:new    ;" d="M426.667,341.333H408c10.299,0,18.667,9.573,18.667,21.333v42.667  c0,11.76-8.367,21.333-18.667,21.333h18.667c11.771,0,21.333-9.573,21.333-21.333v-42.667  C448,350.906,438.438,341.333,426.667,341.333z"/>
<g>
	<path style="fill:#303C42;" d="M138.667,256c-5.896,0-10.667,4.771-10.667,10.667V288c0,5.896,4.771,10.667,10.667,10.667   s10.667-4.771,10.667-10.667v-21.333C149.333,260.771,144.563,256,138.667,256z"/>
	<path style="fill:#303C42;" d="M128,394.667c0,5.896,4.771,10.667,10.667,10.667s10.667-4.771,10.667-10.667v-21.333   c0-5.896-4.771-10.667-10.667-10.667S128,367.438,128,373.333V394.667z"/>
</g>
<linearGradient id="SVGID_1_" gradientUnits="userSpaceOnUse" x1="-60.8325" y1="622.4471" x2="-50.7865" y2="612.4011" gradientTransform="matrix(21.3333 0 0 -21.3333 1430.1112 13315.2227)">
	<stop offset="0" style="stop-color:#000000;stop-opacity:0.1"/>
	<stop offset="1" style="stop-color:#000000;stop-opacity:0"/>
</linearGradient>
<path style="fill:url(#SVGID_1_);" d="M384,106.667H62.035c-3.152,8.839-10.053,15.777-18.809,19.095L42.667,128L128,213.333h256  V106.667z"/>
<g>
	<polygon style="opacity:0.2;fill:#FFFFFF;enable-background:new    ;" points="144.917,53.333 155.583,42.667 121.75,42.667    111.083,53.333  "/>
	<polygon style="opacity:0.2;fill:#FFFFFF;enable-background:new    ;" points="208.917,53.333 219.583,42.667 185.75,42.667    175.083,53.333  "/>
	<polygon style="opacity:0.2;fill:#FFFFFF;enable-background:new    ;" points="272.917,53.333 283.583,42.667 249.75,42.667    239.083,53.333  "/>
	<polygon style="opacity:0.2;fill:#FFFFFF;enable-background:new    ;" points="336.917,53.333 347.583,42.667 313.75,42.667    303.083,53.333  "/>
	<polygon style="opacity:0.2;fill:#FFFFFF;enable-background:new    ;" points="384,53.333 384,42.667 377.75,42.667    367.083,53.333  "/>
	<polygon style="opacity:0.2;fill:#FFFFFF;enable-background:new    ;" points="80.917,53.333 91.583,42.667 42.667,42.667    42.667,53.333  "/>
</g>
<linearGradient id="SVGID_2_" gradientUnits="userSpaceOnUse" x1="-67.7383" y1="619.112" x2="-43.5734" y2="607.8461" gradientTransform="matrix(21.3333 0 0 -21.3333 1430.1112 13315.2227)">
	<stop offset="0" style="stop-color:#FFFFFF;stop-opacity:0.2"/>
	<stop offset="1" style="stop-color:#FFFFFF;stop-opacity:0"/>
</linearGradient>
<path style="fill:url(#SVGID_2_);" d="M469.333,298.667V256c0-23.531-19.146-42.667-42.667-42.667h-21.333V32  c0-5.896-4.771-10.667-10.667-10.667H32c-5.896,0-10.667,4.771-10.667,10.667v33.965C8.944,70.383,0,82.112,0,96  s8.944,25.617,21.333,30.035v151.298C21.333,300.865,40.479,320,64,320h27.268c2.354,4.034,5.314,7.612,8.811,10.667  c-8.96,7.826-14.746,19.195-14.746,32v42.667C85.333,428.865,104.479,448,128,448h298.667c23.521,0,42.667-19.135,42.667-42.667  v-42.667c0-12.805-5.786-24.174-14.746-32C463.547,322.841,469.333,311.471,469.333,298.667z"/>
<g>
</g>
<g>
</g>
<g>
</g>
<g>
</g>
<g>
</g>
<g>
</g>
<g>
</g>
<g>
</g>
<g>
</g>
<g>
</g>
<g>
</g>
<g>
</g>
<g>
</g>
<g>
</g>
<g>
</g>
</svg>
