<?xml version="1.0" encoding="iso-8859-1"?>
<!-- Generator: Adobe Illustrator 19.0.0, SVG Export Plug-In . SVG Version: 6.00 Build 0)  -->
<svg xmlns="http://www.w3.org/2000/svg" xmlns:xlink="http://www.w3.org/1999/xlink" version="1.1" id="Capa_1" x="0px" y="0px" viewBox="0 0 469.333 469.333" style="enable-background:new 0 0 469.333 469.333;" xml:space="preserve">
<path style="fill:#303C42;" d="M384,0H42.667C19.146,0,0,19.135,0,42.667V256c0,23.531,19.146,42.667,42.667,42.667H384  c23.521,0,42.667-19.135,42.667-42.667V42.667C426.667,19.135,407.521,0,384,0z"/>
<path style="fill:#FFFFFF;" d="M378.216,21.333L224.667,146.01c-6.896,4.385-16.854,3.677-21.896,0.563L48.458,21.333H378.216z"/>
<path style="fill:#FAFAFA;" d="M405.333,256c0,11.76-9.563,21.333-21.333,21.333H42.667c-11.771,0-21.333-9.573-21.333-21.333  V42.667c0-4.68,1.819-8.785,4.384-12.307l164.512,133.443c6.938,4.49,14.917,6.865,23.104,6.865c7.875,0,15.583-2.198,22.333-6.375  c0.604-0.323,1.188-0.708,1.75-1.156L400.951,30.363c2.564,3.521,4.383,7.625,4.383,12.303V256z"/>
<linearGradient id="SVGID_1_" gradientUnits="userSpaceOnUse" x1="-61.4337" y1="627.1252" x2="-47.0412" y2="612.7327" gradientTransform="matrix(21.3333 0 0 -21.3333 1430.1112 13315.2227)">
	<stop offset="0" style="stop-color:#000000;stop-opacity:0.1"/>
	<stop offset="1" style="stop-color:#000000;stop-opacity:0"/>
</linearGradient>
<path style="fill:url(#SVGID_1_);" d="M384,277.333c11.771,0,21.333-9.573,21.333-21.333V42.667c0-4.678-1.819-8.783-4.383-12.303  L237.417,163.135c-0.563,0.448-1.146,0.833-1.75,1.156c-6.75,4.177-14.458,6.375-22.333,6.375c-8.188,0-16.167-2.375-23.104-6.865  L25.717,30.359l246.974,246.974H384z"/>
<path style="fill:#303C42;" d="M469.333,320v-42.667c0-23.531-19.146-42.667-42.667-42.667H128  c-23.521,0-42.667,19.135-42.667,42.667V320c0,12.805,5.786,24.174,14.746,32c-8.96,7.826-14.746,19.195-14.746,32v42.667  c0,23.531,19.146,42.667,42.667,42.667h298.667c23.521,0,42.667-19.135,42.667-42.667V384c0-12.805-5.786-24.174-14.746-32  C463.547,344.174,469.333,332.805,469.333,320z"/>
<g>
	<path style="fill:#E6E6E6;" d="M448,384v42.667c0,11.76-9.563,21.333-21.333,21.333H128c-11.771,0-21.333-9.573-21.333-21.333V384   c0-11.76,9.563-21.333,21.333-21.333h298.667C438.438,362.667,448,372.24,448,384z"/>
	<path style="fill:#E6E6E6;" d="M128,341.333c-11.771,0-21.333-9.573-21.333-21.333v-42.667c0-11.76,9.563-21.333,21.333-21.333   h298.667c11.771,0,21.333,9.573,21.333,21.333V320c0,11.76-9.563,21.333-21.333,21.333H128z"/>
</g>
<path style="opacity:0.2;fill:#FFFFFF;enable-background:new    ;" d="M128,320v-42.667c0-11.76,8.367-21.333,18.667-21.333H128  c-11.771,0-21.333,9.573-21.333,21.333V320c0,11.76,9.563,21.333,21.333,21.333h18.667C136.367,341.333,128,331.76,128,320z"/>
<path style="opacity:0.1;enable-background:new    ;" d="M426.667,256H408c10.299,0,18.667,9.573,18.667,21.333V320  c0,11.76-8.367,21.333-18.667,21.333h18.667C438.438,341.333,448,331.76,448,320v-42.667C448,265.573,438.438,256,426.667,256z"/>
<g>
	<path style="fill:#303C42;" d="M181.333,277.333c-5.896,0-10.667,4.771-10.667,10.667v21.333c0,5.896,4.771,10.667,10.667,10.667   c5.896,0,10.667-4.771,10.667-10.667V288C192,282.104,187.229,277.333,181.333,277.333z"/>
	<path style="fill:#303C42;" d="M224,277.333c-5.896,0-10.667,4.771-10.667,10.667v21.333c0,5.896,4.771,10.667,10.667,10.667   c5.896,0,10.667-4.771,10.667-10.667V288C234.667,282.104,229.896,277.333,224,277.333z"/>
	<path style="fill:#303C42;" d="M405.333,277.333c-11.771,0-21.333,9.573-21.333,21.333c0,11.76,9.563,21.333,21.333,21.333   s21.333-9.573,21.333-21.333C426.667,286.906,417.104,277.333,405.333,277.333z"/>
	<path style="fill:#303C42;" d="M341.333,277.333c-11.771,0-21.333,9.573-21.333,21.333c0,11.76,9.563,21.333,21.333,21.333   s21.333-9.573,21.333-21.333C362.667,286.906,353.104,277.333,341.333,277.333z"/>
	<path style="fill:#303C42;" d="M181.333,426.667c5.896,0,10.667-4.771,10.667-10.667v-21.333c0-5.896-4.771-10.667-10.667-10.667   c-5.896,0-10.667,4.771-10.667,10.667V416C170.667,421.896,175.438,426.667,181.333,426.667z"/>
	<path style="fill:#303C42;" d="M224,426.667c5.896,0,10.667-4.771,10.667-10.667v-21.333c0-5.896-4.771-10.667-10.667-10.667   c-5.896,0-10.667,4.771-10.667,10.667V416C213.333,421.896,218.104,426.667,224,426.667z"/>
	<path style="fill:#303C42;" d="M405.333,426.667c11.771,0,21.333-9.573,21.333-21.333S417.104,384,405.333,384   S384,393.573,384,405.333S393.563,426.667,405.333,426.667z"/>
	<path style="fill:#303C42;" d="M341.333,426.667c11.771,0,21.333-9.573,21.333-21.333S353.104,384,341.333,384   S320,393.573,320,405.333S329.563,426.667,341.333,426.667z"/>
</g>
<path style="opacity:0.2;fill:#FFFFFF;enable-background:new    ;" d="M128,426.667V384c0-11.76,8.367-21.333,18.667-21.333H128  c-11.771,0-21.333,9.573-21.333,21.333v42.667c0,11.76,9.563,21.333,21.333,21.333h18.667C136.367,448,128,438.427,128,426.667z"/>
<path style="opacity:0.1;enable-background:new    ;" d="M426.667,362.667H408c10.299,0,18.667,9.573,18.667,21.333v42.667  c0,11.76-8.367,21.333-18.667,21.333h18.667c11.771,0,21.333-9.573,21.333-21.333V384C448,372.24,438.438,362.667,426.667,362.667z"/>
<g>
	<path style="fill:#303C42;" d="M138.667,277.333c-5.896,0-10.667,4.771-10.667,10.667v21.333c0,5.896,4.771,10.667,10.667,10.667   s10.667-4.771,10.667-10.667V288C149.333,282.104,144.563,277.333,138.667,277.333z"/>
	<path style="fill:#303C42;" d="M128,416c0,5.896,4.771,10.667,10.667,10.667s10.667-4.771,10.667-10.667v-21.333   c0-5.896-4.771-10.667-10.667-10.667S128,388.771,128,394.667V416z"/>
</g>
<linearGradient id="SVGID_2_" gradientUnits="userSpaceOnUse" x1="-68.5101" y1="619.434" x2="-43.2056" y2="607.6342" gradientTransform="matrix(21.3333 0 0 -21.3333 1430.1112 13315.2227)">
	<stop offset="0" style="stop-color:#FFFFFF;stop-opacity:0.2"/>
	<stop offset="1" style="stop-color:#FFFFFF;stop-opacity:0"/>
</linearGradient>
<path style="fill:url(#SVGID_2_);" d="M469.333,277.333c0-23.531-19.146-42.667-42.667-42.667v-192C426.667,19.135,407.521,0,384,0  H42.667C19.146,0,0,19.135,0,42.667V256c0,23.531,19.146,42.667,42.667,42.667h42.667V320c0,12.805,5.786,24.174,14.746,32  c-8.96,7.826-14.746,19.195-14.746,32v42.667c0,23.531,19.146,42.667,42.667,42.667h298.667c23.521,0,42.667-19.135,42.667-42.667  V384c0-12.805-5.786-24.174-14.746-32c8.96-7.826,14.746-19.195,14.746-32V277.333z"/>
<g>
</g>
<g>
</g>
<g>
</g>
<g>
</g>
<g>
</g>
<g>
</g>
<g>
</g>
<g>
</g>
<g>
</g>
<g>
</g>
<g>
</g>
<g>
</g>
<g>
</g>
<g>
</g>
<g>
</g>
</svg>
