<?xml version="1.0" encoding="iso-8859-1"?>
<!-- Generator: Adobe Illustrator 19.0.0, SVG Export Plug-In . SVG Version: 6.00 Build 0)  -->
<svg xmlns="http://www.w3.org/2000/svg" xmlns:xlink="http://www.w3.org/1999/xlink" version="1.1" id="Capa_1" x="0px" y="0px" viewBox="0 0 469.333 469.333" style="enable-background:new 0 0 469.333 469.333;" xml:space="preserve">
<path style="fill:#303C42;" d="M266.667,341.333h-64c-17.646,0-32,14.354-32,32v64c0,17.646,14.354,32,32,32h64  c17.646,0,32-14.354,32-32v-64C298.667,355.688,284.313,341.333,266.667,341.333z"/>
<path style="fill:#0288D1;" d="M277.333,437.333c0,5.885-4.781,10.667-10.667,10.667h-64c-5.885,0-10.667-4.781-10.667-10.667v-64  c0-5.885,4.781-10.667,10.667-10.667h64c5.885,0,10.667,4.781,10.667,10.667V437.333z"/>
<path style="fill:#303C42;" d="M96,341.333H32c-17.646,0-32,14.354-32,32v64c0,17.646,14.354,32,32,32h64c17.646,0,32-14.354,32-32  v-64C128,355.688,113.646,341.333,96,341.333z"/>
<path style="fill:#0288D1;" d="M106.667,437.333c0,5.885-4.781,10.667-10.667,10.667H32c-5.885,0-10.667-4.781-10.667-10.667v-64  c0-5.885,4.781-10.667,10.667-10.667h64c5.885,0,10.667,4.781,10.667,10.667V437.333z"/>
<path style="fill:#303C42;" d="M437.333,341.333h-64c-17.646,0-32,14.354-32,32v64c0,17.646,14.354,32,32,32h64  c17.646,0,32-14.354,32-32v-64C469.333,355.688,454.979,341.333,437.333,341.333z"/>
<path style="fill:#0288D1;" d="M448,437.333c0,5.885-4.781,10.667-10.667,10.667h-64c-5.885,0-10.667-4.781-10.667-10.667v-64  c0-5.885,4.781-10.667,10.667-10.667h64c5.885,0,10.667,4.781,10.667,10.667V437.333z"/>
<path style="opacity:0.1;enable-background:new    ;" d="M266.667,362.667v64c0,5.885-4.781,10.667-10.667,10.667h-64  c0,5.885,4.781,10.667,10.667,10.667h64c5.885,0,10.667-4.781,10.667-10.667v-64C277.333,367.448,272.552,362.667,266.667,362.667z"/>
<path style="opacity:0.1;enable-background:new    ;" d="M96,362.667v64c0,5.885-4.781,10.667-10.667,10.667h-64  C21.333,443.219,26.115,448,32,448h64c5.885,0,10.667-4.781,10.667-10.667v-64C106.667,367.448,101.885,362.667,96,362.667z"/>
<path style="opacity:0.1;enable-background:new    ;" d="M437.333,362.667v64c0,5.885-4.781,10.667-10.667,10.667h-64  c0,5.885,4.781,10.667,10.667,10.667h64c5.885,0,10.667-4.781,10.667-10.667v-64C448,367.448,443.219,362.667,437.333,362.667z"/>
<path style="fill:#303C42;" d="M56.458,316.875C58.542,318.958,61.271,320,64,320c2.729,0,5.458-1.042,7.542-3.125l42.667-42.667  c4.167-4.167,4.167-10.917,0-15.083c-4.167-4.167-10.917-4.167-15.083,0l-23.954,23.954c5.039-84.034,51.435-93.103,96.444-101.798  c18.422-3.56,37.975-7.59,52.385-17.908v120.21l-24.458-24.458c-4.167-4.167-10.917-4.167-15.083,0  c-4.167,4.167-4.167,10.917,0,15.083l42.667,42.667c2.083,2.083,4.813,3.125,7.542,3.125s5.458-1.042,7.542-3.125l42.667-42.667  c4.167-4.167,4.167-10.917,0-15.083c-4.167-4.167-10.917-4.167-15.083,0l-24.458,24.458v-120.21  c14.41,10.318,33.964,14.348,52.385,17.908c45.009,8.695,91.405,17.764,96.444,101.798l-23.954-23.954  c-4.167-4.167-10.917-4.167-15.083,0c-4.167,4.167-4.167,10.917,0,15.083l42.667,42.667c2.083,2.083,4.813,3.125,7.542,3.125  s5.458-1.042,7.542-3.125l42.667-42.667c4.167-4.167,4.167-10.917,0-15.083c-4.167-4.167-10.917-4.167-15.083,0l-24.99,24.99  c-5.413-102.585-67.617-114.88-113.708-123.781c-33.169-6.411-51.319-10.992-55.471-32.333H384  c23.531,0,42.667-19.135,42.667-42.667V42.667C426.667,19.135,407.531,0,384,0H85.333C61.802,0,42.667,19.135,42.667,42.667v42.667  c0,23.531,19.135,42.667,42.667,42.667h137.711c-4.152,21.341-22.302,25.922-55.471,32.333  c-46.091,8.901-108.296,21.197-113.708,123.781l-24.99-24.99c-4.167-4.167-10.917-4.167-15.083,0  c-4.167,4.167-4.167,10.917,0,15.083L56.458,316.875z"/>
<path style="fill:#E6E6E6;" d="M64,85.333V42.667c0-11.76,9.573-21.333,21.333-21.333H384c11.76,0,21.333,9.573,21.333,21.333  v42.667c0,11.76-9.573,21.333-21.333,21.333H85.333C73.573,106.667,64,97.094,64,85.333z"/>
<path style="opacity:0.2;fill:#FFFFFF;enable-background:new    ;" d="M85.333,85.333V42.667c0-11.76,8.376-21.333,18.667-21.333  H85.333C73.573,21.333,64,30.906,64,42.667v42.667c0,11.76,9.573,21.333,21.333,21.333H104  C93.71,106.667,85.333,97.094,85.333,85.333z"/>
<path style="opacity:0.1;enable-background:new    ;" d="M384,21.333h-18.667c10.29,0,18.667,9.573,18.667,21.333v42.667  c0,11.76-8.376,21.333-18.667,21.333H384c11.76,0,21.333-9.573,21.333-21.333V42.667C405.333,30.906,395.76,21.333,384,21.333z"/>
<g>
	<path style="fill:#303C42;" d="M96,42.667c-5.896,0-10.667,4.771-10.667,10.667v21.333c0,5.896,4.771,10.667,10.667,10.667   c5.896,0,10.667-4.771,10.667-10.667V53.333C106.667,47.438,101.896,42.667,96,42.667z"/>
	<path style="fill:#303C42;" d="M138.667,42.667c-5.896,0-10.667,4.771-10.667,10.667v21.333c0,5.896,4.771,10.667,10.667,10.667   s10.667-4.771,10.667-10.667V53.333C149.333,47.438,144.563,42.667,138.667,42.667z"/>
	<path style="fill:#303C42;" d="M181.333,42.667c-5.896,0-10.667,4.771-10.667,10.667v21.333c0,5.896,4.771,10.667,10.667,10.667   c5.896,0,10.667-4.771,10.667-10.667V53.333C192,47.438,187.229,42.667,181.333,42.667z"/>
	<circle style="fill:#303C42;" cx="362.667" cy="64" r="21.333"/>
	<circle style="fill:#303C42;" cx="298.667" cy="64" r="21.333"/>
</g>
<linearGradient id="SVGID_1_" gradientUnits="userSpaceOnUse" x1="-67.2594" y1="617.8272" x2="-43.4484" y2="606.7242" gradientTransform="matrix(21.3333 0 0 -21.3333 1430.1112 13315.2227)">
	<stop offset="0" style="stop-color:#FFFFFF;stop-opacity:0.2"/>
	<stop offset="1" style="stop-color:#FFFFFF;stop-opacity:0"/>
</linearGradient>
<path style="fill:url(#SVGID_1_);" d="M266.667,341.333h-64c-17.646,0-32,14.354-32,32v64c0,17.646,14.354,32,32,32h64  c17.646,0,32-14.354,32-32v-64C298.667,355.688,284.313,341.333,266.667,341.333z M96,341.333H32c-17.646,0-32,14.354-32,32v64  c0,17.646,14.354,32,32,32h64c17.646,0,32-14.354,32-32v-64C128,355.688,113.646,341.333,96,341.333z M437.333,341.333h-64  c-17.646,0-32,14.354-32,32v64c0,17.646,14.354,32,32,32h64c17.646,0,32-14.354,32-32v-64  C469.333,355.688,454.979,341.333,437.333,341.333z M56.458,316.875C58.542,318.958,61.271,320,64,320  c2.729,0,5.458-1.042,7.542-3.125l42.667-42.667c4.167-4.167,4.167-10.917,0-15.083c-4.167-4.167-10.917-4.167-15.083,0  l-23.954,23.954c5.039-84.034,51.435-93.103,96.444-101.798c18.422-3.56,37.975-7.59,52.385-17.908v120.21l-24.458-24.458  c-4.167-4.167-10.917-4.167-15.083,0c-4.167,4.167-4.167,10.917,0,15.083l42.667,42.667c2.083,2.083,4.813,3.125,7.542,3.125  s5.458-1.042,7.542-3.125l42.667-42.667c4.167-4.167,4.167-10.917,0-15.083c-4.167-4.167-10.917-4.167-15.083,0l-24.458,24.458  v-120.21c14.41,10.318,33.964,14.348,52.385,17.908c45.009,8.695,91.405,17.764,96.444,101.798l-23.954-23.954  c-4.167-4.167-10.917-4.167-15.083,0c-4.167,4.167-4.167,10.917,0,15.083l42.667,42.667c2.083,2.083,4.813,3.125,7.542,3.125  s5.458-1.042,7.542-3.125l42.667-42.667c4.167-4.167,4.167-10.917,0-15.083c-4.167-4.167-10.917-4.167-15.083,0l-24.99,24.99  c-5.413-102.585-67.617-114.88-113.708-123.781c-33.169-6.411-51.319-10.992-55.471-32.333H384  c23.531,0,42.667-19.135,42.667-42.667V42.667C426.667,19.135,407.531,0,384,0H85.333C61.802,0,42.667,19.135,42.667,42.667v42.667  c0,23.531,19.135,42.667,42.667,42.667h137.711c-4.152,21.341-22.302,25.922-55.471,32.333  c-46.091,8.901-108.296,21.197-113.708,123.781l-24.99-24.99c-4.167-4.167-10.917-4.167-15.083,0  c-4.167,4.167-4.167,10.917,0,15.083L56.458,316.875z"/>
<g>
</g>
<g>
</g>
<g>
</g>
<g>
</g>
<g>
</g>
<g>
</g>
<g>
</g>
<g>
</g>
<g>
</g>
<g>
</g>
<g>
</g>
<g>
</g>
<g>
</g>
<g>
</g>
<g>
</g>
</svg>
