<?xml version="1.0" encoding="iso-8859-1"?>
<!-- Generator: Adobe Illustrator 19.0.0, SVG Export Plug-In . SVG Version: 6.00 Build 0)  -->
<svg xmlns="http://www.w3.org/2000/svg" xmlns:xlink="http://www.w3.org/1999/xlink" version="1.1" id="Capa_1" x="0px" y="0px" viewBox="0 0 469.333 469.333" style="enable-background:new 0 0 469.333 469.333;" xml:space="preserve">
<path style="fill:#303C42;" d="M469.333,320v-42.667c0-23.531-19.146-42.667-42.667-42.667H384v-192C384,19.135,364.854,0,341.333,0  H42.667C19.146,0,0,19.135,0,42.667V256c0,23.531,19.146,42.667,42.667,42.667h42.667V320c0,12.805,5.786,24.174,14.746,32  c-8.96,7.826-14.746,19.195-14.746,32v42.667c0,23.531,19.146,42.667,42.667,42.667h298.667c23.521,0,42.667-19.135,42.667-42.667  V384c0-12.805-5.786-24.174-14.746-32C463.547,344.174,469.333,332.805,469.333,320z"/>
<polygon style="fill:#7CB342;" points="164.417,234.667 138.219,208.469 224.042,121.792 336.917,234.667 "/>
<path style="fill:#BBDEFB;" d="M42.667,21.333h298.667c11.771,0,21.333,9.573,21.333,21.333V230.25L231.542,99.125  c-2-2-4.708-3.125-7.542-3.125h-0.021c-2.854,0.01-5.563,1.146-7.563,3.167l-93.283,94.217l-30.259-30.259  c-4.167-4.167-10.917-4.167-15.083,0l-56.458,56.458V42.667C21.333,30.906,30.896,21.333,42.667,21.333z"/>
<path style="fill:#7CB342;" d="M85.333,277.333H42.667c-11.771,0-21.333-9.573-21.333-21.333v-6.25l64-64l48.917,48.917H128  C104.479,234.667,85.333,253.802,85.333,277.333z"/>
<g>
	<path style="fill:#E6E6E6;" d="M448,384v42.667c0,11.76-9.563,21.333-21.333,21.333H128c-11.771,0-21.333-9.573-21.333-21.333V384   c0-11.76,9.563-21.333,21.333-21.333h298.667C438.438,362.667,448,372.24,448,384z"/>
	<path style="fill:#E6E6E6;" d="M128,341.333c-11.771,0-21.333-9.573-21.333-21.333v-42.667c0-11.76,9.563-21.333,21.333-21.333   h298.667c11.771,0,21.333,9.573,21.333,21.333V320c0,11.76-9.563,21.333-21.333,21.333H128z"/>
</g>
<path style="opacity:0.2;fill:#FFFFFF;enable-background:new    ;" d="M128,320v-42.667c0-11.76,8.367-21.333,18.667-21.333H128  c-11.771,0-21.333,9.573-21.333,21.333V320c0,11.76,9.563,21.333,21.333,21.333h18.667C136.367,341.333,128,331.76,128,320z"/>
<path style="opacity:0.1;enable-background:new    ;" d="M426.667,256H408c10.299,0,18.667,9.573,18.667,21.333V320  c0,11.76-8.367,21.333-18.667,21.333h18.667C438.438,341.333,448,331.76,448,320v-42.667C448,265.573,438.438,256,426.667,256z"/>
<path style="opacity:0.2;fill:#FFFFFF;enable-background:new    ;" d="M128,426.667V384c0-11.76,8.367-21.333,18.667-21.333H128  c-11.771,0-21.333,9.573-21.333,21.333v42.667c0,11.76,9.563,21.333,21.333,21.333h18.667C136.367,448,128,438.427,128,426.667z"/>
<path style="opacity:0.1;enable-background:new    ;" d="M426.667,362.667H408c10.299,0,18.667,9.573,18.667,21.333v42.667  c0,11.76-8.367,21.333-18.667,21.333h18.667c11.771,0,21.333-9.573,21.333-21.333V384C448,372.24,438.438,362.667,426.667,362.667z"/>
<g>
	<path style="fill:#303C42;" d="M138.667,277.333c-5.896,0-10.667,4.771-10.667,10.667v21.333c0,5.896,4.771,10.667,10.667,10.667   s10.667-4.771,10.667-10.667V288C149.333,282.104,144.563,277.333,138.667,277.333z"/>
	<path style="fill:#303C42;" d="M181.333,277.333c-5.896,0-10.667,4.771-10.667,10.667v21.333c0,5.896,4.771,10.667,10.667,10.667   c5.896,0,10.667-4.771,10.667-10.667V288C192,282.104,187.229,277.333,181.333,277.333z"/>
	<path style="fill:#303C42;" d="M224,277.333c-5.896,0-10.667,4.771-10.667,10.667v21.333c0,5.896,4.771,10.667,10.667,10.667   c5.896,0,10.667-4.771,10.667-10.667V288C234.667,282.104,229.896,277.333,224,277.333z"/>
	<circle style="fill:#303C42;" cx="405.333" cy="298.667" r="21.333"/>
	<circle style="fill:#303C42;" cx="341.333" cy="298.667" r="21.333"/>
	<path style="fill:#303C42;" d="M128,416c0,5.896,4.771,10.667,10.667,10.667s10.667-4.771,10.667-10.667v-21.333   c0-5.896-4.771-10.667-10.667-10.667S128,388.771,128,394.667V416z"/>
	<path style="fill:#303C42;" d="M181.333,426.667c5.896,0,10.667-4.771,10.667-10.667v-21.333c0-5.896-4.771-10.667-10.667-10.667   c-5.896,0-10.667,4.771-10.667,10.667V416C170.667,421.896,175.438,426.667,181.333,426.667z"/>
	<path style="fill:#303C42;" d="M224,426.667c5.896,0,10.667-4.771,10.667-10.667v-21.333c0-5.896-4.771-10.667-10.667-10.667   c-5.896,0-10.667,4.771-10.667,10.667V416C213.333,421.896,218.104,426.667,224,426.667z"/>
	<circle style="fill:#303C42;" cx="405.333" cy="405.333" r="21.333"/>
	<circle style="fill:#303C42;" cx="341.333" cy="405.333" r="21.333"/>
	<circle style="fill:#303C42;" cx="128" cy="85.333" r="42.667"/>
</g>
<circle style="fill:#FFCA28;" cx="128" cy="85.333" r="21.333"/>
<linearGradient id="SVGID_1_" gradientUnits="userSpaceOnUse" x1="-68.6887" y1="619.0511" x2="-43.3842" y2="607.2509" gradientTransform="matrix(21.3333 0 0 -21.3333 1430.1112 13315.2227)">
	<stop offset="0" style="stop-color:#FFFFFF;stop-opacity:0.2"/>
	<stop offset="1" style="stop-color:#FFFFFF;stop-opacity:0"/>
</linearGradient>
<path style="fill:url(#SVGID_1_);" d="M469.333,320v-42.667c0-23.531-19.146-42.667-42.667-42.667H384v-192  C384,19.135,364.854,0,341.333,0H42.667C19.146,0,0,19.135,0,42.667V256c0,23.531,19.146,42.667,42.667,42.667h42.667V320  c0,12.805,5.786,24.174,14.746,32c-8.96,7.826-14.746,19.195-14.746,32v42.667c0,23.531,19.146,42.667,42.667,42.667h298.667  c23.521,0,42.667-19.135,42.667-42.667V384c0-12.805-5.786-24.174-14.746-32C463.547,344.174,469.333,332.805,469.333,320z"/>
<g>
</g>
<g>
</g>
<g>
</g>
<g>
</g>
<g>
</g>
<g>
</g>
<g>
</g>
<g>
</g>
<g>
</g>
<g>
</g>
<g>
</g>
<g>
</g>
<g>
</g>
<g>
</g>
<g>
</g>
</svg>
