<?xml version="1.0" encoding="iso-8859-1"?>
<!-- Generator: Adobe Illustrator 19.0.0, SVG Export Plug-In . SVG Version: 6.00 Build 0)  -->
<svg xmlns="http://www.w3.org/2000/svg" xmlns:xlink="http://www.w3.org/1999/xlink" version="1.1" id="Capa_1" x="0px" y="0px" viewBox="0 0 512 512" style="enable-background:new 0 0 512 512;" xml:space="preserve">
<path style="fill:#303C42;" d="M466.208,451.028c-4.167-4.173-10.917-4.173-15.083,0l-24.96,25  c-5.109-102.622-63.642-114.974-107.009-123.928c-35.448-7.314-52.49-12.207-52.49-43.09V298.16  c70.568-1.672,138.667-19.868,138.667-53.253V52.6c0-70.133-298.667-70.133-298.667,0v192.307  c0,33.385,68.099,51.581,138.667,53.253v10.849c0,30.883-17.042,35.776-52.49,43.09c-43.367,8.954-101.9,21.306-107.009,123.928  l-24.96-25c-4.167-4.173-10.917-4.173-15.083,0c-2.082,2.086-3.124,4.818-3.125,7.55c-0.001,2.735,1.041,5.47,3.125,7.558  l42.667,42.735C90.542,510.957,93.271,512,96,512c2.729,0,5.458-1.043,7.542-3.13l42.667-42.735c4.167-4.173,4.167-10.934,0-15.107  c-4.167-4.173-10.917-4.173-15.083,0l-23.99,24.028c4.689-84.305,48.003-93.356,90.01-102.028  c16.831-3.476,34.725-7.314,48.188-16.937v119.434l-24.458-24.497c-4.167-4.173-10.917-4.173-15.083,0  c-4.167,4.173-4.167,10.934,0,15.107l42.667,42.735c2.083,2.087,4.813,3.13,7.542,3.13s5.458-1.043,7.542-3.13l42.667-42.735  c4.167-4.173,4.167-10.934,0-15.107c-4.167-4.173-10.917-4.173-15.083,0l-24.458,24.497V356.091  c13.462,9.623,31.357,13.462,48.188,16.937c42.008,8.671,85.322,17.722,90.01,102.028l-23.99-24.028  c-4.167-4.173-10.917-4.173-15.083,0c-4.167,4.173-4.167,10.934,0,15.107l42.667,42.735c2.083,2.087,4.813,3.13,7.542,3.13  c2.729,0,5.458-1.043,7.542-3.13l42.667-42.735c2.079-2.083,3.121-4.826,3.125-7.554  C469.337,455.842,468.296,453.118,466.208,451.028z"/>
<path style="fill:#546E7A;" d="M256,20.516c79.406,0,128,20.719,128,32s-48.594,32-128,32s-128-20.719-128-32  S176.594,20.516,256,20.516z"/>
<linearGradient id="SVGID_1_" gradientUnits="userSpaceOnUse" x1="-39.6502" y1="646.3288" x2="-29.7561" y2="641.7166" gradientTransform="matrix(21.3333 0 0 -21.3333 996.3334 13791.667)">
	<stop offset="0" style="stop-color:#FFFFFF;stop-opacity:0.2"/>
	<stop offset="1" style="stop-color:#FFFFFF;stop-opacity:0"/>
</linearGradient>
<path style="fill:url(#SVGID_1_);" d="M256,20.516c79.406,0,128,20.719,128,32s-48.594,32-128,32s-128-20.719-128-32  S176.594,20.516,256,20.516z"/>
<g>
	<path style="fill:#546E7A;" d="M128,81.299c27.549,16.177,77.936,24.549,128,24.549s100.451-8.372,128-24.549v35.216   c0,11.281-48.594,32-128,32s-128-20.719-128-32V81.299z"/>
	<path style="fill:#546E7A;" d="M128,145.299c27.549,16.177,77.936,24.549,128,24.549s100.451-8.372,128-24.549v35.216   c0,11.281-48.594,32-128,32s-128-20.719-128-32V145.299z"/>
	<path style="fill:#546E7A;" d="M128,244.516v-35.216c27.549,16.177,77.936,24.549,128,24.549s100.451-8.372,128-24.549v35.216   c0,11.281-48.594,32-128,32S128,255.797,128,244.516z"/>
</g>
<linearGradient id="SVGID_2_" gradientUnits="userSpaceOnUse" x1="-37.7328" y1="645.6435" x2="-27.8528" y2="635.7625" gradientTransform="matrix(21.3333 0 0 -21.3333 996.3334 13791.667)">
	<stop offset="0" style="stop-color:#000000;stop-opacity:0.1"/>
	<stop offset="1" style="stop-color:#000000;stop-opacity:0"/>
</linearGradient>
<path style="fill:url(#SVGID_2_);" d="M316.098,271.975c42.888-6.714,67.902-19.423,67.902-27.46v-35.216  c-23.518,13.81-63.702,21.878-106.096,23.958L316.098,271.975z M213.224,167.691l44.173,44.779  C335.932,212.217,384,191.728,384,180.516v-35.216c-27.549,16.177-77.936,24.549-128,24.549  C241.56,169.849,227.161,169.07,213.224,167.691z M256,105.849c-50.064,0-100.451-8.372-128-24.549l60.599,61.43  c18.832,3.418,41.247,5.786,67.401,5.786c79.406,0,128-20.719,128-32V81.299C356.451,97.477,306.064,105.849,256,105.849z"/>
<linearGradient id="SVGID_3_" gradientUnits="userSpaceOnUse" x1="-44.5553" y1="638.1536" x2="-23.1638" y2="628.1783" gradientTransform="matrix(21.3333 0 0 -21.3333 996.3334 13791.667)">
	<stop offset="0" style="stop-color:#FFFFFF;stop-opacity:0.2"/>
	<stop offset="1" style="stop-color:#FFFFFF;stop-opacity:0"/>
</linearGradient>
<path style="fill:url(#SVGID_3_);" d="M466.208,451.028c-4.167-4.173-10.917-4.173-15.083,0l-24.96,25  c-5.109-102.622-63.642-114.974-107.009-123.928c-35.448-7.314-52.49-12.207-52.49-43.09V298.16  c70.568-1.672,138.667-19.868,138.667-53.253V52.6c0-70.133-298.667-70.133-298.667,0v192.307  c0,33.385,68.099,51.581,138.667,53.253v10.849c0,30.883-17.042,35.776-52.49,43.09c-43.367,8.954-101.9,21.306-107.009,123.928  l-24.96-25c-4.167-4.173-10.917-4.173-15.083,0c-2.082,2.086-3.124,4.818-3.125,7.55c-0.001,2.735,1.041,5.47,3.125,7.558  l42.667,42.735C90.542,510.957,93.271,512,96,512c2.729,0,5.458-1.043,7.542-3.13l42.667-42.735c4.167-4.173,4.167-10.934,0-15.107  c-4.167-4.173-10.917-4.173-15.083,0l-23.99,24.028c4.689-84.305,48.003-93.356,90.01-102.028  c16.831-3.476,34.725-7.314,48.188-16.937v119.434l-24.458-24.497c-4.167-4.173-10.917-4.173-15.083,0  c-4.167,4.173-4.167,10.934,0,15.107l42.667,42.735c2.083,2.087,4.813,3.13,7.542,3.13s5.458-1.043,7.542-3.13l42.667-42.735  c4.167-4.173,4.167-10.934,0-15.107c-4.167-4.173-10.917-4.173-15.083,0l-24.458,24.497V356.091  c13.462,9.623,31.357,13.462,48.188,16.937c42.008,8.671,85.322,17.722,90.01,102.028l-23.99-24.028  c-4.167-4.173-10.917-4.173-15.083,0c-4.167,4.173-4.167,10.934,0,15.107l42.667,42.735c2.083,2.087,4.813,3.13,7.542,3.13  c2.729,0,5.458-1.043,7.542-3.13l42.667-42.735c2.079-2.083,3.121-4.826,3.125-7.554  C469.337,455.842,468.296,453.118,466.208,451.028z"/>
<g>
</g>
<g>
</g>
<g>
</g>
<g>
</g>
<g>
</g>
<g>
</g>
<g>
</g>
<g>
</g>
<g>
</g>
<g>
</g>
<g>
</g>
<g>
</g>
<g>
</g>
<g>
</g>
<g>
</g>
</svg>
