<?xml version="1.0" encoding="iso-8859-1"?>
<!-- Generator: Adobe Illustrator 19.0.0, SVG Export Plug-In . SVG Version: 6.00 Build 0)  -->
<svg xmlns="http://www.w3.org/2000/svg" xmlns:xlink="http://www.w3.org/1999/xlink" version="1.1" id="Capa_1" x="0px" y="0px" viewBox="0 0 512 512" style="enable-background:new 0 0 512 512;" xml:space="preserve">
<path style="fill:#303C42;" d="M490.667,160V74.667C490.667,25.646,372.615,0,256,0S21.333,25.646,21.333,74.667V160  c0,9.876,4.979,18.755,13.586,26.715c-8.924,8.208-13.586,17.107-13.586,26.618v85.333c0,9.876,4.979,18.755,13.586,26.715  C25.995,333.59,21.333,342.488,21.333,352v85.333C21.333,486.354,139.385,512,256,512s234.667-25.646,234.667-74.667V352  c0-9.512-4.661-18.41-13.586-26.618c8.605-7.96,13.586-16.839,13.586-26.715v-85.333c0-9.512-4.661-18.41-13.586-26.618  C485.686,178.755,490.667,169.876,490.667,160z"/>
<g>
	<path style="fill:#546E7A;" d="M256,213.333c-130.229,0-213.333-31.583-213.333-53.333v-52.318   c39.161,27.44,126.6,41.651,213.333,41.651s174.172-14.211,213.333-41.651V160C469.333,181.75,386.229,213.333,256,213.333z"/>
	<path style="fill:#546E7A;" d="M256,21.333c130.229,0,213.333,31.583,213.333,53.333S386.229,128,256,128   S42.667,96.417,42.667,74.667S125.771,21.333,256,21.333z"/>
</g>
<linearGradient id="SVGID_1_" gradientUnits="userSpaceOnUse" x1="-42.955" y1="646.8323" x2="-26.4512" y2="639.1364" gradientTransform="matrix(21.3333 0 0 -21.3333 996.3334 13791.667)">
	<stop offset="0" style="stop-color:#FFFFFF;stop-opacity:0.2"/>
	<stop offset="1" style="stop-color:#FFFFFF;stop-opacity:0"/>
</linearGradient>
<path style="fill:url(#SVGID_1_);" d="M256,21.333c130.229,0,213.333,31.583,213.333,53.333S386.229,128,256,128  S42.667,96.417,42.667,74.667S125.771,21.333,256,21.333z"/>
<g>
	<path style="fill:#546E7A;" d="M256,352c-130.229,0-213.333-31.583-213.333-53.333v-52.318C81.828,273.789,169.267,288,256,288   s174.172-14.211,213.333-41.651v52.318C469.333,320.417,386.229,352,256,352z"/>
	<path style="fill:#546E7A;" d="M256,490.667c-130.229,0-213.333-31.583-213.333-53.333v-52.318   c39.161,27.44,126.6,41.651,213.333,41.651s174.172-14.211,213.333-41.651v52.318C469.333,459.083,386.229,490.667,256,490.667z"/>
	<path style="fill:#546E7A;" d="M469.333,352c0,21.75-83.104,53.333-213.333,53.333S42.667,373.75,42.667,352   c0-4.053,3.78-8.988,10.318-13.947c42.874,23.268,123.257,35.28,203.016,35.28s160.142-12.012,203.016-35.28   C465.553,343.012,469.333,347.947,469.333,352z"/>
	<path style="fill:#546E7A;" d="M469.333,213.333c0,21.75-83.104,53.333-213.333,53.333S42.667,235.083,42.667,213.333   c0-4.053,3.78-8.988,10.318-13.947c42.874,23.268,123.257,35.28,203.016,35.28s160.142-12.012,203.016-35.28   C465.553,204.345,469.333,209.28,469.333,213.333z"/>
</g>
<path style="opacity:0.2;enable-background:new    ;" d="M469.333,352c0,21.75-83.104,53.333-213.333,53.333  S42.667,373.75,42.667,352c0-4.053,3.78-8.988,10.318-13.947c42.874,23.268,123.257,35.28,203.016,35.28  s160.142-12.012,203.016-35.28C465.553,343.012,469.333,347.947,469.333,352z"/>
<path style="opacity:0.2;enable-background:new    ;" d="M469.333,213.333c0,21.75-83.104,53.333-213.333,53.333  S42.667,235.083,42.667,213.333c0-4.053,3.78-8.988,10.318-13.947c42.874,23.268,123.257,35.28,203.016,35.28  s160.142-12.012,203.016-35.28C465.553,204.345,469.333,209.28,469.333,213.333z"/>
<linearGradient id="SVGID_2_" gradientUnits="userSpaceOnUse" x1="-47.1144" y1="640.2725" x2="-22.2918" y2="628.6962" gradientTransform="matrix(21.3333 0 0 -21.3333 996.3334 13791.667)">
	<stop offset="0" style="stop-color:#FFFFFF;stop-opacity:0.2"/>
	<stop offset="1" style="stop-color:#FFFFFF;stop-opacity:0"/>
</linearGradient>
<path style="fill:url(#SVGID_2_);" d="M490.667,160V74.667C490.667,25.646,372.615,0,256,0S21.333,25.646,21.333,74.667V160  c0,9.876,4.979,18.755,13.586,26.715c-8.924,8.208-13.586,17.107-13.586,26.618v85.333c0,9.876,4.979,18.755,13.586,26.715  C25.995,333.59,21.333,342.488,21.333,352v85.333C21.333,486.354,139.385,512,256,512s234.667-25.646,234.667-74.667V352  c0-9.512-4.661-18.41-13.586-26.618c8.605-7.96,13.586-16.839,13.586-26.715v-85.333c0-9.512-4.661-18.41-13.586-26.618  C485.686,178.755,490.667,169.876,490.667,160z"/>
<g>
</g>
<g>
</g>
<g>
</g>
<g>
</g>
<g>
</g>
<g>
</g>
<g>
</g>
<g>
</g>
<g>
</g>
<g>
</g>
<g>
</g>
<g>
</g>
<g>
</g>
<g>
</g>
<g>
</g>
</svg>
