<?xml version="1.0" encoding="iso-8859-1"?>
<!-- Generator: Adobe Illustrator 19.0.0, SVG Export Plug-In . SVG Version: 6.00 Build 0)  -->
<svg xmlns="http://www.w3.org/2000/svg" xmlns:xlink="http://www.w3.org/1999/xlink" version="1.1" id="Capa_1" x="0px" y="0px" viewBox="0 0 512 512" style="enable-background:new 0 0 512 512;" xml:space="preserve">
<path style="fill:#303C42;" d="M234.667,0C118.052,0,0,25.646,0,74.667v320c0,49.021,118.052,74.667,234.667,74.667  s234.667-25.646,234.667-74.667v-320C469.333,25.646,351.281,0,234.667,0z"/>
<path style="fill:#546E7A;" d="M234.667,21.333C364.896,21.333,448,52.917,448,74.667S364.896,128,234.667,128  S21.333,96.417,21.333,74.667S104.438,21.333,234.667,21.333z"/>
<linearGradient id="SVGID_1_" gradientUnits="userSpaceOnUse" x1="-43.955" y1="646.8323" x2="-27.4512" y2="639.1364" gradientTransform="matrix(21.3333 0 0 -21.3333 996.3334 13791.667)">
	<stop offset="0" style="stop-color:#FFFFFF;stop-opacity:0.2"/>
	<stop offset="1" style="stop-color:#FFFFFF;stop-opacity:0"/>
</linearGradient>
<path style="fill:url(#SVGID_1_);" d="M234.667,21.333C364.896,21.333,448,52.917,448,74.667S364.896,128,234.667,128  S21.333,96.417,21.333,74.667S104.438,21.333,234.667,21.333z"/>
<g>
	<path style="fill:#546E7A;" d="M234.667,448c-130.229,0-213.333-31.583-213.333-53.333v-73.651   c39.161,27.44,126.6,41.651,213.333,41.651S408.839,348.456,448,321.016v73.651C448,416.417,364.896,448,234.667,448z"/>
	<path style="fill:#546E7A;" d="M234.667,341.333c-130.229,0-213.333-31.583-213.333-53.333v-73.651   C60.495,241.789,147.934,256,234.667,256S408.839,241.789,448,214.349V288C448,309.75,364.896,341.333,234.667,341.333z"/>
	<path style="fill:#546E7A;" d="M234.667,234.667c-130.229,0-213.333-31.583-213.333-53.333v-73.651   c39.161,27.44,126.6,41.651,213.333,41.651S408.839,135.122,448,107.682v73.651C448,203.083,364.896,234.667,234.667,234.667z"/>
</g>
<linearGradient id="SVGID_2_" gradientUnits="userSpaceOnUse" x1="-40.7037" y1="646.4365" x2="-23.8645" y2="629.5984" gradientTransform="matrix(21.3333 0 0 -21.3333 996.3334 13791.667)">
	<stop offset="0" style="stop-color:#000000;stop-opacity:0.1"/>
	<stop offset="1" style="stop-color:#000000;stop-opacity:0"/>
</linearGradient>
<path style="fill:url(#SVGID_2_);" d="M351.863,438.212C412.518,427.148,448,408.844,448,394.667v-73.651  c-33.036,23.148-100.501,36.759-172.845,40.488L351.863,438.212z M166.613,252.962l88.069,88.069  C373.305,338.001,448,308.609,448,288v-73.651C408.839,241.789,321.4,256,234.667,256C211.706,256,188.764,254.936,166.613,252.962z   M234.667,149.333c-86.733,0-174.172-14.211-213.333-41.651l121.148,121.148c27.072,3.613,57.944,5.836,92.185,5.836  c130.229,0,213.333-31.583,213.333-53.333v-73.651C408.839,135.122,321.4,149.333,234.667,149.333z"/>
<path style="fill:#303C42;" d="M503.917,362.979l-20.438-5.083l10.833-18.083c2.521-4.188,1.854-9.563-1.604-13.021l-30.167-30.167  c-3.479-3.5-8.833-4.104-13.021-1.604l-18.083,10.833l-5.083-20.438c-1.188-4.75-5.458-8.083-10.354-8.083h-42.667  c-4.896,0-9.167,3.333-10.354,8.083l-5.104,20.438l-18.083-10.833c-4.188-2.5-9.542-1.896-13.021,1.604l-30.167,30.167  c-3.458,3.458-4.125,8.833-1.604,13.021l10.833,18.083l-20.417,5.083c-4.75,1.188-8.083,5.458-8.083,10.354V416  c0,4.896,3.333,9.167,8.083,10.354l20.438,5.104L295,449.542c-2.521,4.188-1.854,9.563,1.604,13.021l30.167,30.167  c3.479,3.479,8.875,4.104,13.021,1.604l18.083-10.854l5.104,20.438c1.188,4.75,5.458,8.083,10.354,8.083H416  c4.896,0,9.167-3.333,10.354-8.083l5.083-20.417l18.083,10.833c4.125,2.5,9.542,1.875,13.021-1.604l30.167-30.167  c3.458-3.458,4.125-8.833,1.604-13.021l-10.833-18.083l20.438-5.104c4.75-1.188,8.083-5.458,8.083-10.354v-42.667  C512,368.438,508.667,364.167,503.917,362.979z M394.667,426.667c-17.646,0-32-14.354-32-32c0-17.646,14.354-32,32-32  c17.646,0,32,14.354,32,32C426.667,412.313,412.313,426.667,394.667,426.667z"/>
<path style="fill:#E6E6E6;" d="M472.333,377.104c-3.5-0.875-6.333-3.458-7.5-6.875c-0.938-2.75-2-5.417-3.229-7.979  c-1.563-3.229-1.396-7.021,0.458-10.104L471.729,336l-18.396-18.396l-16.146,9.667c-3.104,1.875-6.917,2-10.104,0.458  c-2.563-1.229-5.229-2.292-7.979-3.229c-3.417-1.167-6-4-6.875-7.5l-4.563-18.333h-26L377.083,317c-0.875,3.5-3.458,6.333-6.875,7.5  c-2.771,0.958-5.417,2-8,3.25c-3.25,1.5-7,1.375-10.083-0.479l-16.146-9.667l-18.396,18.375l9.688,16.167  c1.854,3.083,2.021,6.917,0.438,10.167c-1.25,2.542-2.292,5.188-3.229,7.917c-1.167,3.417-4,6-7.5,6.875l-18.313,4.563v26  l18.313,4.583c3.5,0.875,6.333,3.479,7.5,6.875c0.938,2.75,2,5.375,3.25,7.938c1.563,3.25,1.396,7.063-0.458,10.146l-9.688,16.167  l18.375,18.375l16.167-9.688c3.063-1.896,6.875-2.021,10.146-0.458c2.563,1.25,5.188,2.313,7.938,3.25c3.396,1.167,6,4,6.875,7.5  l4.583,18.313h26l4.563-18.313c0.875-3.5,3.458-6.333,6.875-7.5c2.729-0.938,5.375-1.979,7.917-3.229  c3.208-1.604,7.083-1.458,10.167,0.438l16.167,9.688l18.375-18.396l-9.667-16.146c-1.854-3.063-2.021-6.854-0.479-10.083  c1.25-2.583,2.292-5.229,3.25-8c1.167-3.417,4-6,7.5-6.875l18.333-4.583v-26L472.333,377.104z M394.667,448  c-29.417,0-53.333-23.917-53.333-53.333c0-29.417,23.917-53.333,53.333-53.333c29.417,0,53.333,23.917,53.333,53.333  C448,424.083,424.083,448,394.667,448z"/>
<linearGradient id="SVGID_3_" gradientUnits="userSpaceOnUse" x1="-47.7313" y1="641.0944" x2="-21.649" y2="628.9294" gradientTransform="matrix(21.3333 0 0 -21.3333 996.3334 13791.667)">
	<stop offset="0" style="stop-color:#FFFFFF;stop-opacity:0.2"/>
	<stop offset="1" style="stop-color:#FFFFFF;stop-opacity:0"/>
</linearGradient>
<path style="fill:url(#SVGID_3_);" d="M503.917,362.979l-20.438-5.083l10.833-18.083c2.521-4.188,1.854-9.563-1.604-13.021  l-23.375-23.375V74.667C469.333,25.646,351.281,0,234.667,0S0,25.646,0,74.667v320c0,49.021,118.052,74.667,234.667,74.667  c22.201,0,44.441-0.943,65.922-2.786l26.182,26.182c3.479,3.479,8.875,4.104,13.021,1.604l18.083-10.854l5.104,20.438  c1.188,4.75,5.458,8.083,10.354,8.083H416c4.896,0,9.167-3.333,10.354-8.083l5.083-20.417l18.083,10.833  c4.125,2.5,9.542,1.875,13.021-1.604l30.167-30.167c3.458-3.458,4.125-8.833,1.604-13.021l-10.833-18.083l20.438-5.104  c4.75-1.188,8.083-5.458,8.083-10.354v-42.667C512,368.438,508.667,364.167,503.917,362.979z"/>
<g>
</g>
<g>
</g>
<g>
</g>
<g>
</g>
<g>
</g>
<g>
</g>
<g>
</g>
<g>
</g>
<g>
</g>
<g>
</g>
<g>
</g>
<g>
</g>
<g>
</g>
<g>
</g>
<g>
</g>
</svg>
