<?xml version="1.0" encoding="iso-8859-1"?>
<!-- Generator: Adobe Illustrator 19.0.0, SVG Export Plug-In . SVG Version: 6.00 Build 0)  -->
<svg xmlns="http://www.w3.org/2000/svg" xmlns:xlink="http://www.w3.org/1999/xlink" version="1.1" id="Capa_1" x="0px" y="0px" viewBox="0 0 512 512" style="enable-background:new 0 0 512 512;" xml:space="preserve">
<path style="fill:#303C42;" d="M234.667,0C118.052,0,0,25.646,0,74.667v320c0,49.021,118.052,74.667,234.667,74.667  s234.667-25.646,234.667-74.667v-320C469.333,25.646,351.281,0,234.667,0z"/>
<path style="fill:#546E7A;" d="M234.667,21.333C364.896,21.333,448,52.917,448,74.667S364.896,128,234.667,128  S21.333,96.417,21.333,74.667S104.438,21.333,234.667,21.333z"/>
<linearGradient id="SVGID_1_" gradientUnits="userSpaceOnUse" x1="-43.955" y1="646.8323" x2="-27.4512" y2="639.1364" gradientTransform="matrix(21.3333 0 0 -21.3333 996.3334 13791.667)">
	<stop offset="0" style="stop-color:#FFFFFF;stop-opacity:0.2"/>
	<stop offset="1" style="stop-color:#FFFFFF;stop-opacity:0"/>
</linearGradient>
<path style="fill:url(#SVGID_1_);" d="M234.667,21.333C364.896,21.333,448,52.917,448,74.667S364.896,128,234.667,128  S21.333,96.417,21.333,74.667S104.438,21.333,234.667,21.333z"/>
<g>
	<path style="fill:#546E7A;" d="M234.667,448c-130.229,0-213.333-31.583-213.333-53.333v-73.651   c39.161,27.44,126.6,41.651,213.333,41.651S408.839,348.456,448,321.016v73.651C448,416.417,364.896,448,234.667,448z"/>
	<path style="fill:#546E7A;" d="M234.667,341.333c-130.229,0-213.333-31.583-213.333-53.333v-73.651   C60.495,241.789,147.934,256,234.667,256S408.839,241.789,448,214.349V288C448,309.75,364.896,341.333,234.667,341.333z"/>
	<path style="fill:#546E7A;" d="M234.667,234.667c-130.229,0-213.333-31.583-213.333-53.333v-73.651   c39.161,27.44,126.6,41.651,213.333,41.651S408.839,135.122,448,107.682v73.651C448,203.083,364.896,234.667,234.667,234.667z"/>
</g>
<linearGradient id="SVGID_2_" gradientUnits="userSpaceOnUse" x1="-40.7037" y1="646.4365" x2="-23.8645" y2="629.5984" gradientTransform="matrix(21.3333 0 0 -21.3333 996.3334 13791.667)">
	<stop offset="0" style="stop-color:#000000;stop-opacity:0.1"/>
	<stop offset="1" style="stop-color:#000000;stop-opacity:0"/>
</linearGradient>
<path style="fill:url(#SVGID_2_);" d="M351.863,438.212C412.518,427.148,448,408.844,448,394.667v-73.651  c-33.036,23.148-100.501,36.759-172.845,40.488L351.863,438.212z M166.613,252.962l88.069,88.069  C373.305,338.001,448,308.609,448,288v-73.651C408.839,241.789,321.4,256,234.667,256C211.706,256,188.764,254.936,166.613,252.962z   M234.667,149.333c-86.733,0-174.172-14.211-213.333-41.651l121.148,121.148c27.072,3.613,57.944,5.836,92.185,5.836  c130.229,0,213.333-31.583,213.333-53.333v-73.651C408.839,135.122,321.4,149.333,234.667,149.333z"/>
<path style="fill:#303C42;" d="M277.333,487.115c0,13.719,11.167,24.885,24.896,24.885h184.875C500.833,512,512,500.833,512,487.115  V366.219c0-13.719-11.167-24.885-24.896-24.885h-88.021l-18.229-18.208c-2-2-4.708-3.125-7.542-3.125h-71.083  c-13.729,0-24.896,11.167-24.896,24.885V487.115z"/>
<path style="fill:#1E88E5;" d="M490.667,487.115c0,1.958-1.604,3.552-3.563,3.552H302.229c-1.958,0-3.563-1.594-3.563-3.552V344.885  c0-1.958,1.604-3.552,3.563-3.552h66.667l18.229,18.208c2,2,4.708,3.125,7.542,3.125h92.438c1.958,0,3.563,1.594,3.563,3.552  V487.115z"/>
<linearGradient id="SVGID_3_" gradientUnits="userSpaceOnUse" x1="-47.7314" y1="641.0938" x2="-20.3936" y2="628.3448" gradientTransform="matrix(21.3333 0 0 -21.3333 996.3334 13791.667)">
	<stop offset="0" style="stop-color:#FFFFFF;stop-opacity:0.2"/>
	<stop offset="1" style="stop-color:#FFFFFF;stop-opacity:0"/>
</linearGradient>
<path style="fill:url(#SVGID_3_);" d="M487.104,341.333h-17.771V74.667C469.333,25.646,351.281,0,234.667,0S0,25.646,0,74.667v320  c0,49.021,118.052,74.667,234.667,74.667c14.275,0,28.568-0.396,42.667-1.16v18.941c0,13.719,11.167,24.885,24.896,24.885h184.875  C500.833,512,512,500.833,512,487.115V366.219C512,352.5,500.833,341.333,487.104,341.333z"/>
<g>
</g>
<g>
</g>
<g>
</g>
<g>
</g>
<g>
</g>
<g>
</g>
<g>
</g>
<g>
</g>
<g>
</g>
<g>
</g>
<g>
</g>
<g>
</g>
<g>
</g>
<g>
</g>
<g>
</g>
</svg>
