<?xml version="1.0" encoding="iso-8859-1"?>
<!-- Generator: Adobe Illustrator 19.0.0, SVG Export Plug-In . SVG Version: 6.00 Build 0)  -->
<svg xmlns="http://www.w3.org/2000/svg" xmlns:xlink="http://www.w3.org/1999/xlink" version="1.1" id="Capa_1" x="0px" y="0px" viewBox="0 0 469.333 469.333" style="enable-background:new 0 0 469.333 469.333;" xml:space="preserve">
<path style="fill:#303C42;" d="M409.75,113.74C401.042,49.344,334.469,0,254.146,0C191,0,134.104,31.156,109.802,78.25  c-0.573-0.021-1.156-0.031-1.74-0.031C48.479,78.219,0,118.094,0,167.115v213.333c0,49.01,48.479,88.885,108.063,88.885H380.75  c48.844,0,88.583-32.854,88.583-73.24V182.76C469.333,151.323,445.208,123.823,409.75,113.74z"/>
<path style="fill:#F2F2F2;" d="M108.063,99.552c1.583,0,3.135,0.156,4.688,0.302l2.771,0.229c4.74,0.354,8.76-2.24,10.552-6.396  c18.771-43.271,70.24-72.354,128.073-72.354c72.323,0,131.667,44.635,135.083,101.604c0.292,4.823,3.781,8.854,8.51,9.813  c29.594,6.031,50.26,26.594,50.26,50.01c0,28.625-30.167,51.906-67.25,51.906H108.063c-47.823,0-86.729-30.302-86.729-67.552  S60.24,99.552,108.063,99.552z"/>
<path style="opacity:0.2;fill:#FFFFFF;enable-background:new    ;" d="M36.191,181.973c0-37.25,38.906-67.563,86.729-67.563  c1.583,0,3.135,0.156,4.688,0.302l2.771,0.229c4.74,0.354,8.76-2.24,10.552-6.396c18.771-43.271,70.24-72.354,128.073-72.354  c38.706,0,73.591,12.865,98.279,33.482c-24.178-29.165-65.82-48.34-113.137-48.34c-57.833,0-109.302,29.083-128.073,72.354  c-1.792,4.156-5.813,6.75-10.552,6.396l-2.771-0.229c-1.552-0.146-3.104-0.302-4.688-0.302c-47.823,0-86.729,30.313-86.729,67.563  c0,19.198,10.447,36.449,27.009,48.759C40.815,205.87,36.191,194.383,36.191,181.973z"/>
<g>
	<path style="fill:#E6E6E6;" d="M448,396.094C448,424.719,417.833,448,380.75,448H108.063c-47.823,0-86.729-30.302-86.729-67.552   v-54.164c19.697,21.947,51.098,36.383,86.729,36.383H380.75c27.04,0,50.988-10.284,67.25-26.125V396.094z"/>
	<path style="fill:#E6E6E6;" d="M448,289.427c0,28.625-30.167,51.906-67.25,51.906H108.063c-47.823,0-86.729-30.302-86.729-67.552   v-54.164C41.03,241.564,72.431,256,108.063,256H380.75c27.04,0,50.988-10.284,67.25-26.125V289.427z"/>
</g>
<path style="fill:#303C42;" d="M74.667,266.667c-5.896,0-10.667,4.771-10.667,10.667v21.333c0,5.896,4.771,10.667,10.667,10.667  c5.896,0,10.667-4.771,10.667-10.667v-21.333C85.333,271.438,80.563,266.667,74.667,266.667z"/>
<linearGradient id="SVGID_1_" gradientUnits="userSpaceOnUse" x1="-61.1593" y1="618.7339" x2="-46.6083" y2="604.184" gradientTransform="matrix(21.3333 0 0 -21.3333 1430.1112 13315.2227)">
	<stop offset="0" style="stop-color:#000000;stop-opacity:0.1"/>
	<stop offset="1" style="stop-color:#000000;stop-opacity:0"/>
</linearGradient>
<path style="fill:url(#SVGID_1_);" d="M380.75,256H108.063c-35.632,0-67.033-14.436-86.729-36.383l121.716,121.716H380.75  c37.083,0,67.25-23.281,67.25-51.906v-59.552C431.738,245.716,407.79,256,380.75,256z M164.383,362.667L249.716,448H380.75  c37.083,0,67.25-23.281,67.25-51.906v-59.552c-16.262,15.841-40.21,26.125-67.25,26.125H164.383z"/>
<g>
	<path style="fill:#303C42;" d="M117.333,277.333c-5.896,0-10.667,4.771-10.667,10.667v21.333c0,5.896,4.771,10.667,10.667,10.667   S128,315.229,128,309.333V288C128,282.104,123.229,277.333,117.333,277.333z"/>
	<path style="fill:#303C42;" d="M160,277.333c-5.896,0-10.667,4.771-10.667,10.667v21.333c0,5.896,4.771,10.667,10.667,10.667   c5.896,0,10.667-4.771,10.667-10.667V288C170.667,282.104,165.896,277.333,160,277.333z"/>
	<circle style="fill:#303C42;" cx="384" cy="298.667" r="21.333"/>
	<circle style="fill:#303C42;" cx="320" cy="298.667" r="21.333"/>
	<path style="fill:#303C42;" d="M74.667,373.333C68.771,373.333,64,378.104,64,384v21.333C64,411.229,68.771,416,74.667,416   c5.896,0,10.667-4.771,10.667-10.667V384C85.333,378.104,80.563,373.333,74.667,373.333z"/>
	<path style="fill:#303C42;" d="M117.333,384c-5.896,0-10.667,4.771-10.667,10.667V416c0,5.896,4.771,10.667,10.667,10.667   S128,421.896,128,416v-21.333C128,388.771,123.229,384,117.333,384z"/>
	<path style="fill:#303C42;" d="M160,384c-5.896,0-10.667,4.771-10.667,10.667V416c0,5.896,4.771,10.667,10.667,10.667   c5.896,0,10.667-4.771,10.667-10.667v-21.333C170.667,388.771,165.896,384,160,384z"/>
	<circle style="fill:#303C42;" cx="384" cy="405.333" r="21.333"/>
	<circle style="fill:#303C42;" cx="320" cy="405.333" r="21.333"/>
</g>
<linearGradient id="SVGID_2_" gradientUnits="userSpaceOnUse" x1="-66.9735" y1="617.2248" x2="-44.2512" y2="606.6287" gradientTransform="matrix(21.3333 0 0 -21.3333 1430.1112 13315.2227)">
	<stop offset="0" style="stop-color:#FFFFFF;stop-opacity:0.2"/>
	<stop offset="1" style="stop-color:#FFFFFF;stop-opacity:0"/>
</linearGradient>
<path style="fill:url(#SVGID_2_);" d="M409.75,113.74C401.042,49.344,334.469,0,254.146,0C191,0,134.104,31.156,109.802,78.25  c-0.573-0.021-1.156-0.031-1.74-0.031C48.479,78.219,0,118.094,0,167.115v213.333c0,49.01,48.479,88.885,108.063,88.885H380.75  c48.844,0,88.583-32.854,88.583-73.24V182.76C469.333,151.323,445.208,123.823,409.75,113.74z"/>
<g>
</g>
<g>
</g>
<g>
</g>
<g>
</g>
<g>
</g>
<g>
</g>
<g>
</g>
<g>
</g>
<g>
</g>
<g>
</g>
<g>
</g>
<g>
</g>
<g>
</g>
<g>
</g>
<g>
</g>
</svg>
