<?xml version="1.0" encoding="iso-8859-1"?>
<!-- Generator: Adobe Illustrator 19.0.0, SVG Export Plug-In . SVG Version: 6.00 Build 0)  -->
<svg xmlns="http://www.w3.org/2000/svg" xmlns:xlink="http://www.w3.org/1999/xlink" version="1.1" id="Capa_1" x="0px" y="0px" viewBox="0 0 512 512" style="enable-background:new 0 0 512 512;" xml:space="preserve">
<path style="fill:#303C42;" d="M512,288c0-40.835-26.305-76.784-65.104-90.382c-7.719-87.408-80.809-154.952-169.563-154.952  c-69.875,0-132.074,42.762-157.727,106.853c-0.76-0.016-1.512-0.186-2.273-0.186C52.646,149.333,0,201.969,0,266.667  c0,44.71,26.219,85.289,66.094,104.809C64.858,375.461,64,379.612,64,384v42.667c0,23.531,19.146,42.667,42.667,42.667h298.667  c23.521,0,42.667-19.135,42.667-42.667V384c0-1.954-0.322-3.824-0.577-5.71C485.359,365.03,512,328.878,512,288z"/>
<path style="fill:#E6E6E6;" d="M426.667,426.667c0,11.76-9.563,21.333-21.333,21.333H106.667c-11.771,0-21.333-9.573-21.333-21.333  V384c0-11.76,9.563-21.333,21.333-21.333h298.667c11.771,0,21.333,9.573,21.333,21.333V426.667z"/>
<path style="fill:#F2F2F2;" d="M114.641,341.333l62.068-73.917c6.104-7.25,15.021-11.417,24.5-11.417h109.583  c9.479,0,18.396,4.167,24.5,11.427l62.065,73.906H114.641z"/>
<path style="fill:#E6E6E6;" d="M439.368,358.544c-0.43-0.573-0.909-1.104-1.367-1.656l0.165-0.138l-86.542-103.042  c-10.146-12.104-25.042-19.042-40.833-19.042H201.208c-15.792,0-30.688,6.938-40.833,19.031l-83.438,99.355  c-33.475-15.663-55.604-49.29-55.604-86.387c0-52.938,43.063-96,96-96c20.5,0,40.958,6.833,57.625,19.229  c4.708,3.49,11.396,2.552,14.938-2.198c3.521-4.729,2.521-11.406-2.188-14.927c-13.685-10.172-29.551-16.957-46.053-20.51  C165.301,99.142,218.111,64,277.333,64c75.41,0,137.956,55.69,147.711,128.905C422.042,192.604,418.893,192,416,192  c-5.896,0-10.667,4.771-10.667,10.667s4.771,10.667,10.667,10.667c4.438,0,9.042,0.469,15.333,1.594  c34.375,7.177,59.333,37.906,59.333,73.073C490.667,320.16,469.438,348.543,439.368,358.544z"/>
<g>
	<path style="fill:#303C42;" d="M117.333,384c-5.896,0-10.667,4.771-10.667,10.667V416c0,5.896,4.771,10.667,10.667,10.667   S128,421.896,128,416v-21.333C128,388.771,123.229,384,117.333,384z"/>
	<path style="fill:#303C42;" d="M160,384c-5.896,0-10.667,4.771-10.667,10.667V416c0,5.896,4.771,10.667,10.667,10.667   c5.896,0,10.667-4.771,10.667-10.667v-21.333C170.667,388.771,165.896,384,160,384z"/>
	<path style="fill:#303C42;" d="M202.667,384c-5.896,0-10.667,4.771-10.667,10.667V416c0,5.896,4.771,10.667,10.667,10.667   s10.667-4.771,10.667-10.667v-21.333C213.333,388.771,208.563,384,202.667,384z"/>
	<circle style="fill:#303C42;" cx="384" cy="405.333" r="21.333"/>
	<circle style="fill:#303C42;" cx="320" cy="405.333" r="21.333"/>
</g>
<linearGradient id="SVGID_1_" gradientUnits="userSpaceOnUse" x1="-45.2514" y1="638.3162" x2="-24.3142" y2="628.5531" gradientTransform="matrix(21.3333 0 0 -21.3333 996.3334 13791.667)">
	<stop offset="0" style="stop-color:#FFFFFF;stop-opacity:0.2"/>
	<stop offset="1" style="stop-color:#FFFFFF;stop-opacity:0"/>
</linearGradient>
<path style="fill:url(#SVGID_1_);" d="M512,288c0-40.835-26.305-76.784-65.104-90.382c-7.719-87.408-80.809-154.952-169.563-154.952  c-69.875,0-132.074,42.762-157.727,106.853c-0.76-0.016-1.512-0.186-2.273-0.186C52.646,149.333,0,201.969,0,266.667  c0,44.71,26.219,85.289,66.094,104.809C64.858,375.461,64,379.612,64,384v42.667c0,23.531,19.146,42.667,42.667,42.667h298.667  c23.521,0,42.667-19.135,42.667-42.667V384c0-1.954-0.322-3.824-0.577-5.71C485.359,365.03,512,328.878,512,288z"/>
<g>
</g>
<g>
</g>
<g>
</g>
<g>
</g>
<g>
</g>
<g>
</g>
<g>
</g>
<g>
</g>
<g>
</g>
<g>
</g>
<g>
</g>
<g>
</g>
<g>
</g>
<g>
</g>
<g>
</g>
</svg>
